<svg id="svg" version="1.1" width="400" height="265.8536585365853" viewBox="0 0 400 265.8536585365853" xmlns="http://www.w3.org/2000/svg" xmlns:xlink="http://www.w3.org/1999/xlink" ><g id="svgg"><path id="path0" d="M215.426 88.146 C 215.426 88.703,215.552 88.830,216.109 88.830 C 216.666 88.830,216.777 88.719,216.707 88.231 C 216.577 87.313,215.426 87.237,215.426 88.146 M146.875 87.958 C 146.265 88.175,146.430 92.355,147.065 92.751 C 147.501 93.024,147.562 93.013,147.435 92.682 C 147.352 92.465,147.177 92.287,147.046 92.287 C 146.661 92.287,146.753 88.362,147.141 88.223 C 147.324 88.158,147.414 88.045,147.340 87.972 C 147.267 87.899,147.058 87.892,146.875 87.958 M248.183 90.708 C 247.487 90.987,247.532 91.574,248.258 91.714 C 248.582 91.777,248.668 91.701,248.528 91.475 C 248.405 91.275,248.519 91.000,248.813 90.784 C 249.372 90.376,249.095 90.342,248.183 90.708 M250.066 92.478 C 250.469 92.539,250.798 92.700,250.798 92.837 C 250.798 92.973,250.932 93.085,251.096 93.085 C 251.303 93.085,251.293 92.962,251.064 92.686 C 250.882 92.467,250.418 92.305,250.034 92.327 L 249.335 92.367 250.066 92.478 M150.450 117.989 C 150.238 118.202,150.478 118.617,150.814 118.617 C 150.951 118.617,151.064 118.438,151.064 118.218 C 151.064 117.807,150.750 117.690,150.450 117.989 M183.724 120.258 C 183.614 120.528,183.745 120.934,184.059 121.296 C 184.476 121.776,184.574 121.806,184.574 121.450 C 184.574 121.208,184.463 121.011,184.327 121.011 C 184.191 121.011,184.040 120.741,183.992 120.412 C 183.920 119.920,183.873 119.892,183.724 120.258 M217.819 120.333 C 217.819 120.545,217.610 120.840,217.354 120.989 C 216.928 121.237,216.927 121.261,217.337 121.269 C 217.641 121.274,217.820 121.554,217.893 122.141 C 217.959 122.672,218.016 122.415,218.043 121.476 C 218.066 120.635,218.025 119.947,217.952 119.947 C 217.879 119.947,217.819 120.120,217.819 120.333 M181.383 120.574 C 181.383 120.790,181.233 121.027,181.051 121.100 C 180.842 121.185,180.830 121.242,181.018 121.256 C 181.479 121.288,181.998 120.561,181.662 120.354 C 181.508 120.259,181.383 120.358,181.383 120.574 M183.929 123.556 C 183.354 124.131,183.405 124.273,184.043 123.874 C 184.335 123.692,184.574 123.451,184.574 123.340 C 184.574 123.034,184.389 123.096,183.929 123.556 M149.663 148.138 C 149.229 148.645,149.233 148.670,149.737 148.670 C 150.089 148.670,150.266 148.492,150.266 148.138 C 150.266 147.846,150.233 147.606,150.192 147.606 C 150.151 147.606,149.913 147.846,149.663 148.138 M181.122 150.127 C 180.834 150.474,180.895 150.531,181.550 150.528 C 181.970 150.526,182.194 150.434,182.048 150.325 C 181.902 150.216,181.709 150.036,181.620 149.924 C 181.531 149.812,181.307 149.904,181.122 150.127 M214.370 150.864 C 214.378 151.418,214.405 151.428,214.732 150.997 C 214.987 150.662,215.461 150.532,216.433 150.532 C 217.492 150.532,217.806 150.631,217.902 150.997 C 217.993 151.348,218.031 151.315,218.054 150.864 C 218.083 150.298,217.986 150.266,216.223 150.266 C 214.468 150.266,214.362 150.300,214.370 150.864 M149.236 178.549 C 149.035 178.791,148.616 179.003,148.305 179.020 C 147.790 179.048,147.785 179.063,148.252 179.182 C 148.535 179.254,148.954 179.502,149.183 179.733 C 149.564 180.115,149.609 180.100,149.686 179.568 C 149.848 178.464,149.660 178.038,149.236 178.549 M217.107 180.713 C 216.862 180.979,216.935 181.177,217.439 181.616 C 217.939 182.050,218.085 182.087,218.085 181.780 C 218.085 181.562,217.974 181.383,217.838 181.383 C 217.702 181.383,217.552 181.156,217.505 180.878 C 217.437 180.473,217.358 180.440,217.107 180.713 M180.851 184.043 C 180.851 184.410,181.028 184.574,181.424 184.574 C 181.980 184.574,181.983 184.559,181.516 184.043 C 181.251 183.750,180.993 183.511,180.943 183.511 C 180.892 183.511,180.851 183.750,180.851 184.043 M182.783 184.499 C 183.187 184.560,183.786 184.559,184.113 184.496 C 184.440 184.433,184.109 184.383,183.378 184.385 C 182.646 184.387,182.379 184.438,182.783 184.499 M248.471 196.206 C 249.166 196.261,250.303 196.261,250.997 196.206 C 251.692 196.151,251.124 196.107,249.734 196.107 C 248.344 196.107,247.776 196.151,248.471 196.206 M248.471 198.600 C 249.166 198.655,250.303 198.655,250.997 198.600 C 251.692 198.545,251.124 198.500,249.734 198.500 C 248.344 198.500,247.776 198.545,248.471 198.600 M150.453 208.988 C 150.645 209.110,150.810 210.042,150.865 211.311 L 150.957 213.431 151.010 211.104 C 151.058 209.043,151.011 208.777,150.598 208.781 C 150.281 208.783,150.235 208.849,150.453 208.988 M213.032 211.960 C 213.032 212.320,213.159 212.435,213.438 212.328 C 213.751 212.208,213.773 212.088,213.538 211.804 C 213.128 211.310,213.032 211.340,213.032 211.960 M352.031 234.478 L 351.330 235.179 351.330 244.902 L 351.330 254.625 352.044 255.371 L 352.759 256.117 370.482 256.117 L 388.205 256.117 388.783 255.501 C 389.356 254.892,389.362 254.786,389.362 244.910 L 389.362 234.933 388.746 234.355 L 388.131 233.777 370.431 233.777 L 352.732 233.777 352.031 234.478 M361.864 243.019 C 362.282 243.569,362.346 244.846,361.968 245.080 C 361.541 245.344,361.660 245.968,362.251 246.559 C 362.943 247.251,362.800 247.715,361.863 247.825 C 361.373 247.883,360.972 247.725,360.642 247.345 L 360.152 246.779 359.973 247.341 C 359.840 247.761,359.615 247.882,359.086 247.821 C 358.387 247.740,357.862 244.200,358.358 242.908 C 358.575 242.342,361.419 242.432,361.864 243.019 M366.624 242.822 C 366.996 243.424,366.458 244.149,365.607 244.191 L 364.761 244.234 365.641 244.343 C 366.833 244.489,366.820 245.824,365.625 245.962 C 365.223 246.008,364.894 246.160,364.894 246.299 C 364.894 246.439,365.168 246.484,365.504 246.400 C 366.182 246.229,367.202 247.099,366.899 247.590 C 366.803 247.745,365.953 247.872,365.011 247.872 L 363.298 247.872 363.298 245.213 L 363.298 242.553 364.878 242.553 C 365.747 242.553,366.533 242.674,366.624 242.822 M371.056 242.993 C 371.571 243.459,371.745 245.213,371.277 245.213 C 370.856 245.213,370.964 245.730,371.559 246.566 C 371.861 246.990,372.034 247.457,371.943 247.605 C 371.680 248.029,370.264 247.916,370.003 247.450 C 369.787 247.064,369.730 247.064,369.344 247.450 C 369.111 247.682,368.613 247.872,368.237 247.872 L 367.553 247.872 367.553 245.390 C 367.553 244.025,367.633 242.828,367.730 242.730 C 368.104 242.357,370.569 242.552,371.056 242.993 M373.945 244.215 C 373.959 246.985,374.983 247.758,375.186 245.152 C 375.366 242.840,375.475 242.553,376.173 242.553 C 377.883 242.553,377.391 247.226,375.592 248.075 C 373.646 248.993,372.340 247.750,372.340 244.978 C 372.340 242.710,372.404 242.553,373.316 242.553 C 373.899 242.553,373.937 242.654,373.945 244.215 M380.001 243.505 L 380.814 244.457 380.899 243.572 C 380.971 242.827,381.090 242.686,381.649 242.686 C 382.307 242.686,382.315 242.711,382.390 245.279 L 382.466 247.872 381.538 247.872 C 380.728 247.872,380.549 247.746,380.132 246.875 L 379.654 245.878 379.521 246.809 C 379.410 247.586,379.268 247.753,378.657 247.824 L 377.926 247.908 377.926 245.230 C 377.926 242.082,378.428 241.664,380.001 243.505 " stroke="none" fill="#666666" fill-rule="evenodd"></path><path id="path1" d="M0.000 0.266 C 0.000 0.635,398.841 0.635,399.069 0.266 C 399.179 0.089,332.627 -0.000,199.617 -0.000 C 66.716 -0.000,0.000 0.089,0.000 0.266 M147.675 86.695 C 146.321 87.272,145.422 90.698,146.277 92.021 C 146.455 92.297,146.536 91.751,146.538 90.255 C 146.542 88.577,146.633 88.054,146.941 87.936 C 147.161 87.852,147.340 87.899,147.340 88.040 C 147.340 88.182,147.221 88.298,147.074 88.298 C 146.928 88.298,146.812 88.567,146.817 88.896 C 146.824 89.477,146.833 89.479,147.119 88.963 C 148.166 87.070,149.426 86.751,150.798 88.032 C 151.738 88.910,152.128 89.031,152.128 88.446 C 152.128 87.063,149.362 85.976,147.675 86.695 M183.287 87.380 C 183.118 87.752,182.979 88.232,182.979 88.447 C 182.979 88.661,182.869 89.045,182.735 89.299 C 182.484 89.776,181.383 93.351,181.383 93.691 C 181.383 94.753,182.217 93.435,182.818 91.423 C 183.222 90.070,183.663 88.755,183.798 88.501 C 184.104 87.924,184.119 86.702,183.819 86.702 C 183.696 86.702,183.457 87.007,183.287 87.380 M215.344 87.167 C 214.836 87.423,214.676 87.642,214.842 87.854 C 214.976 88.025,215.171 88.518,215.274 88.949 C 215.405 89.494,215.527 89.627,215.677 89.386 C 215.809 89.172,216.107 89.107,216.456 89.218 C 216.930 89.369,217.021 89.290,217.021 88.730 C 217.021 88.364,217.141 87.989,217.287 87.899 C 217.719 87.632,217.591 87.234,217.074 87.234 C 216.811 87.234,216.482 87.134,216.343 87.012 C 216.204 86.890,215.755 86.960,215.344 87.167 M216.707 88.231 C 216.777 88.719,216.666 88.830,216.109 88.830 C 215.552 88.830,215.426 88.703,215.426 88.146 C 215.426 87.237,216.577 87.313,216.707 88.231 M251.862 88.835 C 251.449 89.050,248.361 90.257,247.540 90.524 C 247.284 90.607,247.074 90.922,247.074 91.223 C 247.074 91.525,247.284 91.839,247.540 91.921 C 247.796 92.003,248.245 92.179,248.537 92.313 C 248.831 92.447,249.418 92.460,249.849 92.341 L 250.628 92.126 249.782 91.775 C 248.461 91.228,248.500 91.190,251.795 89.849 C 252.606 89.520,252.912 89.010,252.460 88.744 C 252.350 88.679,252.081 88.720,251.862 88.835 M248.813 90.784 C 248.519 91.000,248.405 91.275,248.528 91.475 C 248.668 91.701,248.582 91.777,248.258 91.714 C 247.532 91.574,247.487 90.987,248.183 90.708 C 249.095 90.342,249.372 90.376,248.813 90.784 M146.815 91.556 C 146.811 91.958,146.915 92.287,147.046 92.287 C 147.177 92.287,147.359 92.484,147.451 92.724 C 147.592 93.092,147.554 93.106,147.207 92.819 C 146.981 92.631,146.722 92.551,146.631 92.642 C 146.541 92.732,146.753 93.044,147.103 93.336 C 148.729 94.689,152.128 93.544,152.128 91.643 C 152.128 90.702,151.746 90.784,151.076 91.869 C 150.087 93.469,148.083 93.386,147.258 91.712 L 146.821 90.824 146.815 91.556 M250.266 92.487 C 249.661 92.600,249.719 92.668,250.900 93.241 C 251.615 93.587,252.303 93.806,252.430 93.728 C 252.825 93.484,252.681 92.887,252.194 92.747 C 251.938 92.674,251.549 92.557,251.330 92.488 C 251.110 92.419,250.632 92.418,250.266 92.487 M146.941 117.553 C 146.610 118.089,147.140 118.351,148.553 118.351 C 149.349 118.351,150.000 118.465,150.000 118.605 C 150.000 119.016,149.399 120.213,149.193 120.213 C 148.898 120.213,147.796 123.863,147.994 124.183 C 148.319 124.709,148.583 124.475,148.948 123.338 C 149.522 121.554,150.181 120.155,150.917 119.164 C 152.129 117.529,151.927 117.287,149.351 117.287 C 148.116 117.287,147.032 117.407,146.941 117.553 M181.035 117.805 C 180.690 118.155,180.566 118.656,180.594 119.585 C 180.615 120.296,180.551 121.356,180.451 121.941 C 180.173 123.562,180.984 124.468,182.713 124.468 C 184.388 124.468,185.252 123.554,184.973 122.078 C 184.876 121.564,184.808 120.522,184.822 119.761 C 184.864 117.539,182.504 116.319,181.035 117.805 M214.579 117.740 C 213.183 119.328,214.113 122.154,215.998 122.056 C 216.195 122.045,216.117 121.934,215.824 121.809 C 215.347 121.604,215.342 121.578,215.775 121.561 C 217.084 121.511,217.662 122.451,216.801 123.230 C 216.156 123.814,215.612 123.785,215.027 123.138 C 214.426 122.475,214.096 122.460,214.096 123.097 C 214.096 124.299,216.470 124.982,217.403 124.048 C 218.609 122.843,218.900 119.482,217.914 118.156 C 217.215 117.217,215.254 116.972,214.579 117.740 M151.064 118.218 C 151.064 118.438,150.951 118.617,150.814 118.617 C 150.478 118.617,150.238 118.202,150.450 117.989 C 150.750 117.690,151.064 117.807,151.064 118.218 M183.356 118.435 C 183.921 118.848,183.834 119.637,183.178 120.050 C 182.543 120.450,181.807 119.966,181.700 119.078 C 181.624 118.443,181.757 118.318,182.728 118.116 C 182.810 118.099,183.092 118.243,183.356 118.435 M217.302 118.911 C 217.715 119.682,217.325 120.725,216.552 120.919 C 215.288 121.236,214.298 120.128,214.878 119.045 C 215.429 118.015,216.783 117.940,217.302 118.911 M184.327 121.011 C 184.463 121.011,184.574 121.208,184.574 121.450 C 184.574 121.806,184.476 121.776,184.059 121.296 C 183.745 120.934,183.614 120.528,183.724 120.258 C 183.873 119.892,183.920 119.920,183.992 120.412 C 184.040 120.741,184.191 121.011,184.327 121.011 M218.043 121.476 C 218.016 122.415,217.959 122.672,217.893 122.141 C 217.820 121.554,217.641 121.274,217.337 121.269 C 216.927 121.261,216.928 121.237,217.354 120.989 C 217.610 120.840,217.819 120.545,217.819 120.333 C 217.819 120.120,217.879 119.947,217.952 119.947 C 218.025 119.947,218.066 120.635,218.043 121.476 M181.629 120.901 C 181.458 121.108,181.183 121.267,181.018 121.256 C 180.830 121.242,180.842 121.185,181.051 121.100 C 181.233 121.027,181.383 120.790,181.383 120.574 C 181.383 120.358,181.508 120.259,181.662 120.354 C 181.852 120.472,181.842 120.645,181.629 120.901 M183.477 121.442 C 183.945 121.770,184.066 122.062,183.979 122.651 C 183.896 123.219,183.960 123.391,184.220 123.291 C 184.763 123.083,184.641 123.501,184.052 123.868 C 183.604 124.148,183.554 124.132,183.698 123.757 C 183.833 123.406,183.745 123.350,183.261 123.477 C 181.499 123.938,180.372 121.937,182.018 121.271 C 182.792 120.959,182.785 120.958,183.477 121.442 M248.404 121.392 C 248.404 121.894,249.287 122.156,250.257 121.944 C 250.785 121.827,250.987 121.651,250.887 121.392 C 250.683 120.859,248.404 120.859,248.404 121.392 M148.183 149.446 C 146.207 152.302,146.195 152.392,147.806 152.398 C 149.311 152.403,149.650 152.581,149.774 153.437 C 149.919 154.439,150.532 154.454,150.532 153.455 C 150.532 152.833,150.673 152.573,151.064 152.471 C 151.356 152.394,151.596 152.255,151.596 152.161 C 151.596 152.067,151.356 151.840,151.064 151.657 C 150.604 151.370,150.532 151.037,150.532 149.200 C 150.532 146.419,150.257 146.448,148.183 149.446 M181.105 147.629 C 180.178 149.360,180.819 152.357,181.782 150.798 C 181.872 150.652,181.685 150.532,181.366 150.532 C 180.885 150.532,180.842 150.465,181.111 150.140 C 181.396 149.797,181.486 149.799,181.849 150.162 C 182.133 150.446,182.563 150.533,183.219 150.440 C 183.745 150.365,183.955 150.366,183.686 150.442 C 183.224 150.572,183.229 150.614,183.764 151.184 C 185.033 152.534,183.150 154.166,181.624 153.040 C 180.557 152.253,180.019 152.561,180.685 153.577 C 181.269 154.468,183.670 154.576,184.423 153.744 C 185.851 152.166,184.622 149.317,182.602 149.519 C 181.883 149.591,181.782 149.519,181.782 148.936 C 181.782 148.322,181.888 148.265,183.178 148.191 C 184.357 148.123,184.574 148.030,184.574 147.592 C 184.574 146.791,181.536 146.823,181.105 147.629 M215.194 147.431 C 215.032 147.628,214.987 147.886,215.095 148.006 C 215.204 148.126,215.157 148.146,214.990 148.051 C 213.963 147.464,213.500 152.624,214.482 153.710 C 215.853 155.224,218.622 154.006,218.613 151.892 C 218.608 150.724,218.113 149.748,218.058 150.798 C 218.034 151.252,217.985 151.315,217.902 150.997 C 217.835 150.741,217.545 150.532,217.257 150.532 C 216.744 150.532,216.744 150.542,217.277 151.114 C 218.427 152.349,216.936 154.156,215.513 153.251 C 214.876 152.846,214.816 151.673,215.402 151.087 C 215.868 150.621,215.888 150.532,215.521 150.532 C 215.281 150.532,214.926 150.741,214.732 150.997 C 214.405 151.428,214.378 151.418,214.370 150.864 C 214.362 150.302,214.470 150.266,216.150 150.266 C 217.852 150.266,217.909 150.246,217.340 149.847 C 216.941 149.568,216.479 149.486,215.951 149.603 C 215.292 149.747,215.160 149.693,215.160 149.276 C 215.160 148.167,216.281 147.815,217.427 148.566 C 218.028 148.960,218.093 148.959,218.248 148.556 C 218.673 147.447,215.999 146.462,215.194 147.431 M150.266 148.138 C 150.266 148.492,150.089 148.670,149.737 148.670 C 149.233 148.670,149.229 148.645,149.663 148.138 C 149.913 147.846,150.151 147.606,150.192 147.606 C 150.233 147.606,150.266 147.846,150.266 148.138 M249.418 150.050 C 249.346 151.048,249.249 151.207,248.670 151.276 C 247.478 151.419,247.165 151.589,247.601 151.858 C 247.809 151.987,248.073 152.035,248.187 151.965 C 248.717 151.637,249.468 152.440,249.468 153.334 C 249.468 153.976,249.589 154.255,249.867 154.255 C 250.118 154.255,250.266 154.002,250.266 153.573 C 250.266 152.625,250.760 151.790,251.217 151.966 C 251.674 152.141,252.394 151.897,252.394 151.567 C 252.394 151.437,252.042 151.330,251.611 151.330 C 250.746 151.330,250.525 151.094,250.283 149.910 C 250.026 148.652,249.512 148.734,249.418 150.050 M149.784 150.408 C 149.682 151.369,149.124 151.991,148.558 151.773 C 148.121 151.606,147.962 150.532,148.373 150.532 C 148.502 150.532,148.673 150.282,148.753 149.977 C 148.992 149.063,149.886 149.438,149.784 150.408 M148.953 178.161 C 148.805 178.437,148.373 178.740,147.993 178.836 C 147.166 179.043,147.259 179.580,148.158 179.791 C 148.769 179.934,148.810 180.070,148.936 182.325 C 149.041 184.206,149.153 184.707,149.468 184.707 C 149.799 184.707,149.880 184.106,149.941 181.184 C 150.017 177.580,149.731 176.706,148.953 178.161 M181.184 178.105 C 180.798 178.374,180.585 178.795,180.585 179.288 C 180.585 180.263,180.824 180.252,181.716 179.235 C 182.715 178.098,184.703 178.819,184.031 180.075 C 183.767 180.569,182.067 181.915,181.708 181.915 C 181.217 181.915,180.600 182.895,180.527 183.788 L 180.452 184.707 182.713 184.707 C 185.557 184.707,186.076 184.003,183.398 183.777 C 181.394 183.607,181.308 183.288,183.001 182.305 C 185.047 181.116,185.606 179.697,184.555 178.360 C 183.906 177.535,182.187 177.405,181.184 178.105 M214.536 178.146 C 214.063 178.669,213.934 179.787,214.347 179.787 C 214.485 179.787,214.754 179.565,214.945 179.293 C 215.790 178.093,217.527 178.531,217.193 179.860 C 217.090 180.271,216.802 180.582,216.478 180.633 C 215.699 180.755,215.770 181.177,216.654 181.665 C 217.703 182.243,217.823 183.302,216.889 183.728 C 215.899 184.179,215.726 184.136,214.875 183.224 C 213.973 182.259,213.437 182.384,213.890 183.454 C 214.948 185.951,218.957 185.077,218.497 182.450 C 218.406 181.936,218.305 180.832,218.272 179.995 C 218.184 177.819,215.869 176.673,214.536 178.146 M149.686 179.568 C 149.609 180.100,149.564 180.115,149.183 179.733 C 148.954 179.502,148.535 179.254,148.252 179.182 C 147.785 179.063,147.790 179.048,148.305 179.020 C 148.616 179.003,149.035 178.791,149.236 178.549 C 149.660 178.038,149.848 178.464,149.686 179.568 M217.838 181.383 C 217.974 181.383,218.085 181.562,218.085 181.780 C 218.085 182.087,217.939 182.050,217.439 181.616 C 216.935 181.177,216.862 180.979,217.107 180.713 C 217.358 180.440,217.437 180.473,217.505 180.878 C 217.552 181.156,217.702 181.383,217.838 181.383 M181.516 184.043 C 181.983 184.559,181.980 184.574,181.424 184.574 C 181.028 184.574,180.851 184.410,180.851 184.043 C 180.851 183.750,180.892 183.511,180.943 183.511 C 180.993 183.511,181.251 183.750,181.516 184.043 M184.113 184.496 C 183.786 184.559,183.187 184.560,182.783 184.499 C 182.379 184.438,182.646 184.387,183.378 184.385 C 184.109 184.383,184.440 184.433,184.113 184.496 M249.516 195.688 C 247.720 195.744,247.066 195.854,247.144 196.087 C 247.281 196.503,251.828 196.682,252.223 196.288 C 252.740 195.770,252.020 195.611,249.516 195.688 M250.997 196.206 C 250.303 196.261,249.166 196.261,248.471 196.206 C 247.776 196.151,248.344 196.107,249.734 196.107 C 251.124 196.107,251.692 196.151,250.997 196.206 M247.074 198.205 C 247.073 198.450,247.755 198.530,249.667 198.511 L 252.261 198.485 249.867 198.666 L 247.473 198.847 249.864 198.825 C 251.919 198.806,252.267 198.738,252.344 198.338 C 252.424 197.919,252.162 197.872,249.754 197.872 C 247.788 197.872,247.074 197.961,247.074 198.205 M147.688 208.089 C 146.711 208.929,146.545 213.070,147.448 214.068 C 149.425 216.252,152.206 213.356,151.432 209.920 C 151.227 209.009,151.190 209.133,151.051 211.170 L 150.897 213.431 150.847 211.237 C 150.820 210.030,150.704 209.043,150.590 209.043 C 150.475 209.043,150.429 209.874,150.486 210.890 C 150.647 213.736,148.899 215.046,147.891 212.834 C 146.953 210.776,148.768 206.998,149.852 208.752 C 149.996 208.985,151.064 208.842,151.064 208.589 C 151.064 207.548,148.720 207.200,147.688 208.089 M218.102 208.045 C 217.677 209.117,216.162 214.070,216.193 214.285 C 216.360 215.433,218.830 209.555,218.871 207.912 C 218.888 207.249,218.384 207.336,218.102 208.045 M213.028 209.874 C 213.020 211.309,212.752 211.702,211.782 211.702 C 210.656 211.702,210.701 212.330,211.832 212.417 C 212.712 212.484,213.022 212.874,213.028 213.918 C 213.033 214.918,213.666 214.716,213.787 213.676 C 213.888 212.804,214.284 212.209,214.730 212.262 C 215.328 212.333,215.691 212.228,215.691 211.985 C 215.691 211.848,215.303 211.698,214.827 211.652 C 214.072 211.580,213.952 211.463,213.881 210.725 C 213.777 209.656,213.034 208.915,213.028 209.874 M219.326 211.348 C 218.808 211.866,219.213 212.234,220.301 212.234 C 221.609 212.234,221.936 212.043,221.508 211.527 C 221.203 211.160,219.642 211.031,219.326 211.348 M213.538 211.804 C 213.773 212.088,213.751 212.208,213.438 212.328 C 213.159 212.435,213.032 212.320,213.032 211.960 C 213.032 211.340,213.128 211.310,213.538 211.804 M182.231 214.029 C 182.281 214.285,182.497 214.495,182.713 214.495 C 182.928 214.495,183.145 214.285,183.194 214.029 C 183.257 213.703,183.113 213.564,182.713 213.564 C 182.312 213.564,182.169 213.703,182.231 214.029 M351.717 234.163 L 351.064 234.816 351.064 244.947 L 351.064 255.077 351.717 255.730 L 352.369 256.383 370.420 256.383 L 388.471 256.383 389.116 255.697 L 389.761 255.010 389.761 244.947 L 389.761 234.883 389.116 234.197 L 388.471 233.511 370.420 233.511 L 352.369 233.511 351.717 234.163 M388.746 234.355 L 389.362 234.933 389.362 244.910 C 389.362 254.786,389.356 254.892,388.783 255.501 L 388.205 256.117 370.482 256.117 L 352.759 256.117 352.044 255.371 L 351.330 254.625 351.330 244.902 L 351.330 235.179 352.031 234.478 L 352.732 233.777 370.431 233.777 L 388.131 233.777 388.746 234.355 M358.422 242.730 C 358.177 242.975,358.198 247.546,358.444 247.699 C 358.554 247.767,358.605 246.697,358.559 245.321 L 358.474 242.819 359.961 242.819 C 361.796 242.819,362.420 243.609,361.649 244.954 C 361.412 245.367,361.285 245.771,361.368 245.853 C 361.953 246.439,362.423 243.755,361.864 243.019 C 361.507 242.549,358.828 242.324,358.422 242.730 M364.844 242.751 C 366.257 242.830,366.508 242.917,366.429 243.298 C 366.365 243.606,366.106 243.734,365.615 243.700 C 365.218 243.672,364.894 243.762,364.894 243.899 C 364.894 244.037,364.888 244.239,364.880 244.348 C 364.873 244.458,365.232 244.623,365.678 244.714 C 366.124 244.805,366.489 244.783,366.489 244.664 C 366.489 244.546,366.100 244.400,365.625 244.341 L 364.761 244.234 365.607 244.191 C 366.196 244.162,366.505 243.988,366.622 243.619 C 366.898 242.749,366.543 242.551,364.811 242.604 L 363.165 242.656 364.844 242.751 M367.727 242.753 C 367.659 242.862,368.254 242.911,369.050 242.861 C 371.094 242.731,371.894 243.699,370.968 245.182 C 370.716 245.585,370.772 245.835,371.272 246.536 C 371.774 247.241,371.817 247.438,371.514 247.630 C 371.273 247.782,371.254 247.866,371.460 247.868 C 372.064 247.876,372.105 247.333,371.559 246.566 C 370.964 245.730,370.856 245.213,371.277 245.213 C 371.745 245.213,371.571 243.459,371.056 242.993 C 370.556 242.541,367.974 242.354,367.727 242.753 M372.518 242.730 C 372.011 243.238,372.342 246.994,372.939 247.499 C 373.537 248.005,373.537 248.005,373.072 247.452 C 372.236 246.459,372.399 242.718,373.271 242.884 C 373.637 242.954,373.936 242.908,373.936 242.782 C 373.936 242.514,372.777 242.471,372.518 242.730 M376.064 242.790 C 376.794 242.992,377.224 246.021,376.609 246.635 C 376.456 246.789,376.334 247.041,376.338 247.194 C 376.373 248.327,377.128 246.149,377.128 244.918 C 377.128 242.927,376.961 242.547,376.102 242.580 L 375.399 242.606 376.064 242.790 M378.457 242.747 C 378.823 242.813,379.362 243.066,379.654 243.309 C 380.182 243.746,380.182 243.745,379.680 243.152 C 379.370 242.786,378.904 242.567,378.483 242.589 L 377.793 242.626 378.457 242.747 M380.999 242.886 C 380.704 243.851,380.629 244.947,380.858 244.947 C 381.000 244.947,381.117 244.454,381.117 243.852 C 381.117 242.831,381.161 242.766,381.774 242.883 C 382.135 242.952,382.367 242.906,382.290 242.781 C 382.075 242.432,381.113 242.510,380.999 242.886 M375.316 244.327 C 375.289 245.083,375.189 245.920,375.094 246.188 C 374.963 246.558,374.999 246.605,375.241 246.382 C 375.444 246.195,375.525 245.517,375.464 244.520 L 375.367 242.952 375.316 244.327 M366.223 245.417 C 366.223 245.578,365.894 245.747,365.492 245.794 C 364.478 245.910,364.529 246.650,365.559 246.762 C 366.581 246.874,367.020 247.276,366.487 247.613 C 366.249 247.764,366.217 247.866,366.407 247.868 C 366.985 247.876,367.080 247.315,366.594 246.777 C 366.268 246.417,365.917 246.296,365.504 246.400 C 365.167 246.484,364.894 246.431,364.894 246.282 C 364.894 246.133,365.186 246.011,365.543 246.011 C 366.192 246.011,366.684 245.585,366.383 245.284 C 366.295 245.196,366.223 245.256,366.223 245.417 M379.255 246.658 C 379.255 247.425,379.148 247.590,378.587 247.688 C 377.971 247.795,377.976 247.802,378.650 247.772 C 379.353 247.741,380.169 245.745,379.479 245.745 C 379.356 245.745,379.255 246.156,379.255 246.658 M369.149 246.625 C 369.149 247.018,369.262 247.340,369.399 247.340 C 369.852 247.340,369.906 246.944,369.524 246.422 C 369.167 245.934,369.149 245.943,369.149 246.625 M359.844 246.875 C 359.848 247.359,359.898 247.397,360.106 247.074 C 360.440 246.559,360.440 246.277,360.106 246.277 C 359.960 246.277,359.842 246.546,359.844 246.875 M362.247 246.776 C 362.490 247.275,362.479 247.461,362.195 247.660 C 361.900 247.868,361.904 247.894,362.217 247.809 C 362.779 247.658,362.828 247.254,362.356 246.665 C 361.957 246.167,361.953 246.172,362.247 246.776 M380.319 247.347 C 380.319 247.499,380.504 247.694,380.730 247.781 C 381.353 248.020,381.427 247.762,380.839 247.395 C 380.510 247.189,380.319 247.171,380.319 247.347 M367.553 247.652 C 367.553 247.773,367.912 247.872,368.351 247.872 C 368.790 247.872,369.149 247.826,369.149 247.770 C 369.149 247.713,368.790 247.614,368.351 247.550 C 367.912 247.485,367.553 247.532,367.553 247.652 M373.836 248.191 C 373.908 248.309,374.253 248.404,374.601 248.404 C 374.949 248.404,375.294 248.309,375.366 248.191 C 375.438 248.074,375.094 247.979,374.601 247.979 C 374.108 247.979,373.764 248.074,373.836 248.191 " stroke="none" fill="#6b927f" fill-rule="evenodd"></path><path id="path2" d="M399.069 0.266 C 398.960 0.443,332.134 0.532,199.452 0.532 L 0.000 0.532 0.000 133.245 L 0.000 265.957 200.000 265.957 L 400.000 265.957 400.000 132.979 C 400.000 -5.141,400.027 -1.284,399.069 0.266 M266.489 126.330 L 266.489 226.331 199.402 226.264 L 132.314 226.197 132.231 175.000 C 132.185 146.842,132.229 101.872,132.330 75.066 L 132.512 26.330 199.501 26.330 L 266.489 26.330 266.489 126.330 M147.701 86.434 C 145.376 87.372,144.986 92.582,147.161 93.633 C 147.736 93.911,147.736 93.910,147.207 93.433 C 145.331 91.738,145.708 87.483,147.806 86.672 C 149.535 86.005,152.128 87.069,152.128 88.446 C 152.128 89.031,151.738 88.910,150.798 88.032 C 149.110 86.455,146.736 87.840,146.839 90.342 C 146.861 90.865,146.904 90.930,146.983 90.559 C 147.045 90.266,147.155 89.747,147.229 89.406 C 147.606 87.650,149.468 87.049,150.665 88.298 C 151.878 89.564,152.895 89.066,152.106 87.592 C 151.444 86.356,149.295 85.791,147.701 86.434 M183.298 86.755 C 183.122 86.931,182.987 87.260,182.997 87.487 C 183.009 87.759,183.113 87.695,183.303 87.301 C 183.462 86.971,183.693 86.702,183.817 86.702 C 184.113 86.702,184.107 87.911,183.809 88.501 C 183.409 89.294,182.924 90.991,183.059 91.126 C 183.248 91.315,184.309 87.906,184.309 87.112 C 184.309 86.393,183.829 86.224,183.298 86.755 M215.574 86.844 C 215.290 87.058,215.193 87.234,215.359 87.234 C 215.525 87.234,215.738 87.109,215.832 86.955 C 215.950 86.765,216.126 86.777,216.386 86.993 C 216.696 87.250,216.736 87.227,216.600 86.873 C 216.397 86.343,216.242 86.339,215.574 86.844 M214.574 87.377 C 214.412 87.538,214.953 89.244,215.265 89.556 C 215.533 89.824,215.153 88.251,214.859 87.874 C 214.734 87.715,214.711 87.505,214.807 87.409 C 214.904 87.313,214.922 87.234,214.849 87.234 C 214.776 87.234,214.652 87.298,214.574 87.377 M217.353 87.760 C 217.170 88.052,217.021 88.534,217.021 88.831 C 217.021 89.275,216.902 89.342,216.356 89.205 C 215.991 89.113,215.692 89.141,215.692 89.266 C 215.692 89.392,216.051 89.520,216.490 89.550 C 217.157 89.597,217.287 89.508,217.287 89.005 C 217.287 88.675,217.420 88.271,217.583 88.108 C 217.746 87.946,217.835 87.681,217.782 87.521 C 217.728 87.360,217.535 87.468,217.353 87.760 M182.744 88.210 C 182.727 88.381,182.635 88.740,182.541 89.008 C 182.407 89.386,182.442 89.427,182.699 89.190 C 182.880 89.023,182.971 88.664,182.902 88.393 C 182.832 88.121,182.761 88.039,182.744 88.210 M251.582 88.716 C 251.106 88.980,251.052 89.079,251.381 89.086 C 251.628 89.092,251.905 88.974,251.997 88.825 C 252.201 88.496,252.660 88.741,252.660 89.179 C 252.660 89.482,252.342 89.652,250.324 90.428 C 249.844 90.612,249.515 90.827,249.593 90.905 C 249.671 90.983,250.004 90.924,250.333 90.773 C 250.662 90.622,251.380 90.305,251.928 90.068 C 252.582 89.785,252.926 89.461,252.926 89.129 C 252.926 88.446,252.375 88.277,251.582 88.716 M181.980 90.685 C 181.513 92.182,181.591 92.658,182.077 91.272 C 182.298 90.640,182.441 90.011,182.396 89.873 C 182.350 89.735,182.163 90.100,181.980 90.685 M248.271 89.951 C 247.979 90.112,247.560 90.327,247.340 90.429 C 246.237 90.944,246.815 92.036,248.467 92.557 C 249.091 92.754,249.747 93.024,249.925 93.158 C 250.102 93.292,250.392 93.353,250.569 93.294 C 250.745 93.236,250.480 93.033,249.979 92.844 C 249.479 92.654,248.830 92.403,248.537 92.285 C 248.245 92.166,247.796 92.003,247.540 91.921 C 247.284 91.839,247.074 91.525,247.074 91.223 C 247.074 90.922,247.284 90.610,247.540 90.530 C 248.492 90.235,249.587 89.662,249.202 89.660 C 248.983 89.660,248.564 89.790,248.271 89.951 M151.055 91.290 C 151.018 92.754,148.994 93.222,147.876 92.026 C 147.001 91.089,146.834 91.142,147.493 92.147 C 147.983 92.894,149.107 93.211,150.020 92.858 C 150.692 92.599,151.836 90.957,151.345 90.957 C 151.190 90.957,151.060 91.107,151.055 91.290 M152.159 91.541 C 152.102 92.850,151.051 93.718,149.296 93.905 L 147.739 94.071 149.028 94.110 C 151.077 94.172,152.698 92.792,152.315 91.311 C 152.229 90.980,152.180 91.053,152.159 91.541 M248.936 91.216 C 248.936 91.333,249.744 91.765,250.731 92.175 C 252.942 93.094,252.837 93.006,252.454 93.619 C 252.190 94.043,252.203 94.103,252.530 93.978 C 253.284 93.688,252.965 92.861,251.928 92.419 C 251.380 92.184,250.482 91.770,249.934 91.497 C 249.385 91.225,248.936 91.098,248.936 91.216 M182.744 91.667 C 182.727 91.838,182.635 92.197,182.541 92.465 C 182.407 92.843,182.442 92.884,182.699 92.648 C 182.880 92.481,182.971 92.122,182.902 91.850 C 182.832 91.579,182.761 91.496,182.744 91.667 M181.294 92.730 C 181.197 92.828,181.125 93.157,181.134 93.462 C 181.149 93.971,181.171 93.965,181.406 93.379 C 181.666 92.728,181.612 92.413,181.294 92.730 M146.875 117.192 C 145.581 117.734,146.811 118.636,148.758 118.572 L 150.133 118.528 148.537 118.373 C 145.871 118.114,146.350 117.440,149.269 117.343 C 151.942 117.255,152.158 117.494,150.912 119.164 C 149.995 120.393,148.456 124.077,148.741 124.362 C 148.801 124.422,149.011 123.961,149.207 123.339 C 149.679 121.842,150.460 120.276,151.256 119.230 C 152.478 117.624,152.090 117.162,149.468 117.104 C 148.225 117.076,147.058 117.116,146.875 117.192 M180.882 117.653 C 180.419 118.146,180.297 118.571,180.327 119.581 C 180.349 120.294,180.281 121.384,180.176 122.002 C 179.982 123.141,180.497 124.468,181.131 124.468 C 181.278 124.468,181.139 124.117,180.821 123.687 C 180.352 123.052,180.281 122.717,180.444 121.892 C 180.553 121.334,180.623 120.295,180.599 119.582 C 180.526 117.447,182.720 116.396,184.258 117.830 C 184.578 118.128,184.840 118.266,184.840 118.137 C 184.840 116.959,181.875 116.596,180.882 117.653 M214.377 117.670 C 213.089 119.041,213.653 122.097,215.190 122.067 C 215.393 122.063,215.233 121.859,214.836 121.612 C 212.838 120.373,213.888 117.165,216.236 117.337 C 217.912 117.460,218.463 118.323,218.458 120.816 C 218.454 122.684,218.461 122.705,218.714 121.573 C 219.460 118.227,216.422 115.493,214.377 117.670 M181.698 119.056 C 181.806 119.963,182.537 120.454,183.178 120.050 C 183.740 119.696,183.930 118.930,183.550 118.550 C 183.360 118.360,183.317 118.436,183.411 118.797 C 183.577 119.431,182.888 120.071,182.287 119.840 C 181.993 119.728,181.895 119.462,181.981 119.013 C 182.050 118.649,181.996 118.351,181.860 118.351 C 181.725 118.351,181.651 118.668,181.698 119.056 M214.884 119.033 C 214.299 120.128,215.280 121.238,216.552 120.919 C 217.651 120.643,217.766 118.341,216.679 118.355 C 216.448 118.358,216.457 118.423,216.709 118.582 C 217.389 119.014,216.988 120.600,216.175 120.694 C 215.167 120.811,214.687 119.902,215.280 118.998 C 215.513 118.642,215.602 118.351,215.477 118.351 C 215.352 118.351,215.085 118.658,214.884 119.033 M149.529 119.215 C 148.954 119.923,148.139 121.580,148.152 122.016 C 148.160 122.268,148.361 121.995,148.599 121.410 C 148.837 120.824,149.112 120.286,149.210 120.213 C 149.444 120.038,150.051 118.883,149.909 118.883 C 149.849 118.883,149.678 119.033,149.529 119.215 M184.713 120.612 C 184.801 121.051,184.940 121.749,185.023 122.163 C 185.128 122.690,184.997 123.171,184.589 123.759 L 184.004 124.601 184.688 123.855 C 185.473 122.999,185.530 122.375,184.959 120.878 C 184.657 120.088,184.594 120.019,184.713 120.612 M248.316 120.922 C 247.946 121.292,248.145 122.074,248.604 122.053 C 248.882 122.041,248.935 121.978,248.737 121.898 C 247.909 121.564,248.430 121.011,249.573 121.011 C 250.771 121.011,251.505 121.651,250.584 121.894 C 250.161 122.005,250.161 122.015,250.583 122.044 C 251.142 122.082,251.382 121.723,251.169 121.168 C 251.003 120.736,248.700 120.537,248.316 120.922 M182.018 121.271 C 180.287 121.971,181.625 124.071,183.378 123.404 C 184.235 123.078,184.275 122.001,183.451 121.425 C 182.787 120.959,182.790 120.959,182.018 121.271 M183.262 121.552 C 183.931 121.910,183.922 122.776,183.245 123.138 C 182.106 123.748,181.002 122.211,182.114 121.564 C 182.698 121.224,182.650 121.224,183.262 121.552 M216.556 121.992 C 217.095 122.133,217.161 122.626,216.702 123.085 C 216.226 123.561,215.602 123.472,215.073 122.854 C 214.506 122.192,213.994 122.300,213.876 123.107 C 213.785 123.728,214.233 124.468,214.701 124.468 C 214.852 124.468,214.778 124.249,214.536 123.982 C 214.073 123.470,213.938 122.606,214.320 122.606 C 214.444 122.606,214.762 122.846,215.027 123.138 C 215.636 123.812,216.276 123.815,216.879 123.148 C 217.429 122.541,217.250 121.795,216.564 121.839 C 216.120 121.868,216.120 121.878,216.556 121.992 M147.768 123.027 C 147.543 123.612,147.566 124.468,147.806 124.467 C 147.916 124.466,148.027 124.047,148.053 123.536 C 148.105 122.525,148.019 122.372,147.768 123.027 M218.085 123.044 C 218.085 123.187,217.841 123.566,217.543 123.886 C 217.245 124.206,217.122 124.468,217.271 124.468 C 217.628 124.468,218.471 123.169,218.254 122.953 C 218.161 122.860,218.085 122.901,218.085 123.044 M182.114 124.656 C 182.443 124.719,182.982 124.719,183.311 124.656 C 183.640 124.592,183.371 124.541,182.713 124.541 C 182.055 124.541,181.785 124.592,182.114 124.656 M215.492 124.651 C 215.748 124.718,216.167 124.718,216.423 124.651 C 216.679 124.585,216.469 124.530,215.957 124.530 C 215.445 124.530,215.236 124.585,215.492 124.651 M149.235 147.526 C 148.928 147.936,148.583 148.391,148.470 148.537 C 145.820 151.953,145.746 152.466,147.875 152.660 C 149.219 152.782,149.342 152.849,149.417 153.501 C 149.571 154.831,150.798 154.778,150.798 153.442 C 150.798 152.837,150.918 152.660,151.330 152.660 C 152.047 152.660,152.056 151.597,151.340 151.410 C 150.884 151.290,150.809 151.000,150.742 149.110 C 150.654 146.655,150.227 146.205,149.235 147.526 M181.022 147.207 C 180.591 147.638,180.161 150.268,180.414 150.927 C 180.587 151.379,181.529 151.473,181.782 151.064 C 182.058 150.617,183.135 150.767,183.637 151.323 C 184.747 152.549,182.720 153.790,181.492 152.637 C 180.999 152.174,180.806 152.133,180.325 152.390 L 179.749 152.699 180.399 153.543 C 181.282 154.692,183.623 154.918,184.456 153.935 L 184.973 153.324 184.421 153.790 C 183.505 154.561,181.245 154.432,180.685 153.577 C 180.019 152.561,180.557 152.253,181.624 153.040 C 182.650 153.797,183.510 153.590,184.025 152.460 C 184.542 151.325,182.425 149.757,181.782 150.798 C 181.692 150.944,181.385 151.064,181.101 151.064 C 180.196 151.064,180.617 147.659,181.593 147.090 C 181.843 146.944,181.907 146.821,181.734 146.817 C 181.562 146.812,181.242 146.988,181.022 147.207 M214.633 147.601 C 211.653 150.791,215.034 156.779,218.137 153.807 C 218.869 153.105,219.232 151.045,218.684 150.706 C 218.574 150.638,218.524 151.081,218.572 151.691 C 218.706 153.374,217.907 154.255,216.245 154.255 C 214.335 154.255,213.985 153.732,214.003 150.906 C 214.024 147.608,216.000 145.914,217.931 147.540 C 218.483 148.005,218.484 148.005,217.977 147.407 C 217.197 146.485,215.588 146.578,214.633 147.601 M150.532 149.200 C 150.532 151.037,150.604 151.370,151.064 151.657 C 151.356 151.840,151.596 152.067,151.596 152.161 C 151.596 152.255,151.356 152.394,151.064 152.471 C 150.673 152.573,150.532 152.833,150.532 153.455 C 150.532 154.454,149.919 154.439,149.774 153.437 C 149.650 152.581,149.311 152.403,147.806 152.398 C 146.195 152.392,146.207 152.302,148.183 149.446 C 150.257 146.448,150.532 146.419,150.532 149.200 M184.595 147.526 C 184.577 148.040,184.407 148.120,183.181 148.191 C 181.768 148.272,181.191 148.850,181.857 149.517 C 182.023 149.683,182.068 149.532,181.984 149.089 C 181.857 148.425,181.894 148.404,183.222 148.404 C 184.604 148.404,185.068 148.065,184.754 147.283 C 184.678 147.095,184.607 147.205,184.595 147.526 M215.479 148.457 C 214.997 148.939,215.088 149.735,215.625 149.730 C 215.998 149.727,216.016 149.679,215.719 149.491 C 215.174 149.145,215.574 148.404,216.307 148.404 C 216.654 148.404,217.155 148.643,217.419 148.935 C 217.952 149.523,218.624 149.243,218.609 148.438 C 218.602 148.068,218.561 148.075,218.321 148.487 C 218.063 148.930,217.991 148.935,217.407 148.553 C 216.650 148.057,215.915 148.021,215.479 148.457 M249.379 148.848 C 249.282 148.945,249.202 149.484,249.202 150.044 C 249.202 151.034,249.175 151.064,248.263 151.064 C 247.647 151.064,247.267 151.210,247.160 151.490 C 246.960 152.010,247.498 152.384,248.455 152.390 C 249.085 152.393,249.180 152.509,249.253 153.370 C 249.298 153.908,249.488 154.377,249.674 154.414 C 249.861 154.451,249.891 154.421,249.741 154.346 C 249.591 154.272,249.468 153.806,249.468 153.312 C 249.468 152.439,248.710 151.642,248.187 151.965 C 248.073 152.035,247.809 151.987,247.601 151.858 C 247.165 151.589,247.478 151.419,248.670 151.276 C 249.249 151.207,249.346 151.048,249.418 150.050 C 249.512 148.734,250.026 148.652,250.283 149.910 C 250.525 151.094,250.746 151.330,251.611 151.330 C 252.042 151.330,252.394 151.437,252.394 151.567 C 252.394 151.897,251.674 152.141,251.217 151.966 C 250.736 151.781,250.255 152.659,250.301 153.639 C 250.332 154.313,250.353 154.294,250.500 153.457 C 250.635 152.697,250.795 152.512,251.377 152.444 C 252.826 152.277,253.029 151.064,251.609 151.064 C 250.819 151.064,250.532 150.675,250.532 149.608 C 250.532 149.270,250.343 148.920,250.111 148.832 C 249.590 148.632,249.595 148.632,249.379 148.848 M148.753 149.977 C 148.673 150.282,148.502 150.532,148.373 150.532 C 147.962 150.532,148.121 151.606,148.558 151.773 C 149.124 151.991,149.682 151.369,149.784 150.408 C 149.886 149.438,148.992 149.063,148.753 149.977 M184.315 150.272 C 185.077 150.984,185.159 151.195,185.033 152.133 C 184.952 152.734,184.995 153.127,185.132 153.043 C 185.989 152.513,184.779 149.468,183.712 149.468 C 183.570 149.468,183.841 149.830,184.315 150.272 M217.405 149.875 C 217.688 150.090,218.040 150.266,218.187 150.266 C 218.333 150.266,218.220 150.090,217.936 149.875 C 217.653 149.661,217.301 149.485,217.154 149.485 C 217.008 149.485,217.121 149.661,217.405 149.875 M149.468 150.556 C 149.468 150.844,149.283 151.151,149.058 151.238 C 148.460 151.468,148.367 151.248,148.735 150.469 C 149.096 149.704,149.468 149.748,149.468 150.556 M215.154 151.340 C 214.294 152.946,216.456 154.301,217.453 152.780 C 217.871 152.142,217.518 150.479,217.061 150.936 C 216.985 151.011,217.065 151.214,217.238 151.387 C 217.668 151.817,217.633 152.275,217.135 152.774 C 216.138 153.771,214.733 152.624,215.408 151.363 C 215.574 151.052,215.650 150.798,215.577 150.798 C 215.504 150.798,215.314 151.042,215.154 151.340 M148.757 177.889 C 148.672 178.215,148.305 178.495,147.830 178.600 C 146.766 178.834,146.847 179.879,147.939 180.004 L 148.670 180.089 148.670 182.436 C 148.670 184.870,148.884 185.314,149.874 184.934 C 150.652 184.636,150.312 177.552,149.515 177.439 C 149.076 177.377,148.857 177.507,148.757 177.889 M181.006 177.956 C 180.429 178.410,180.306 178.701,180.371 179.465 C 180.476 180.689,180.994 180.842,181.580 179.821 C 181.835 179.377,182.284 178.896,182.578 178.753 C 182.871 178.610,182.951 178.485,182.755 178.475 C 182.559 178.466,182.084 178.816,181.699 179.255 C 180.824 180.252,180.585 180.259,180.585 179.286 C 180.585 177.668,183.480 176.993,184.555 178.360 C 185.484 179.541,185.118 180.946,183.626 181.929 C 183.197 182.212,182.987 182.444,183.159 182.445 C 183.920 182.449,185.372 180.665,185.372 179.726 C 185.372 177.683,182.719 176.608,181.006 177.956 M214.408 178.009 C 213.692 178.772,213.620 180.057,214.295 180.045 C 214.742 180.037,215.941 178.723,215.502 178.723 C 215.384 178.723,215.138 178.963,214.955 179.255 C 214.508 179.971,214.096 179.927,214.096 179.164 C 214.096 177.415,217.502 177.046,218.154 178.723 C 218.281 179.050,218.313 179.040,218.330 178.672 C 218.389 177.406,215.443 176.908,214.408 178.009 M149.941 181.184 C 149.880 184.106,149.799 184.707,149.468 184.707 C 149.153 184.707,149.041 184.206,148.936 182.325 C 148.810 180.070,148.769 179.934,148.158 179.791 C 147.259 179.580,147.166 179.043,147.993 178.836 C 148.373 178.740,148.805 178.437,148.953 178.161 C 149.731 176.706,150.017 177.580,149.941 181.184 M183.606 179.214 C 184.023 179.675,184.016 179.753,183.489 180.478 L 182.927 181.250 183.614 180.509 C 184.289 179.779,184.166 178.723,183.405 178.723 C 183.272 178.723,183.362 178.944,183.606 179.214 M216.945 179.257 C 217.054 179.676,216.950 179.979,216.613 180.226 C 216.179 180.543,216.174 180.585,216.566 180.585 C 217.100 180.585,217.479 179.341,217.070 178.932 C 216.867 178.729,216.831 178.823,216.945 179.257 M218.244 180.984 C 218.321 181.423,218.451 182.121,218.534 182.536 C 218.639 183.062,218.508 183.543,218.099 184.131 L 217.514 184.973 218.199 184.227 C 218.894 183.469,219.131 182.016,218.643 181.503 C 218.511 181.364,218.336 181.011,218.253 180.718 C 218.171 180.426,218.167 180.545,218.244 180.984 M215.473 181.022 C 215.559 181.460,215.953 181.752,216.822 182.020 C 217.458 182.217,217.409 183.161,216.745 183.516 C 216.059 183.884,215.233 183.630,215.030 182.990 C 214.944 182.718,214.698 182.429,214.484 182.346 C 213.906 182.125,214.814 183.450,215.487 183.810 C 217.134 184.691,218.248 182.557,216.622 181.634 C 216.184 181.385,215.854 181.047,215.891 180.883 C 215.928 180.719,215.829 180.585,215.672 180.585 C 215.515 180.585,215.425 180.782,215.473 181.022 M182.181 181.383 C 182.181 181.529,182.022 181.649,181.828 181.649 C 181.224 181.649,180.305 182.858,180.141 183.871 C 180.054 184.404,180.089 184.840,180.218 184.839 C 180.347 184.839,180.474 184.408,180.502 183.882 C 180.552 182.908,181.203 181.915,181.791 181.915 C 181.969 181.915,182.265 181.735,182.447 181.516 C 182.676 181.240,182.686 181.117,182.479 181.117 C 182.315 181.117,182.181 181.237,182.181 181.383 M182.062 182.855 C 181.321 183.415,181.793 183.732,183.511 183.828 C 184.713 183.895,184.967 183.993,184.936 184.375 C 184.916 184.631,185.006 184.840,185.136 184.840 C 185.548 184.840,185.391 183.841,184.952 183.672 C 184.720 183.583,183.924 183.511,183.182 183.511 C 181.849 183.511,181.838 183.504,182.314 182.979 C 182.879 182.354,182.786 182.308,182.062 182.855 M213.436 182.705 C 212.845 183.660,214.608 185.126,216.272 185.064 C 217.319 185.025,217.338 185.013,216.489 184.926 C 214.661 184.738,214.335 184.575,214.021 183.701 C 213.852 183.230,213.740 182.756,213.772 182.646 C 213.855 182.360,213.624 182.400,213.436 182.705 M246.942 195.742 C 246.650 196.664,247.027 196.809,249.721 196.809 C 252.432 196.809,252.876 196.617,252.490 195.612 C 252.225 194.921,247.165 195.040,246.942 195.742 M252.223 196.288 C 251.828 196.682,247.281 196.503,247.144 196.087 C 247.066 195.854,247.720 195.744,249.516 195.688 C 252.020 195.611,252.740 195.770,252.223 196.288 M246.910 197.993 C 246.728 198.465,246.994 198.944,247.423 198.915 C 247.651 198.900,247.647 198.857,247.407 198.760 C 246.169 198.261,247.201 197.872,249.765 197.872 C 252.385 197.872,252.452 197.887,252.307 198.443 C 252.200 198.850,252.239 198.931,252.444 198.726 C 252.601 198.569,252.658 198.252,252.570 198.023 C 252.344 197.433,247.135 197.405,246.910 197.993 M217.977 207.758 C 217.744 208.091,217.553 208.612,217.553 208.916 C 217.553 209.219,217.422 209.599,217.262 209.759 C 217.102 209.919,217.014 210.271,217.066 210.540 C 217.125 210.846,217.295 210.580,217.517 209.837 C 218.083 207.947,218.318 207.447,218.642 207.447 C 218.953 207.447,218.873 208.451,218.483 209.441 C 218.316 209.865,218.342 209.909,218.612 209.660 C 219.043 209.262,219.117 207.405,218.708 207.261 C 218.539 207.202,218.210 207.425,217.977 207.758 M147.320 208.133 C 145.421 210.154,146.731 214.894,149.189 214.894 C 150.419 214.894,151.340 214.290,151.323 213.494 C 151.319 213.313,151.112 213.494,150.862 213.896 C 150.265 214.860,148.256 214.961,147.448 214.068 C 146.545 213.070,146.711 208.929,147.688 208.089 C 148.098 207.736,148.328 207.447,148.199 207.447 C 148.071 207.447,147.675 207.756,147.320 208.133 M150.427 207.932 C 151.244 208.615,151.688 210.215,151.502 211.805 C 151.395 212.719,151.427 213.034,151.598 212.766 C 152.426 211.472,151.327 207.420,150.158 207.456 C 149.998 207.461,150.119 207.675,150.427 207.932 M148.260 208.794 C 148.164 208.950,148.157 209.150,148.245 209.238 C 148.332 209.325,148.404 209.258,148.404 209.087 C 148.404 208.568,149.693 208.734,149.991 209.291 C 150.342 209.947,150.346 211.976,149.998 212.948 C 149.749 213.646,149.758 213.662,150.131 213.181 C 150.672 212.483,150.664 209.881,150.118 209.102 C 149.686 208.485,148.566 208.300,148.260 208.794 M212.874 209.411 C 212.791 209.626,212.777 210.080,212.842 210.419 C 212.928 210.873,212.969 210.798,212.996 210.140 C 213.043 208.975,213.757 209.447,213.881 210.725 C 213.952 211.463,214.072 211.580,214.827 211.652 C 215.303 211.698,215.691 211.848,215.691 211.985 C 215.691 212.228,215.328 212.333,214.730 212.262 C 214.284 212.209,213.888 212.804,213.787 213.676 C 213.666 214.716,213.033 214.918,213.028 213.918 C 213.022 212.874,212.712 212.484,211.832 212.417 C 210.680 212.328,210.663 211.702,211.813 211.702 C 212.337 211.702,212.766 211.609,212.766 211.496 C 212.766 211.209,210.671 211.435,210.481 211.742 C 210.218 212.167,210.903 212.731,211.788 212.817 C 212.530 212.889,212.649 213.012,212.766 213.830 C 212.888 214.683,213.022 214.789,213.830 214.668 C 213.976 214.646,214.096 214.216,214.096 213.714 C 214.096 212.877,214.169 212.793,214.960 212.716 C 216.148 212.602,216.198 211.638,215.027 211.438 C 214.356 211.323,214.215 211.163,214.145 210.438 C 214.051 209.463,213.137 208.724,212.874 209.411 M147.784 209.752 C 146.905 210.630,148.332 214.501,149.311 213.895 C 149.447 213.811,149.297 213.645,148.978 213.527 C 148.212 213.244,147.797 212.104,147.949 210.705 C 148.079 209.519,148.070 209.466,147.784 209.752 M217.523 212.306 C 216.948 214.118,215.803 215.655,216.189 214.096 C 216.490 212.883,216.476 212.714,216.136 213.431 C 215.822 214.094,215.817 214.292,216.110 214.605 C 216.607 215.135,217.116 214.648,217.540 213.235 C 217.728 212.611,217.999 211.778,218.143 211.383 C 218.287 210.988,218.362 210.542,218.311 210.391 C 218.260 210.240,217.905 211.101,217.523 212.306 M219.189 211.140 C 218.992 211.265,218.873 211.592,218.925 211.867 C 219.088 212.726,222.074 212.700,222.074 211.839 C 222.074 211.069,220.068 210.583,219.189 211.140 M216.622 211.702 C 216.522 212.017,216.501 212.334,216.574 212.407 C 216.647 212.480,216.788 212.283,216.888 211.968 C 216.988 211.653,217.010 211.336,216.937 211.263 C 216.864 211.190,216.722 211.388,216.622 211.702 M221.508 211.527 C 221.936 212.043,221.609 212.234,220.301 212.234 C 219.213 212.234,218.808 211.866,219.326 211.348 C 219.642 211.031,221.203 211.160,221.508 211.527 M182.103 213.464 C 181.772 213.795,181.901 214.565,182.314 214.724 C 182.967 214.974,183.545 214.606,183.458 213.995 C 183.378 213.436,182.483 213.085,182.103 213.464 M183.194 214.029 C 183.145 214.285,182.928 214.495,182.713 214.495 C 182.497 214.495,182.281 214.285,182.231 214.029 C 182.169 213.703,182.312 213.564,182.713 213.564 C 183.113 213.564,183.257 213.703,183.194 214.029 M389.116 234.197 L 389.761 234.883 389.761 244.947 L 389.761 255.010 389.116 255.697 L 388.471 256.383 370.420 256.383 L 352.369 256.383 351.717 255.730 L 351.064 255.077 351.064 244.947 L 351.064 234.816 351.717 234.163 L 352.369 233.511 370.420 233.511 L 388.471 233.511 389.116 234.197 M358.553 245.131 C 358.530 246.475,358.600 247.631,358.710 247.699 C 358.820 247.767,358.877 247.026,358.836 246.053 C 358.708 242.968,358.597 242.605,358.553 245.131 M361.492 243.524 C 361.743 244.211,361.722 244.478,361.373 245.010 C 360.974 245.620,360.985 245.704,361.567 246.433 C 362.018 246.998,362.110 247.299,361.907 247.546 C 361.695 247.802,361.733 247.844,362.063 247.717 C 362.651 247.492,362.615 247.252,361.862 246.357 C 361.296 245.685,361.266 245.540,361.596 245.089 C 362.073 244.435,362.068 243.850,361.577 243.202 C 361.222 242.734,361.214 242.763,361.492 243.524 M363.340 245.279 C 363.384 247.780,363.489 247.483,363.623 244.481 C 363.663 243.566,363.607 242.818,363.497 242.819 C 363.388 242.819,363.317 243.926,363.340 245.279 M366.223 243.041 C 366.223 243.211,365.928 243.351,365.568 243.351 C 364.855 243.351,364.152 244.254,364.634 244.552 C 364.784 244.644,364.890 244.622,364.869 244.501 C 364.749 243.811,364.932 243.617,365.556 243.773 C 366.204 243.936,366.801 243.308,366.389 242.896 C 366.298 242.805,366.223 242.870,366.223 243.041 M367.730 242.996 C 367.486 243.241,367.506 247.280,367.753 247.433 C 367.862 247.502,367.913 246.594,367.864 245.417 C 367.800 243.847,367.871 243.216,368.130 243.052 C 368.325 242.928,368.354 242.825,368.196 242.823 C 368.037 242.821,367.828 242.899,367.730 242.996 M370.767 243.427 C 371.017 243.975,371.012 244.302,370.743 244.950 C 370.439 245.684,370.463 245.858,370.954 246.523 C 371.380 247.098,371.434 247.343,371.192 247.587 C 370.949 247.832,370.984 247.863,371.343 247.727 C 371.932 247.503,371.928 247.457,371.234 246.483 C 370.768 245.828,370.718 245.583,370.968 245.182 C 371.402 244.488,371.352 243.478,370.863 243.073 C 370.495 242.768,370.485 242.807,370.767 243.427 M372.606 244.887 C 372.606 247.570,373.474 248.508,375.374 247.881 C 376.706 247.441,377.583 243.164,376.390 242.927 C 376.203 242.889,376.173 242.920,376.323 242.994 C 376.742 243.202,376.646 245.939,376.190 246.822 C 375.678 247.813,373.631 247.994,373.148 247.092 C 372.694 246.244,372.791 243.085,373.271 243.085 C 373.584 243.085,373.670 243.451,373.670 244.781 C 373.670 246.843,374.971 248.104,375.487 246.543 C 375.599 246.202,375.555 246.196,375.180 246.506 C 374.342 247.197,373.966 246.691,373.882 244.760 C 373.810 243.116,373.749 242.944,373.205 242.867 C 372.627 242.785,372.606 242.856,372.606 244.887 M375.617 244.415 C 375.617 245.366,375.665 245.755,375.724 245.279 C 375.783 244.804,375.783 244.026,375.724 243.551 C 375.665 243.075,375.617 243.464,375.617 244.415 M378.021 245.213 C 378.021 246.602,378.066 247.171,378.121 246.476 C 378.176 245.781,378.176 244.644,378.121 243.949 C 378.066 243.255,378.021 243.823,378.021 245.213 M379.758 243.834 C 380.195 244.465,380.610 245.123,380.681 245.296 C 380.899 245.827,381.374 244.908,381.379 243.949 C 381.382 243.342,381.507 243.085,381.801 243.085 C 382.156 243.085,382.207 243.429,382.134 245.334 C 382.087 246.570,382.143 247.487,382.259 247.370 C 382.805 246.821,382.338 242.956,381.715 242.867 C 381.179 242.791,381.117 242.894,381.117 243.864 C 381.117 244.460,380.997 244.947,380.851 244.947 C 380.705 244.947,380.585 244.853,380.585 244.737 C 380.585 244.622,380.220 244.113,379.775 243.607 L 378.964 242.686 379.758 243.834 M369.061 243.528 C 368.781 243.808,368.853 244.631,369.174 244.830 C 369.783 245.206,370.279 244.292,369.734 243.798 C 369.462 243.552,369.159 243.430,369.061 243.528 M359.664 244.034 C 359.422 244.665,359.989 245.109,360.497 244.687 C 360.812 244.426,360.839 244.258,360.609 243.981 C 360.211 243.501,359.861 243.520,359.664 244.034 M365.825 244.947 C 365.915 245.094,365.695 245.326,365.334 245.463 C 364.974 245.600,364.590 245.869,364.481 246.061 C 364.322 246.341,364.354 246.344,364.642 246.077 C 364.839 245.894,365.262 245.745,365.583 245.745 C 366.152 245.745,366.612 245.158,366.294 244.840 C 366.029 244.575,365.648 244.662,365.825 244.947 M378.948 246.410 C 378.895 247.068,378.943 247.606,379.054 247.606 C 379.165 247.606,379.255 247.187,379.255 246.676 C 379.255 246.164,379.375 245.745,379.521 245.745 C 379.668 245.745,379.788 245.834,379.789 245.944 C 379.789 246.054,380.097 246.503,380.472 246.941 C 381.012 247.573,380.981 247.475,380.325 246.476 C 379.295 244.907,379.068 244.896,378.948 246.410 M369.014 246.058 C 368.919 246.303,368.894 246.782,368.959 247.122 C 369.043 247.562,369.088 247.472,369.117 246.809 L 369.158 245.878 369.711 246.742 C 370.016 247.217,370.372 247.606,370.502 247.606 C 370.633 247.606,370.563 247.397,370.348 247.141 C 370.133 246.885,369.784 246.436,369.572 246.144 C 369.225 245.665,369.170 245.656,369.014 246.058 M359.614 246.875 C 359.651 247.680,359.662 247.689,359.765 247.008 C 359.903 246.100,360.177 246.079,360.638 246.941 C 360.834 247.307,361.043 247.556,361.103 247.496 C 361.310 247.289,360.311 246.011,359.943 246.011 C 359.696 246.011,359.588 246.297,359.614 246.875 M364.628 246.850 C 364.628 246.974,365.037 247.074,365.536 247.074 C 366.036 247.074,366.506 247.197,366.580 247.347 C 366.655 247.497,366.685 247.468,366.647 247.282 C 366.571 246.908,364.628 246.493,364.628 246.850 M364.432 247.797 C 364.836 247.858,365.435 247.857,365.762 247.794 C 366.089 247.730,365.758 247.680,365.027 247.682 C 364.295 247.684,364.028 247.736,364.432 247.797 " stroke="none" fill="#a6b3bf" fill-rule="evenodd"></path><path id="path3" d="M132.330 75.066 C 132.229 101.872,132.185 146.842,132.231 175.000 L 132.314 226.197 199.402 226.264 L 266.489 226.331 266.489 126.330 L 266.489 26.330 199.501 26.330 L 132.512 26.330 132.330 75.066 M266.223 150.532 L 266.223 226.064 199.335 226.064 L 132.447 226.064 132.447 150.709 C 132.447 109.264,132.527 75.275,132.624 75.177 C 132.722 75.080,162.821 75.000,199.512 75.000 L 266.223 75.000 266.223 150.532 M147.780 86.104 C 147.712 86.213,148.363 86.303,149.227 86.303 C 150.090 86.303,150.797 86.213,150.797 86.104 C 150.798 85.994,150.147 85.904,149.351 85.904 C 148.555 85.904,147.848 85.994,147.780 86.104 M183.299 86.442 C 182.977 86.743,182.727 87.253,182.744 87.577 C 182.772 88.118,182.785 88.122,182.905 87.633 C 183.200 86.432,184.309 85.949,184.309 87.021 C 184.309 87.479,184.378 87.536,184.631 87.284 C 184.883 87.032,184.837 86.846,184.419 86.429 L 183.886 85.896 183.299 86.442 M215.118 86.839 L 214.145 87.477 214.481 88.619 C 214.745 89.518,214.952 89.774,215.453 89.823 C 215.984 89.874,216.008 89.850,215.596 89.676 C 214.468 89.200,214.325 87.574,215.357 86.965 C 216.209 86.463,216.311 86.454,216.604 86.855 C 216.788 87.106,217.142 87.236,217.438 87.161 C 217.905 87.042,217.899 87.027,217.382 86.999 C 217.069 86.982,216.743 86.789,216.659 86.569 C 216.459 86.047,216.278 86.078,215.118 86.839 M146.210 87.482 C 145.351 88.696,145.158 91.496,145.869 92.436 C 146.084 92.720,146.263 92.810,146.268 92.635 C 146.273 92.461,146.157 92.245,146.011 92.154 C 145.330 91.734,145.712 88.459,146.562 87.428 C 147.011 86.882,147.281 86.439,147.160 86.442 C 147.040 86.445,146.612 86.913,146.210 87.482 M151.741 87.140 C 152.909 88.399,152.250 89.730,150.987 88.663 L 150.399 88.165 150.916 88.775 C 151.597 89.578,152.500 89.458,152.606 88.549 C 152.683 87.886,151.803 86.436,151.323 86.436 C 151.195 86.436,151.383 86.753,151.741 87.140 M148.570 87.713 C 148.498 87.830,148.842 87.926,149.335 87.926 C 149.828 87.926,150.172 87.830,150.100 87.713 C 150.028 87.596,149.684 87.500,149.335 87.500 C 148.987 87.500,148.642 87.596,148.570 87.713 M147.480 88.817 C 146.893 89.953,146.983 90.978,147.749 91.888 L 148.421 92.686 147.882 91.755 C 147.237 90.642,147.201 89.871,147.746 88.817 C 147.969 88.385,148.092 88.032,148.019 88.032 C 147.946 88.032,147.703 88.385,147.480 88.817 M217.465 88.209 C 217.367 88.307,217.287 88.680,217.287 89.038 C 217.287 89.573,217.185 89.663,216.717 89.541 C 216.310 89.434,216.229 89.473,216.433 89.678 C 216.879 90.123,217.468 89.748,217.628 88.918 C 217.783 88.106,217.743 87.931,217.465 88.209 M182.358 88.475 C 182.261 88.573,182.188 88.902,182.198 89.207 C 182.213 89.716,182.235 89.709,182.469 89.124 C 182.730 88.472,182.676 88.158,182.358 88.475 M251.064 88.556 C 250.844 88.680,250.246 88.970,249.734 89.199 C 249.222 89.428,248.954 89.618,249.139 89.622 C 249.324 89.625,249.683 89.522,249.937 89.394 C 250.191 89.265,250.818 88.973,251.330 88.746 C 251.842 88.518,252.081 88.331,251.862 88.331 C 251.642 88.330,251.283 88.431,251.064 88.556 M252.631 88.541 C 252.848 88.678,252.941 89.007,252.856 89.334 C 252.775 89.642,252.818 89.894,252.950 89.894 C 253.083 89.894,253.191 89.535,253.191 89.096 C 253.191 88.512,253.067 88.299,252.726 88.302 C 252.354 88.305,252.335 88.353,252.631 88.541 M183.282 90.961 C 183.087 91.617,182.819 92.362,182.687 92.616 C 182.555 92.870,182.451 93.229,182.456 93.414 C 182.472 93.960,183.225 92.471,183.235 91.875 C 183.240 91.575,183.376 91.199,183.536 91.039 C 183.696 90.879,183.784 90.527,183.732 90.258 C 183.673 89.953,183.503 90.219,183.282 90.961 M151.795 90.883 C 152.846 91.076,152.403 92.891,151.110 93.694 C 150.719 93.936,150.568 94.138,150.774 94.142 C 152.210 94.169,153.289 90.854,151.862 90.799 C 151.283 90.776,151.275 90.787,151.795 90.883 M249.202 91.084 C 249.202 91.290,250.836 92.072,250.976 91.932 C 251.046 91.862,250.856 91.725,250.552 91.629 C 250.248 91.532,250.000 91.342,250.000 91.205 C 250.000 91.069,249.820 90.957,249.601 90.957 C 249.382 90.957,249.202 91.014,249.202 91.084 M150.429 91.880 C 150.186 92.250,150.081 92.553,150.196 92.553 C 150.455 92.553,151.143 91.480,150.985 91.322 C 150.922 91.259,150.671 91.510,150.429 91.880 M181.138 92.503 C 180.678 93.614,180.916 94.159,181.840 94.109 L 182.580 94.069 181.848 93.958 C 181.078 93.842,180.862 93.181,181.413 92.630 C 181.576 92.467,181.659 92.183,181.597 91.999 C 181.536 91.815,181.329 92.041,181.138 92.503 M252.856 93.112 C 252.941 93.440,252.848 93.769,252.631 93.906 C 252.335 94.094,252.354 94.142,252.726 94.145 C 253.067 94.148,253.191 93.935,253.191 93.351 C 253.191 92.912,253.083 92.553,252.950 92.553 C 252.818 92.553,252.775 92.805,252.856 93.112 M249.585 93.227 C 249.869 93.441,250.311 93.617,250.567 93.617 C 250.823 93.617,251.106 93.737,251.197 93.883 C 251.287 94.029,251.564 94.141,251.811 94.132 C 252.058 94.123,251.842 93.929,251.330 93.701 C 250.818 93.474,250.191 93.182,249.937 93.053 C 249.221 92.690,249.012 92.793,249.585 93.227 M146.714 93.630 C 147.028 93.950,147.414 94.168,147.573 94.114 C 147.731 94.060,147.474 93.798,147.002 93.532 L 146.144 93.048 146.714 93.630 M148.604 94.474 C 149.034 94.681,149.370 94.681,149.801 94.474 C 150.326 94.220,150.253 94.185,149.202 94.185 C 148.151 94.185,148.078 94.220,148.604 94.474 M146.325 117.732 C 146.372 118.123,146.562 118.473,146.749 118.510 C 146.935 118.547,146.965 118.516,146.815 118.442 C 146.432 118.252,146.475 117.359,146.875 117.197 C 147.067 117.120,147.004 117.054,146.724 117.042 C 146.353 117.026,146.261 117.186,146.325 117.732 M151.798 117.696 C 151.868 118.058,151.761 118.563,151.561 118.818 C 151.231 119.238,151.241 119.247,151.662 118.917 C 152.145 118.538,152.298 117.424,151.900 117.178 C 151.775 117.101,151.729 117.334,151.798 117.696 M184.725 117.818 C 184.850 118.037,184.981 118.875,185.016 119.680 C 185.050 120.485,185.157 121.589,185.254 122.133 C 185.407 122.999,185.328 123.224,184.623 123.928 C 184.180 124.372,183.923 124.734,184.052 124.734 C 185.061 124.734,186.208 121.660,185.388 121.153 C 185.250 121.068,185.160 120.349,185.188 119.556 C 185.222 118.607,185.112 117.995,184.868 117.767 C 184.559 117.479,184.535 117.487,184.725 117.818 M218.485 118.484 C 219.005 120.045,218.943 121.181,218.207 123.569 C 218.122 123.844,218.294 123.650,218.590 123.138 C 219.274 121.953,219.354 119.237,218.728 118.468 C 218.314 117.959,218.310 117.960,218.485 118.484 M182.662 118.528 C 183.522 118.711,183.321 119.574,182.442 119.474 C 181.921 119.414,181.859 119.466,182.127 119.734 C 182.566 120.173,183.378 119.688,183.378 118.987 C 183.378 118.639,183.172 118.471,182.713 118.440 C 182.097 118.400,182.093 118.407,182.662 118.528 M213.475 118.528 C 213.232 118.771,213.250 120.684,213.497 120.835 C 213.607 120.903,213.698 120.371,213.699 119.654 C 213.700 118.938,213.690 118.351,213.677 118.351 C 213.663 118.351,213.573 118.431,213.475 118.528 M215.094 119.235 C 214.779 120.005,215.349 120.790,216.154 120.694 C 216.535 120.649,216.877 120.459,216.914 120.273 C 216.951 120.086,216.921 120.056,216.846 120.206 C 216.500 120.905,215.460 120.486,215.376 119.614 C 215.311 118.940,215.249 118.857,215.094 119.235 M248.191 120.798 C 248.016 120.973,247.881 121.303,247.891 121.529 C 247.904 121.814,247.974 121.776,248.116 121.410 C 248.269 121.014,248.656 120.837,249.626 120.720 L 250.931 120.562 249.721 120.521 C 249.055 120.498,248.367 120.622,248.191 120.798 M149.789 121.733 C 149.633 122.140,149.353 122.922,149.167 123.471 C 148.730 124.762,147.440 124.995,147.693 123.737 C 148.051 121.955,148.130 121.437,147.987 121.809 C 147.903 122.028,147.712 122.459,147.563 122.766 C 147.065 123.797,147.375 124.601,148.271 124.601 C 148.977 124.601,149.118 124.463,149.492 123.404 C 149.724 122.746,150.008 121.993,150.123 121.731 C 150.238 121.468,150.273 121.195,150.202 121.124 C 150.130 121.052,149.944 121.327,149.789 121.733 M179.965 121.188 C 179.721 121.431,179.740 123.344,179.987 123.495 C 180.096 123.562,180.187 123.031,180.188 122.314 C 180.189 121.597,180.179 121.011,180.166 121.011 C 180.153 121.011,180.062 121.090,179.965 121.188 M214.057 121.629 C 214.290 121.910,214.242 122.100,213.847 122.458 C 213.536 122.740,213.400 123.096,213.503 123.363 C 213.639 123.717,213.702 123.677,213.825 123.158 C 214.028 122.297,214.498 122.183,215.073 122.854 C 215.602 123.472,216.226 123.561,216.702 123.085 C 217.359 122.428,217.052 122.074,215.824 122.074 C 215.166 122.074,214.628 121.968,214.628 121.837 C 214.628 121.706,214.431 121.524,214.191 121.432 C 213.845 121.299,213.817 121.340,214.057 121.629 M183.378 122.340 C 183.378 122.751,183.467 123.032,183.577 122.964 C 183.687 122.896,183.777 122.616,183.777 122.340 C 183.777 122.065,183.687 121.784,183.577 121.717 C 183.467 121.649,183.378 121.930,183.378 122.340 M249.601 122.074 L 248.005 122.251 249.519 122.296 C 250.351 122.320,251.106 122.221,251.197 122.074 C 251.287 121.928,251.324 121.829,251.279 121.853 C 251.234 121.878,250.479 121.977,249.601 122.074 M216.690 122.673 C 216.526 123.170,215.518 123.230,215.335 122.753 C 215.213 122.436,215.363 122.340,215.988 122.340 C 216.518 122.340,216.762 122.456,216.690 122.673 M214.172 124.386 C 214.744 124.965,217.075 125.054,217.606 124.518 C 217.892 124.230,217.821 124.218,217.203 124.451 C 216.174 124.840,215.433 124.804,214.495 124.318 C 213.726 123.921,213.714 123.923,214.172 124.386 M182.247 124.917 C 182.503 124.984,182.922 124.984,183.178 124.917 C 183.434 124.850,183.225 124.796,182.713 124.796 C 182.201 124.796,181.991 124.850,182.247 124.917 M148.734 147.743 C 148.404 148.253,148.224 148.665,148.335 148.659 C 148.593 148.645,149.773 146.807,149.522 146.812 C 149.419 146.814,149.065 147.232,148.734 147.743 M180.638 147.128 C 180.463 147.303,180.331 147.812,180.346 148.258 L 180.374 149.069 180.586 148.170 C 180.702 147.676,180.959 147.169,181.157 147.044 C 181.354 146.919,181.390 146.815,181.237 146.813 C 181.083 146.810,180.814 146.952,180.638 147.128 M183.405 147.000 C 184.824 147.098,184.891 147.135,184.773 147.753 C 184.704 148.111,184.759 148.404,184.895 148.404 C 185.031 148.404,185.104 148.075,185.058 147.673 C 184.977 146.972,184.909 146.941,183.443 146.920 L 181.912 146.898 183.405 147.000 M214.363 147.472 C 214.020 147.837,213.789 148.184,213.851 148.243 C 213.912 148.302,214.278 148.003,214.664 147.579 C 215.049 147.155,215.279 146.809,215.175 146.809 C 215.071 146.809,214.706 147.107,214.363 147.472 M218.067 147.511 C 219.076 148.793,218.464 149.892,217.310 148.868 C 216.941 148.540,216.793 148.473,216.981 148.720 C 217.286 149.119,217.213 149.179,216.308 149.273 L 215.293 149.379 216.407 149.423 C 217.020 149.448,217.599 149.594,217.694 149.747 C 217.798 149.916,218.122 149.750,218.512 149.330 C 219.197 148.591,218.863 147.328,217.881 146.951 C 217.666 146.868,217.741 147.097,218.067 147.511 M150.883 148.936 C 150.883 149.887,150.931 150.276,150.990 149.801 C 151.049 149.325,151.049 148.547,150.990 148.072 C 150.931 147.596,150.883 147.985,150.883 148.936 M250.175 148.850 C 250.345 148.972,250.541 149.430,250.612 149.868 C 250.729 150.598,250.737 150.588,250.702 149.755 C 250.679 149.194,250.512 148.803,250.266 148.737 C 249.997 148.665,249.967 148.701,250.175 148.850 M147.340 149.734 C 147.028 150.173,146.832 150.532,146.905 150.532 C 146.978 150.532,147.294 150.173,147.606 149.734 C 147.919 149.295,148.115 148.936,148.042 148.936 C 147.968 148.936,147.653 149.295,147.340 149.734 M213.475 149.113 C 213.231 149.358,213.251 152.599,213.497 152.751 C 213.607 152.819,213.702 151.988,213.708 150.905 C 213.714 149.822,213.704 148.936,213.686 148.936 C 213.667 148.936,213.573 149.016,213.475 149.113 M182.842 149.400 C 183.426 149.459,184.084 149.648,184.305 149.820 C 184.656 150.093,184.661 150.074,184.342 149.668 C 184.087 149.342,183.648 149.216,182.880 149.247 L 181.782 149.292 182.842 149.400 M149.073 150.309 C 149.192 150.788,149.133 151.053,148.893 151.132 C 148.644 151.213,148.657 151.239,148.933 151.219 C 149.434 151.183,149.618 150.307,149.208 149.905 C 148.973 149.675,148.941 149.772,149.073 150.309 M218.351 150.231 C 218.351 150.379,218.471 150.574,218.617 150.665 C 219.196 151.023,218.911 153.000,218.168 153.775 C 217.775 154.186,217.588 154.521,217.751 154.521 C 218.831 154.521,219.621 151.232,218.750 150.361 C 218.531 150.142,218.351 150.083,218.351 150.231 M185.040 150.531 C 185.600 151.160,185.431 152.660,184.683 153.698 L 183.995 154.654 184.816 153.786 C 185.786 152.761,185.965 151.110,185.173 150.511 C 184.777 150.211,184.757 150.214,185.040 150.531 M247.274 150.819 C 246.187 151.452,246.942 152.676,248.391 152.629 L 249.335 152.598 248.335 152.404 C 246.634 152.075,246.580 151.064,248.263 151.064 C 248.779 151.064,249.202 150.944,249.202 150.798 C 249.202 150.454,247.876 150.468,247.274 150.819 M250.949 150.769 C 250.868 150.899,251.214 151.054,251.718 151.113 C 252.444 151.198,252.574 151.149,252.348 150.876 C 252.021 150.482,251.166 150.417,250.949 150.769 M181.766 151.089 C 181.668 151.249,181.305 151.326,180.961 151.260 C 180.617 151.194,180.399 151.243,180.476 151.368 C 180.674 151.688,181.487 151.651,181.831 151.307 C 182.426 150.712,183.378 151.135,183.378 151.995 C 183.378 153.031,182.393 153.252,181.640 152.383 C 181.123 151.787,179.787 151.805,179.787 152.408 C 179.787 152.582,179.985 152.572,180.344 152.380 C 180.801 152.136,181.008 152.182,181.492 152.637 C 182.720 153.790,184.747 152.549,183.637 151.323 C 183.122 150.754,182.056 150.620,181.766 151.089 M215.568 151.048 C 215.483 151.186,215.744 151.276,216.148 151.248 C 216.796 151.203,216.900 151.307,217.030 152.128 C 217.159 152.947,217.200 152.989,217.377 152.477 C 217.755 151.383,216.146 150.113,215.568 151.048 M151.263 151.338 C 151.621 151.482,151.874 151.823,151.893 152.186 C 151.916 152.656,151.951 152.685,152.047 152.314 C 152.200 151.728,151.684 151.058,151.098 151.081 C 150.805 151.092,150.858 151.175,151.263 151.338 M252.243 152.110 C 252.106 152.241,251.695 152.389,251.330 152.438 C 250.814 152.507,250.645 152.705,250.574 153.324 C 250.525 153.762,250.345 154.209,250.175 154.317 C 249.975 154.444,250.030 154.515,250.332 154.517 C 250.688 154.520,250.798 154.301,250.798 153.590 C 250.798 152.738,250.863 152.660,251.580 152.660 C 252.010 152.660,252.441 152.532,252.538 152.376 C 252.770 151.999,252.557 151.807,252.243 152.110 M146.450 152.725 C 146.518 152.835,147.157 152.926,147.870 152.926 C 149.077 152.926,149.173 152.975,149.251 153.636 C 149.297 154.027,149.515 154.396,149.734 154.455 C 150.001 154.526,150.032 154.489,149.827 154.342 C 149.659 154.221,149.480 153.823,149.428 153.457 C 149.344 152.857,149.189 152.780,147.831 152.658 C 147.003 152.585,146.382 152.615,146.450 152.725 M150.819 153.391 C 150.831 153.808,150.903 153.951,150.988 153.723 C 151.069 153.504,151.254 153.175,151.398 152.992 C 151.586 152.755,151.537 152.660,151.229 152.660 C 150.931 152.660,150.804 152.885,150.819 153.391 M179.794 153.059 C 179.801 153.425,180.785 154.676,180.942 154.517 C 181.012 154.446,180.781 154.029,180.430 153.590 C 180.078 153.152,179.792 152.912,179.794 153.059 M182.048 154.787 C 182.138 154.934,182.437 155.053,182.713 155.053 C 182.988 155.053,183.287 154.934,183.378 154.787 C 183.474 154.632,183.198 154.521,182.713 154.521 C 182.228 154.521,181.952 154.632,182.048 154.787 M215.900 154.850 C 216.349 155.066,216.588 155.061,216.817 154.832 C 217.054 154.595,216.910 154.526,216.210 154.539 C 215.348 154.556,215.330 154.575,215.900 154.850 M150.265 181.063 L 150.397 184.707 150.473 181.272 C 150.514 179.382,150.455 177.742,150.341 177.627 C 150.226 177.512,150.192 179.058,150.265 181.063 M184.840 178.125 C 184.840 178.291,184.960 178.500,185.106 178.590 C 185.570 178.877,185.395 180.485,184.821 181.214 C 184.151 182.066,184.420 182.158,185.121 181.316 C 185.719 180.600,185.776 179.061,185.231 178.340 C 185.016 178.056,184.840 177.959,184.840 178.125 M218.307 179.600 C 218.356 180.508,218.505 181.364,218.639 181.503 C 219.176 182.059,218.897 183.538,218.106 184.329 C 217.678 184.757,217.434 185.106,217.563 185.106 C 218.358 185.106,219.175 183.618,219.022 182.447 C 218.936 181.789,218.799 180.592,218.718 179.787 C 218.511 177.742,218.199 177.600,218.307 179.600 M146.986 178.635 C 146.282 179.338,147.043 180.352,148.227 180.288 C 148.644 180.265,148.583 180.209,148.005 180.087 C 147.067 179.887,146.722 178.852,147.524 178.644 C 147.893 178.548,147.907 178.512,147.584 178.488 C 147.353 178.471,147.083 178.537,146.986 178.635 M182.912 178.998 C 183.241 179.130,183.511 179.432,183.511 179.670 C 183.511 179.907,183.241 180.326,182.912 180.600 C 182.583 180.875,182.455 181.103,182.627 181.108 C 182.799 181.113,183.190 180.799,183.495 180.411 C 184.107 179.633,183.686 178.703,182.738 178.740 C 182.462 178.751,182.523 178.841,182.912 178.998 M213.445 179.078 C 213.067 179.912,214.074 180.704,214.834 180.171 C 215.160 179.943,215.422 179.614,215.417 179.440 C 215.412 179.264,215.251 179.330,215.055 179.588 C 214.518 180.295,213.880 180.163,213.765 179.322 C 213.679 178.695,213.634 178.660,213.445 179.078 M216.184 178.901 C 216.685 179.007,216.784 179.165,216.682 179.696 C 216.600 180.125,216.647 180.268,216.813 180.102 C 217.279 179.636,216.921 178.859,216.221 178.813 C 215.582 178.771,215.581 178.774,216.184 178.901 M179.930 179.344 C 179.591 180.106,180.603 181.002,181.351 180.602 C 181.661 180.436,181.915 180.112,181.915 179.881 C 181.915 179.572,181.780 179.627,181.402 180.090 C 180.826 180.795,180.432 180.599,180.255 179.521 C 180.160 178.935,180.121 178.914,179.930 179.344 M215.208 181.030 C 215.255 181.421,215.472 181.795,215.691 181.861 C 216.013 181.958,216.026 181.913,215.758 181.629 C 215.288 181.131,215.346 180.645,215.891 180.502 C 216.231 180.414,216.191 180.373,215.740 180.350 C 215.223 180.324,215.138 180.433,215.208 181.030 M180.625 182.075 C 180.427 182.299,180.318 182.535,180.383 182.599 C 180.447 182.663,180.717 182.476,180.983 182.182 C 181.248 181.889,181.357 181.653,181.225 181.659 C 181.092 181.665,180.822 181.852,180.625 182.075 M183.289 182.309 C 182.516 182.735,181.991 183.245,182.327 183.243 C 182.466 183.243,182.939 182.948,183.378 182.588 C 184.256 181.868,184.232 181.790,183.289 182.309 M216.888 182.713 C 216.888 183.124,216.978 183.404,217.088 183.337 C 217.197 183.269,217.287 182.988,217.287 182.713 C 217.287 182.437,217.197 182.157,217.088 182.089 C 216.978 182.021,216.888 182.302,216.888 182.713 M179.891 183.358 C 179.358 184.747,179.753 184.973,182.713 184.973 C 185.489 184.973,185.505 184.970,185.505 184.331 C 185.505 183.977,185.353 183.657,185.166 183.619 C 184.980 183.581,184.950 183.611,185.100 183.686 C 186.381 184.321,185.291 184.840,182.678 184.840 L 179.984 184.840 180.135 183.910 C 180.288 182.965,180.156 182.667,179.891 183.358 M213.299 183.527 C 213.298 184.040,214.266 185.114,214.705 185.085 C 214.924 185.071,214.914 185.019,214.672 184.923 C 214.478 184.845,214.089 184.406,213.809 183.947 C 213.526 183.482,213.299 183.296,213.299 183.527 M215.628 185.294 C 215.959 185.358,216.438 185.356,216.692 185.289 C 216.946 185.223,216.676 185.171,216.090 185.173 C 215.505 185.176,215.297 185.231,215.628 185.294 M246.936 195.221 C 246.837 195.382,246.827 195.586,246.915 195.674 C 247.003 195.762,247.074 195.694,247.074 195.523 C 247.074 195.123,252.287 195.087,252.484 195.485 C 252.559 195.635,252.589 195.605,252.552 195.419 C 252.462 194.972,247.205 194.787,246.936 195.221 M252.452 196.428 C 252.259 196.774,251.758 196.831,249.538 196.761 C 248.064 196.714,246.914 196.765,246.982 196.875 C 247.300 197.387,252.366 197.090,252.660 196.543 C 252.993 195.920,252.797 195.812,252.452 196.428 M246.983 197.540 C 246.915 197.650,248.153 197.739,249.734 197.739 C 251.315 197.739,252.553 197.650,252.486 197.540 C 252.418 197.430,251.180 197.340,249.734 197.340 C 248.289 197.340,247.050 197.430,246.983 197.540 M252.561 198.543 C 252.422 198.906,251.977 198.958,249.627 198.887 C 248.104 198.841,246.914 198.893,246.982 199.003 C 247.237 199.413,252.306 199.229,252.665 198.797 C 252.850 198.574,252.939 198.329,252.863 198.253 C 252.787 198.177,252.651 198.308,252.561 198.543 M218.019 207.202 C 217.763 207.351,217.553 207.660,217.553 207.888 C 217.553 208.196,217.680 208.148,218.042 207.700 C 218.560 207.060,219.149 207.174,219.149 207.915 C 219.149 208.245,219.224 208.276,219.457 208.043 C 220.135 207.365,218.940 206.665,218.019 207.202 M147.248 207.738 C 146.630 208.459,146.837 208.682,147.472 207.980 C 148.102 207.284,150.116 207.244,150.910 207.912 C 151.462 208.377,151.462 208.377,150.956 207.779 C 150.248 206.943,147.950 206.918,147.248 207.738 M151.485 208.910 C 151.764 209.546,151.771 212.363,151.495 213.298 C 151.319 213.896,151.344 213.885,151.742 213.193 C 152.272 212.271,152.184 209.243,151.611 208.711 C 151.314 208.436,151.292 208.471,151.485 208.910 M148.164 209.614 C 147.824 210.590,147.813 211.876,148.138 212.633 C 148.296 213.000,148.373 212.584,148.386 211.290 C 148.396 210.211,148.540 209.279,148.723 209.096 C 148.940 208.879,148.949 208.777,148.749 208.777 C 148.588 208.777,148.325 209.153,148.164 209.614 M149.719 209.225 C 150.365 210.562,149.976 213.210,149.109 213.380 C 148.555 213.488,148.556 213.493,149.142 213.528 C 150.224 213.592,150.760 210.293,149.852 209.160 C 149.453 208.661,149.448 208.663,149.719 209.225 M218.705 209.522 C 218.542 209.917,218.350 210.479,218.277 210.771 C 218.205 211.064,218.054 211.543,217.943 211.835 C 217.808 212.190,217.829 212.279,218.008 212.101 C 218.299 211.810,219.234 209.039,219.090 208.895 C 219.040 208.845,218.867 209.128,218.705 209.522 M146.454 209.220 C 146.209 209.464,146.229 212.972,146.476 213.123 C 146.586 213.190,146.676 212.300,146.676 211.144 C 146.676 209.988,146.666 209.042,146.653 209.042 C 146.641 209.042,146.551 209.122,146.454 209.220 M212.677 209.220 C 212.580 209.317,212.500 209.736,212.500 210.151 C 212.500 210.768,212.385 210.904,211.865 210.904 C 211.515 210.904,210.961 211.122,210.632 211.388 C 209.756 212.097,210.294 213.032,211.579 213.032 C 212.421 213.032,212.500 213.099,212.500 213.814 C 212.500 214.244,212.600 214.658,212.722 214.734 C 212.844 214.809,212.873 214.427,212.786 213.885 C 212.645 213.013,212.530 212.889,211.785 212.817 C 210.050 212.648,209.985 211.546,211.702 211.389 C 212.457 211.319,213.614 209.043,212.895 209.043 C 212.873 209.043,212.775 209.122,212.677 209.220 M214.187 210.504 C 214.221 211.160,214.364 211.324,214.997 211.435 C 215.646 211.548,216.648 212.826,216.014 212.731 C 214.641 212.527,214.097 212.787,214.136 213.630 C 214.173 214.435,214.183 214.444,214.286 213.763 C 214.377 213.163,214.533 213.032,215.152 213.032 C 215.777 213.032,215.884 213.124,215.769 213.564 C 215.692 213.856,215.695 214.096,215.775 214.096 C 216.015 214.096,217.113 210.375,216.927 210.189 C 216.833 210.095,216.755 210.262,216.755 210.561 C 216.755 211.300,216.078 211.868,215.864 211.310 C 215.778 211.087,215.414 210.904,215.053 210.904 C 214.589 210.904,214.362 210.730,214.272 210.306 C 214.186 209.903,214.158 209.968,214.187 210.504 M181.649 214.096 C 181.649 214.680,181.774 214.893,182.114 214.890 C 182.486 214.886,182.505 214.838,182.209 214.651 C 181.992 214.513,181.899 214.185,181.985 213.857 C 182.065 213.549,182.023 213.298,181.890 213.298 C 181.757 213.298,181.649 213.657,181.649 214.096 M183.431 213.819 C 183.526 214.182,183.442 214.518,183.216 214.675 C 182.908 214.890,182.913 214.916,183.245 214.825 C 183.736 214.691,183.925 213.872,183.550 213.497 C 183.360 213.307,183.323 213.406,183.431 213.819 M148.271 215.160 C 148.479 215.496,149.214 215.496,149.734 215.160 C 150.030 214.968,149.872 214.901,149.120 214.898 C 148.511 214.895,148.173 215.000,148.271 215.160 M359.379 243.010 C 359.783 243.071,360.381 243.069,360.708 243.006 C 361.036 242.943,360.705 242.893,359.973 242.895 C 359.242 242.897,358.974 242.949,359.379 243.010 M364.432 243.010 C 364.836 243.071,365.435 243.069,365.762 243.006 C 366.089 242.943,365.758 242.893,365.027 242.895 C 364.295 242.897,364.028 242.949,364.432 243.010 M368.484 242.954 C 369.092 243.166,370.697 243.224,370.577 243.030 C 370.506 242.914,369.946 242.829,369.333 242.840 C 368.720 242.852,368.338 242.903,368.484 242.954 M367.936 245.343 C 367.949 247.034,368.034 247.473,368.351 247.496 C 368.570 247.512,368.605 247.475,368.428 247.415 C 368.225 247.346,368.072 246.550,368.013 245.262 L 367.920 243.218 367.936 245.343 M376.415 244.681 C 376.415 245.632,376.463 246.021,376.522 245.545 C 376.581 245.070,376.581 244.292,376.522 243.816 C 376.463 243.341,376.415 243.730,376.415 244.681 M381.699 245.318 C 381.745 246.546,381.872 247.496,381.981 247.430 C 382.301 247.236,382.222 243.085,381.898 243.085 C 381.715 243.085,381.645 243.868,381.699 245.318 M378.723 246.121 C 378.723 246.768,378.601 247.357,378.451 247.431 C 378.301 247.506,378.331 247.536,378.517 247.499 C 378.883 247.426,379.289 244.947,378.935 244.947 C 378.819 244.947,378.723 245.475,378.723 246.121 " stroke="none" fill="#b3e6cd" fill-rule="evenodd"></path><path id="path4" d="M132.624 75.177 C 132.527 75.275,132.447 109.264,132.447 150.709 L 132.447 226.064 199.335 226.064 L 266.223 226.064 266.223 150.532 L 266.223 75.000 199.512 75.000 C 162.821 75.000,132.722 75.080,132.624 75.177 M150.798 86.170 C 150.798 86.316,150.969 86.436,151.178 86.436 C 151.777 86.436,152.694 87.792,152.606 88.549 C 152.498 89.476,151.552 89.594,150.895 88.764 C 149.024 86.399,146.268 89.063,147.869 91.689 C 148.627 92.931,149.772 92.901,150.596 91.617 C 151.388 90.383,152.484 90.388,152.605 91.627 C 152.780 93.408,150.193 94.983,148.120 94.357 C 144.903 93.385,144.445 87.756,147.461 86.243 C 148.175 85.884,150.798 85.827,150.798 86.170 M184.631 87.284 C 184.453 87.461,184.309 87.934,184.309 88.335 C 184.309 88.736,184.189 89.138,184.043 89.229 C 183.896 89.319,183.777 89.738,183.777 90.160 C 183.777 90.581,183.657 91.000,183.511 91.090 C 183.364 91.181,183.245 91.483,183.245 91.762 C 183.245 92.895,182.373 94.178,181.660 94.095 C 180.747 93.988,180.858 92.552,181.951 90.363 C 182.077 90.109,182.181 89.607,182.181 89.248 C 182.181 88.889,182.301 88.521,182.447 88.431 C 182.593 88.340,182.713 87.979,182.713 87.628 C 182.713 87.276,182.977 86.743,183.299 86.442 L 183.886 85.896 184.419 86.429 C 184.837 86.846,184.883 87.032,184.631 87.284 M216.659 86.569 C 216.743 86.789,217.029 86.968,217.294 86.968 C 217.947 86.968,218.051 87.425,217.681 88.678 C 217.339 89.837,216.944 90.116,216.347 89.620 C 216.049 89.373,215.957 89.371,215.957 89.614 C 215.957 90.483,214.799 89.703,214.481 88.619 L 214.145 87.477 215.118 86.839 C 216.278 86.078,216.459 86.047,216.659 86.569 M253.189 89.029 C 253.187 89.785,252.310 90.426,251.277 90.426 C 251.013 90.426,250.798 90.545,250.798 90.691 C 250.798 90.838,250.618 90.957,250.399 90.957 C 249.703 90.957,249.968 91.413,250.864 91.757 C 253.150 92.635,253.191 92.664,253.191 93.416 C 253.191 94.199,252.191 94.445,251.127 93.922 C 250.873 93.797,250.186 93.485,249.601 93.228 C 249.016 92.971,248.329 92.654,248.075 92.524 C 247.821 92.394,247.432 92.287,247.211 92.287 C 246.919 92.287,246.809 91.996,246.809 91.223 C 246.809 90.451,246.919 90.160,247.211 90.160 C 247.432 90.160,247.821 90.046,248.075 89.907 C 248.329 89.767,249.016 89.458,249.601 89.219 C 250.186 88.981,250.844 88.683,251.064 88.557 C 252.039 88.000,253.192 88.256,253.189 89.029 M152.069 117.819 C 152.114 118.221,151.904 118.747,151.537 119.149 C 150.775 119.984,150.488 120.582,149.492 123.404 C 149.118 124.463,148.977 124.601,148.271 124.601 C 147.420 124.601,146.986 123.499,147.556 122.790 C 147.696 122.616,147.894 122.084,147.996 121.609 C 148.097 121.134,148.268 120.745,148.376 120.745 C 148.483 120.745,148.735 120.326,148.936 119.814 C 149.137 119.302,149.429 118.862,149.584 118.837 C 149.740 118.812,149.089 118.722,148.138 118.638 C 146.488 118.491,146.406 118.450,146.325 117.743 L 146.239 117.003 149.117 117.079 C 151.966 117.154,151.995 117.161,152.069 117.819 M184.652 117.569 C 185.134 118.019,185.230 118.375,185.188 119.558 C 185.160 120.350,185.250 121.068,185.388 121.153 C 185.823 121.422,185.646 123.241,185.124 123.866 C 183.957 125.265,181.297 125.310,180.326 123.946 C 179.779 123.178,179.590 121.430,180.025 121.161 C 180.156 121.080,180.257 120.292,180.248 119.411 C 180.226 117.077,182.918 115.951,184.652 117.569 M217.916 117.354 C 220.170 119.664,219.246 124.455,216.460 124.899 C 214.546 125.205,212.699 123.497,213.833 122.471 C 214.342 122.010,214.342 121.996,213.823 121.267 C 212.973 120.074,213.217 118.313,214.362 117.367 C 214.885 116.935,217.498 116.925,217.916 117.354 M181.915 118.988 C 181.915 119.403,182.631 119.763,183.003 119.533 C 183.511 119.219,183.233 118.617,182.580 118.617 C 182.189 118.617,181.915 118.770,181.915 118.988 M215.426 119.548 C 215.426 120.352,215.512 120.479,216.062 120.479 C 216.762 120.479,217.120 119.879,216.876 119.111 C 216.567 118.137,215.426 118.481,215.426 119.548 M251.021 120.712 C 251.216 120.836,251.336 121.223,251.287 121.573 C 251.157 122.491,248.287 122.697,248.005 121.808 C 247.657 120.712,249.794 119.935,251.021 120.712 M181.915 122.340 C 181.915 123.092,181.986 123.165,182.646 123.089 C 183.227 123.023,183.378 122.868,183.378 122.340 C 183.378 121.813,183.227 121.658,182.646 121.591 C 181.986 121.515,181.915 121.588,181.915 122.340 M215.335 122.753 C 215.518 123.230,216.526 123.170,216.690 122.673 C 216.762 122.456,216.518 122.340,215.988 122.340 C 215.363 122.340,215.213 122.436,215.335 122.753 M150.958 147.486 C 151.051 147.858,151.075 148.797,151.011 149.571 C 150.909 150.800,150.964 151.010,151.443 151.221 C 152.186 151.549,152.292 152.361,151.650 152.811 C 151.361 153.013,151.047 153.489,150.952 153.867 C 150.701 154.867,149.373 154.714,149.252 153.670 C 149.175 153.005,149.067 152.946,147.789 152.872 C 145.767 152.755,145.767 152.041,147.789 149.088 C 149.505 146.582,150.593 146.032,150.958 147.486 M185.056 147.659 C 185.137 148.357,185.097 148.379,183.614 148.457 C 181.852 148.550,181.207 149.202,182.877 149.202 C 185.082 149.202,186.429 151.848,185.091 153.549 C 184.288 154.571,182.786 155.227,182.154 154.832 C 181.880 154.661,181.429 154.521,181.151 154.521 C 180.570 154.521,179.787 153.462,179.787 152.674 C 179.787 151.839,181.003 151.649,181.640 152.383 C 182.392 153.250,183.378 153.031,183.378 151.998 C 183.378 151.078,182.740 150.817,181.765 151.339 C 180.622 151.950,180.319 151.543,180.319 149.397 C 180.319 146.899,180.456 146.768,182.975 146.865 C 184.926 146.940,184.975 146.959,185.056 147.659 M218.201 147.228 C 219.093 148.121,219.195 148.624,218.604 149.215 L 218.047 149.772 218.598 150.250 C 219.673 151.182,218.943 154.521,217.664 154.521 C 217.453 154.521,217.068 154.654,216.808 154.816 C 216.148 155.229,214.407 154.365,213.801 153.324 C 213.287 152.441,213.114 149.347,213.564 149.069 C 213.710 148.979,213.830 148.710,213.830 148.472 C 213.830 147.048,217.092 146.119,218.201 147.228 M215.747 148.813 C 215.454 149.146,215.545 149.202,216.378 149.202 C 217.214 149.202,217.305 149.145,217.021 148.803 C 216.609 148.306,216.192 148.310,215.747 148.813 M250.745 149.761 C 250.815 150.596,250.903 150.704,251.426 150.604 C 252.165 150.463,252.731 151.087,252.614 151.914 C 252.546 152.388,252.332 152.545,251.662 152.610 C 250.871 152.686,250.798 152.770,250.798 153.607 C 250.798 154.446,250.732 154.521,250.000 154.521 C 249.265 154.521,249.202 154.447,249.202 153.590 C 249.202 152.715,249.150 152.660,248.324 152.660 C 247.351 152.660,246.809 152.263,246.809 151.552 C 246.809 150.991,247.578 150.532,248.520 150.532 C 249.125 150.532,249.202 150.424,249.202 149.583 C 249.202 148.141,250.623 148.305,250.745 149.761 M215.758 151.237 C 214.983 151.557,215.374 152.926,216.240 152.926 C 216.999 152.926,217.049 152.866,216.972 152.063 C 216.890 151.218,216.480 150.939,215.758 151.237 M150.476 180.718 C 150.573 184.751,150.491 185.106,149.463 185.106 L 148.670 185.106 148.670 182.713 C 148.670 180.409,148.648 180.319,148.072 180.315 C 146.712 180.306,146.246 178.689,147.550 178.504 C 147.885 178.457,148.304 178.183,148.481 177.896 C 148.708 177.528,149.039 177.396,149.601 177.450 L 150.399 177.527 150.476 180.718 M185.009 178.125 C 185.964 179.235,185.567 181.915,184.448 181.915 C 184.352 181.915,183.881 182.214,183.401 182.580 C 182.922 182.945,182.361 183.266,182.156 183.292 C 181.950 183.317,182.620 183.407,183.644 183.491 C 185.411 183.636,185.505 183.677,185.505 184.309 L 185.505 184.973 182.713 184.973 C 179.968 184.973,179.919 184.963,179.830 184.335 C 179.680 183.276,180.438 182.068,181.649 181.434 C 183.511 180.459,184.124 179.122,182.709 179.122 C 182.226 179.122,182.025 179.283,181.963 179.721 C 181.826 180.683,180.903 181.022,180.237 180.355 C 179.653 179.771,179.816 179.066,180.814 177.859 C 181.495 177.036,184.221 177.209,185.009 178.125 M218.070 177.859 C 218.384 178.155,218.620 178.858,218.715 179.787 C 218.798 180.592,218.936 181.789,219.022 182.447 C 219.157 183.480,219.087 183.741,218.510 184.351 C 216.764 186.200,213.298 185.342,213.298 183.062 C 213.298 181.898,214.578 181.759,215.166 182.858 C 215.666 183.793,216.888 183.691,216.888 182.715 C 216.888 182.187,216.727 182.025,216.090 181.916 C 214.935 181.718,214.763 180.399,215.875 180.272 C 216.920 180.152,217.132 178.989,216.109 178.989 C 215.691 178.989,215.426 179.138,215.426 179.373 C 215.426 180.190,214.303 180.644,213.721 180.062 C 213.155 179.497,213.433 178.489,214.362 177.735 C 214.990 177.224,217.484 177.308,218.070 177.859 M252.637 195.545 C 253.129 196.850,252.623 197.100,249.653 197.017 C 246.788 196.937,246.388 196.691,246.912 195.326 C 247.191 194.600,252.354 194.797,252.637 195.545 M252.669 197.889 C 253.244 198.965,252.607 199.228,249.631 199.145 C 246.828 199.066,246.468 198.878,246.911 197.724 C 247.174 197.036,252.291 197.184,252.669 197.889 M219.398 207.293 C 219.612 207.551,219.629 207.825,219.452 208.157 C 219.310 208.425,218.988 209.362,218.738 210.239 C 218.488 211.117,218.178 211.949,218.051 212.088 C 217.923 212.227,217.819 212.609,217.819 212.936 C 217.819 213.264,217.699 213.606,217.553 213.697 C 217.407 213.787,217.287 214.093,217.287 214.377 C 217.287 214.778,217.102 214.894,216.460 214.894 C 215.672 214.894,215.638 214.850,215.742 213.963 C 215.843 213.095,215.800 213.032,215.106 213.032 C 214.513 213.032,214.361 213.153,214.358 213.630 C 214.347 215.188,212.698 215.430,212.550 213.896 C 212.474 213.107,212.388 213.032,211.562 213.032 C 210.294 213.032,209.763 212.092,210.632 211.388 C 210.961 211.122,211.508 210.904,211.848 210.904 C 212.351 210.904,212.482 210.743,212.550 210.040 C 212.681 208.682,213.992 208.618,214.243 209.957 C 214.389 210.733,214.537 210.904,215.065 210.904 C 215.419 210.904,215.778 211.087,215.864 211.310 C 216.061 211.823,216.754 211.327,216.757 210.672 C 216.758 210.434,216.937 209.897,217.156 209.478 C 217.374 209.059,217.553 208.436,217.553 208.095 C 217.553 207.110,218.797 206.569,219.398 207.293 M151.239 208.144 C 153.511 211.122,151.167 216.458,148.169 215.131 C 146.693 214.477,145.432 209.862,146.543 209.176 C 146.689 209.085,146.809 208.840,146.809 208.631 C 146.809 206.907,150.026 206.553,151.239 208.144 M148.723 209.096 C 148.049 209.770,148.313 213.298,149.038 213.298 C 149.763 213.298,149.991 212.740,149.996 210.953 C 150.002 209.204,149.438 208.381,148.723 209.096 M222.074 211.702 C 222.074 212.499,222.073 212.500,220.494 212.500 C 218.821 212.500,218.479 212.291,218.751 211.434 C 219.071 210.424,222.074 210.666,222.074 211.702 M183.356 213.382 C 184.164 213.973,183.786 214.748,182.644 214.843 C 181.698 214.922,181.649 214.886,181.649 214.131 C 181.649 213.401,181.795 213.257,182.728 213.063 C 182.810 213.046,183.092 213.189,183.356 213.382 M358.777 245.213 C 358.777 247.347,359.412 248.411,359.623 246.630 C 359.741 245.639,360.146 245.607,360.771 246.540 C 361.064 246.977,361.453 247.392,361.636 247.462 C 362.150 247.660,362.028 246.973,361.436 246.338 C 360.863 245.722,360.742 245.213,361.170 245.213 C 361.316 245.213,361.436 244.734,361.436 244.149 L 361.436 243.085 360.106 243.085 L 358.777 243.085 358.777 245.213 M363.620 245.279 L 363.697 247.473 364.960 247.554 C 365.720 247.603,366.223 247.524,366.223 247.355 C 366.223 247.201,365.861 247.074,365.417 247.074 C 364.916 247.074,364.548 246.910,364.444 246.639 C 364.223 246.064,364.720 245.325,365.261 245.424 C 365.973 245.553,365.745 245.018,365.009 244.833 C 363.936 244.564,364.220 243.533,365.426 243.320 C 366.244 243.175,366.187 243.151,364.949 243.120 L 363.542 243.085 363.620 245.279 M368.085 245.213 C 368.085 246.927,368.163 247.340,368.484 247.340 C 368.750 247.340,368.883 247.074,368.883 246.543 C 368.883 245.549,369.454 245.489,369.958 246.430 C 370.363 247.187,371.277 247.817,371.277 247.339 C 371.277 247.182,371.025 246.713,370.718 246.297 C 370.188 245.580,370.182 245.507,370.604 244.863 C 371.307 243.789,370.780 243.085,369.273 243.085 L 368.085 243.085 368.085 245.213 M372.872 244.906 C 372.872 247.299,374.164 248.379,375.792 247.350 C 376.283 247.039,376.562 243.085,376.093 243.085 C 375.909 243.085,375.796 243.710,375.794 244.747 C 375.789 246.757,375.581 247.144,374.572 247.029 C 373.811 246.942,373.802 246.921,373.725 245.013 C 373.615 242.294,372.872 242.200,372.872 244.906 M378.191 245.213 C 378.191 246.454,378.302 247.340,378.457 247.340 C 378.604 247.340,378.723 246.802,378.723 246.144 C 378.723 245.485,378.791 244.947,378.874 244.947 C 379.230 244.947,380.053 245.520,380.053 245.768 C 380.053 245.918,380.406 246.417,380.838 246.879 C 381.842 247.953,381.994 247.605,381.684 244.947 C 381.488 243.261,381.447 243.148,381.417 244.215 C 381.373 245.850,380.882 245.872,379.878 244.282 C 378.669 242.369,378.191 242.633,378.191 245.213 M360.752 243.973 C 360.969 244.320,360.941 244.491,360.638 244.684 C 359.969 245.111,359.574 244.978,359.574 244.326 C 359.574 243.256,360.190 243.071,360.752 243.973 M370.061 243.981 C 370.284 244.345,370.236 244.527,369.841 244.821 C 369.218 245.283,368.883 245.105,368.883 244.311 C 368.883 243.251,369.507 243.076,370.061 243.981 " stroke="none" fill="#e9eff3" fill-rule="evenodd"></path></g></svg>