<svg id="svg" version="1.1" width="400" height="267.0731707317073" viewBox="0 0 400 267.0731707317073" xmlns="http://www.w3.org/2000/svg" xmlns:xlink="http://www.w3.org/1999/xlink" ><g id="svgg"><path id="path0" d="M176.154 55.051 C 175.437 55.339,174.485 56.813,174.483 57.636 C 174.481 59.176,175.292 59.835,178.223 60.674 C 180.220 61.246,180.694 62.074,179.500 62.911 C 178.229 63.801,176.379 63.343,175.823 62.001 C 175.312 60.768,174.482 60.896,174.482 62.208 C 174.482 63.968,175.637 64.796,178.090 64.796 C 182.305 64.796,183.392 59.858,179.329 59.166 C 176.282 58.648,175.413 57.828,176.670 56.657 C 177.579 55.810,178.439 55.967,179.564 57.186 C 180.756 58.477,181.587 58.437,181.320 57.101 C 180.945 55.227,178.314 54.183,176.154 55.051 M202.271 55.845 C 202.271 56.522,202.375 56.647,202.939 56.647 C 203.503 56.647,203.607 56.522,203.607 55.845 C 203.607 55.168,203.503 55.043,202.939 55.043 C 202.375 55.043,202.271 55.168,202.271 55.845 M183.793 58.051 C 181.020 60.395,182.623 65.290,186.018 64.847 C 187.742 64.622,189.306 62.842,188.325 62.220 C 187.802 61.889,187.653 61.933,186.985 62.620 C 186.059 63.573,185.535 63.652,184.730 62.960 C 183.689 62.064,184.103 61.723,186.233 61.723 C 189.061 61.723,189.401 61.357,188.523 59.257 C 187.765 57.442,185.267 56.805,183.793 58.051 M189.999 58.152 C 188.783 59.698,189.404 60.986,191.709 61.699 C 193.449 62.238,193.698 62.510,193.046 63.162 C 192.425 63.782,191.701 63.695,191.097 62.926 C 190.012 61.547,188.668 62.394,189.682 63.818 C 190.832 65.432,193.331 65.391,194.745 63.735 C 195.712 62.602,194.646 60.387,193.134 60.387 C 192.147 60.387,190.975 59.596,191.330 59.168 C 191.784 58.621,192.547 58.694,193.152 59.343 C 194.255 60.527,195.256 59.450,194.246 58.165 C 193.415 57.109,190.826 57.101,189.999 58.152 M196.386 58.124 C 194.943 59.660,195.548 60.923,198.125 61.756 C 199.696 62.264,199.950 63.010,198.702 63.449 C 198.027 63.686,197.869 63.632,197.355 62.988 C 196.624 62.070,195.587 61.994,195.600 62.859 C 195.644 65.847,201.178 65.492,201.196 62.500 C 201.204 61.301,200.660 60.782,198.825 60.237 C 197.774 59.925,197.450 59.710,197.514 59.370 C 197.646 58.678,198.759 58.655,199.478 59.330 C 200.181 59.991,200.935 59.875,200.935 59.106 C 200.935 57.491,197.648 56.781,196.386 58.124 M202.388 57.798 C 201.917 59.023,202.417 64.531,203.006 64.614 C 203.604 64.699,203.607 64.681,203.607 61.074 C 203.607 57.608,203.583 57.448,203.064 57.448 C 202.766 57.448,202.461 57.606,202.388 57.798 M205.678 58.123 C 202.353 61.448,206.511 67.174,209.957 64.015 C 211.354 62.735,211.470 59.624,210.170 58.267 C 209.091 57.141,206.735 57.065,205.678 58.123 M211.801 59.428 C 211.542 62.597,211.880 64.529,212.692 64.529 C 213.339 64.529,213.362 64.466,213.428 62.525 C 213.519 59.815,213.660 59.344,214.469 59.036 C 215.630 58.595,215.871 59.066,215.956 61.949 L 216.032 64.529 216.834 64.529 L 217.635 64.529 217.717 62.391 C 217.882 58.060,217.445 57.453,214.193 57.500 L 211.956 57.533 211.801 59.428 M186.516 59.328 C 187.256 60.069,186.967 60.387,185.555 60.387 C 184.557 60.387,184.369 60.305,184.369 59.866 C 184.369 58.825,185.684 58.496,186.516 59.328 M208.738 59.118 C 209.752 59.918,209.406 62.864,208.236 63.397 C 207.620 63.677,207.478 63.623,206.783 62.845 C 205.112 60.975,206.862 57.639,208.738 59.118 M152.725 77.414 C 150.449 77.995,151.133 81.224,153.532 81.228 C 154.319 81.230,155.072 82.095,154.652 82.515 C 154.143 83.024,152.884 82.896,152.510 82.298 C 151.895 81.313,150.818 81.674,151.288 82.707 C 151.932 84.119,154.561 84.254,155.696 82.933 C 156.674 81.794,155.967 80.665,153.908 80.078 C 153.009 79.823,152.705 79.604,152.705 79.213 C 152.705 78.497,153.693 78.397,154.630 79.018 C 155.041 79.291,155.618 79.641,155.912 79.798 C 156.335 80.022,156.474 80.437,156.580 81.791 L 156.713 83.500 158.049 83.592 C 161.426 83.825,163.006 83.626,162.511 83.030 C 162.352 82.838,162.184 81.963,162.139 81.086 L 162.057 79.492 160.767 79.410 C 159.547 79.332,158.717 79.653,158.717 80.201 C 158.717 80.694,159.552 80.752,159.894 80.284 C 160.118 79.978,160.412 79.871,160.713 79.986 C 161.361 80.235,160.796 80.901,159.842 81.013 C 159.372 81.068,158.998 81.364,158.726 81.897 C 158.501 82.338,158.280 82.755,158.235 82.825 C 158.031 83.140,157.656 82.065,157.653 81.154 C 157.650 80.487,157.789 80.090,158.061 79.985 C 158.415 79.849,158.421 79.766,158.102 79.393 C 157.897 79.153,157.655 78.747,157.564 78.490 C 157.341 77.860,156.830 77.898,156.657 78.557 C 156.474 79.257,155.862 79.242,155.637 78.533 C 155.539 78.225,155.054 77.805,154.559 77.598 C 153.620 77.205,153.566 77.200,152.725 77.414 M171.810 77.408 C 171.590 77.490,171.197 77.743,170.938 77.969 C 170.511 78.341,170.433 78.335,170.122 77.910 C 169.660 77.278,169.353 77.685,168.731 79.760 C 168.144 81.712,167.609 82.832,167.261 82.832 C 166.915 82.832,166.925 80.343,167.272 79.996 C 167.620 79.648,166.845 78.023,166.332 78.023 C 166.132 78.023,165.931 78.293,165.884 78.624 C 165.813 79.121,165.590 79.248,164.596 79.359 L 163.393 79.492 163.393 81.474 C 163.393 82.822,163.500 83.491,163.727 83.567 C 163.963 83.646,164.061 83.312,164.061 82.442 C 164.061 81.469,164.208 81.058,164.750 80.516 C 165.635 79.632,165.883 79.910,165.984 81.897 L 166.065 83.500 167.086 83.584 C 168.466 83.698,168.698 83.435,169.279 81.104 L 169.778 79.098 170.519 79.996 C 171.020 80.604,171.645 80.991,172.454 81.195 C 173.766 81.526,174.032 81.767,173.787 82.407 C 173.541 83.047,171.900 82.969,171.481 82.298 C 171.058 81.620,170.207 81.592,170.207 82.257 C 170.207 83.166,171.213 83.768,172.732 83.768 C 175.935 83.768,176.023 80.651,172.838 80.060 C 171.819 79.871,171.277 79.158,171.868 78.783 C 172.421 78.432,173.029 78.522,173.711 79.055 C 174.062 79.328,174.619 79.637,174.950 79.741 C 175.564 79.933,175.641 80.179,175.558 81.691 C 175.480 83.127,175.761 83.634,176.638 83.634 C 177.470 83.634,177.618 83.403,177.110 82.895 C 176.717 82.502,176.782 80.475,177.204 79.967 C 177.421 79.706,177.432 79.528,177.240 79.405 C 177.085 79.306,176.875 78.955,176.772 78.624 C 176.520 77.817,175.869 77.861,175.659 78.699 L 175.489 79.376 174.652 78.449 C 173.830 77.540,172.630 77.100,171.810 77.408 M213.609 77.841 C 213.243 78.794,213.628 83.494,214.079 83.581 C 214.437 83.649,214.547 83.428,214.613 82.515 C 214.753 80.573,217.234 80.773,217.234 82.727 C 217.234 83.553,217.309 83.660,217.836 83.586 C 218.260 83.525,218.417 83.342,218.369 82.966 C 218.332 82.672,218.298 81.535,218.293 80.438 C 218.282 77.778,218.016 77.488,215.581 77.488 C 214.305 77.488,213.703 77.596,213.609 77.841 M232.104 78.824 C 231.748 79.537,231.749 79.716,232.110 80.440 C 232.334 80.888,232.449 81.523,232.367 81.851 C 232.115 82.853,232.457 83.634,233.148 83.634 C 233.937 83.634,234.179 83.257,233.664 82.830 C 233.113 82.373,233.124 80.198,233.679 79.985 C 234.033 79.849,234.039 79.766,233.719 79.393 C 233.515 79.153,233.273 78.747,233.182 78.490 C 232.937 77.801,232.556 77.919,232.104 78.824 M216.927 78.794 C 217.696 79.281,217.151 80.023,215.961 80.109 C 214.774 80.195,214.334 79.805,214.659 78.958 C 214.827 78.519,216.323 78.411,216.927 78.794 M177.783 80.264 C 176.607 82.730,178.935 84.966,180.993 83.347 C 181.883 82.647,182.012 80.528,181.208 79.801 C 180.254 78.938,178.288 79.204,177.783 80.264 M182.289 82.365 C 182.365 85.364,182.868 86.534,183.298 84.712 C 183.412 84.230,183.693 84.004,184.341 83.871 C 187.281 83.270,186.805 79.359,183.793 79.359 L 182.214 79.359 182.289 82.365 M219.521 79.953 C 217.945 82.202,221.050 85.461,222.665 83.252 C 223.035 82.747,223.055 82.748,223.781 83.319 C 224.709 84.049,225.776 84.062,226.677 83.353 L 227.373 82.805 228.179 83.401 C 229.270 84.207,230.951 83.877,231.073 82.832 C 231.116 82.465,231.279 81.909,231.435 81.597 C 231.641 81.182,231.627 80.857,231.383 80.394 C 230.431 78.587,227.388 79.123,227.388 81.099 C 227.388 81.464,227.268 81.764,227.121 81.764 C 226.974 81.764,226.854 81.643,226.854 81.496 C 226.854 81.349,226.640 81.229,226.379 81.229 C 225.616 81.229,224.618 80.418,224.961 80.076 C 225.169 79.868,225.341 79.877,225.571 80.107 C 226.156 80.692,227.189 80.519,226.854 79.893 C 226.430 79.102,223.988 79.114,223.694 79.908 L 223.491 80.458 222.792 79.908 C 221.809 79.135,220.077 79.158,219.521 79.953 M180.526 80.858 C 180.820 82.029,180.437 82.832,179.585 82.832 C 178.844 82.832,178.506 82.355,178.494 81.296 C 178.481 80.073,180.234 79.695,180.526 80.858 M221.777 80.590 C 221.777 80.809,221.502 80.962,221.109 80.962 C 220.389 80.962,220.263 80.712,220.741 80.235 C 221.113 79.862,221.777 80.089,221.777 80.590 M230.060 80.577 C 230.060 80.809,229.796 80.962,229.392 80.962 C 228.626 80.962,228.463 80.259,229.192 80.093 C 229.799 79.955,230.060 80.100,230.060 80.577 M184.850 80.481 C 185.026 80.657,185.170 81.114,185.170 81.496 C 185.170 82.843,183.718 83.394,183.410 82.164 C 183.030 80.654,183.949 79.580,184.850 80.481 M225.101 82.117 C 225.836 82.458,226.049 82.669,225.806 82.819 C 225.378 83.084,224.449 82.867,224.449 82.503 C 224.449 82.356,224.222 82.295,223.944 82.368 C 223.160 82.573,222.878 82.257,223.165 81.496 C 223.381 80.924,223.462 80.886,223.733 81.229 C 223.906 81.450,224.522 81.849,225.101 82.117 M161.003 82.542 C 160.782 82.899,159.786 82.929,159.786 82.578 C 159.786 82.194,160.689 81.765,160.952 82.024 C 161.079 82.149,161.102 82.382,161.003 82.542 M221.874 82.432 C 221.789 82.652,221.432 82.832,221.080 82.832 C 220.690 82.832,220.441 82.676,220.441 82.432 C 220.441 82.165,220.707 82.031,221.234 82.031 C 221.829 82.031,221.989 82.131,221.874 82.432 M230.157 82.432 C 230.072 82.652,229.715 82.832,229.364 82.832 C 228.973 82.832,228.724 82.676,228.724 82.432 C 228.724 82.165,228.990 82.031,229.517 82.031 C 230.113 82.031,230.272 82.131,230.157 82.432 M139.212 107.339 C 134.170 108.231,129.886 113.982,129.864 119.885 C 129.857 121.793,129.923 121.844,132.360 121.840 C 135.053 121.835,135.084 121.813,135.290 119.792 C 135.802 114.774,138.338 112.224,142.819 112.224 C 148.479 112.224,151.788 117.265,149.397 122.244 C 148.234 124.666,146.921 125.768,140.949 129.330 C 133.701 133.653,131.681 135.698,130.114 140.300 C 129.337 142.583,128.742 146.755,129.156 147.023 C 129.789 147.434,155.150 147.262,155.496 146.845 C 155.850 146.418,155.819 143.371,155.453 142.619 C 155.242 142.185,154.477 142.151,145.081 142.151 C 138.237 142.151,134.937 142.061,134.937 141.873 C 134.937 140.043,138.641 136.346,142.819 134.007 C 153.531 128.009,155.646 125.562,155.643 119.172 L 155.642 115.832 154.586 113.694 C 151.965 108.387,146.365 106.072,139.212 107.339 M215.765 107.397 C 214.997 107.584,213.364 108.320,211.844 109.165 C 209.387 110.531,206.829 115.139,205.846 119.973 C 205.204 123.128,205.209 133.084,205.854 136.005 C 207.717 144.445,211.725 148.297,218.647 148.297 C 220.225 148.297,221.726 148.198,221.981 148.078 C 227.898 145.291,229.915 142.518,231.345 135.204 C 233.367 124.858,231.459 114.484,226.733 110.127 C 224.116 107.715,219.343 106.527,215.765 107.397 M246.359 107.380 C 241.524 108.455,237.845 113.121,236.431 119.973 C 235.934 122.378,235.935 133.974,236.432 136.005 C 238.505 144.485,242.087 148.055,248.719 148.253 C 251.862 148.347,252.179 148.283,254.854 147.020 C 257.337 145.848,260.266 141.945,261.115 138.677 C 262.344 133.951,262.648 131.670,262.648 127.188 C 262.650 114.380,258.329 107.638,249.892 107.282 C 248.463 107.222,246.874 107.266,246.359 107.380 M163.851 108.267 C 163.673 108.445,163.527 109.038,163.527 109.585 C 163.527 110.133,163.411 111.161,163.270 111.870 C 162.298 116.750,160.827 129.104,161.169 129.516 C 161.352 129.736,162.126 129.860,163.324 129.860 L 165.192 129.860 166.741 128.426 C 174.989 120.790,185.639 132.957,178.055 141.352 C 174.587 145.191,167.202 143.945,165.434 139.223 C 165.267 138.776,164.994 138.045,164.827 137.599 L 164.523 136.788 162.088 136.864 L 159.653 136.941 159.706 138.487 C 160.064 148.976,177.751 152.181,183.674 142.830 C 188.942 134.512,186.166 125.177,177.422 121.804 C 175.151 120.928,169.295 121.464,167.467 122.714 C 166.220 123.568,166.212 123.190,167.332 115.698 C 167.763 112.813,167.029 113.044,176.048 112.963 L 183.968 112.892 183.968 110.488 L 183.968 108.083 174.071 108.013 C 166.597 107.960,164.095 108.022,163.851 108.267 M221.554 112.727 C 223.976 113.777,224.896 115.547,226.054 121.382 C 227.306 127.691,225.926 138.238,223.484 141.031 C 219.494 145.591,214.649 144.154,211.947 137.609 C 210.839 134.926,210.537 124.396,211.456 120.508 C 211.716 119.405,212.000 118.207,212.086 117.845 C 213.107 113.539,217.702 111.055,221.554 112.727 M251.871 112.656 C 254.079 113.576,255.215 115.102,255.928 118.103 C 256.084 118.764,256.289 119.606,256.383 119.973 C 257.766 125.416,256.859 137.243,254.837 140.129 C 251.893 144.331,246.658 144.693,244.165 140.869 C 242.167 137.802,241.501 134.542,241.510 127.855 C 241.515 123.238,241.630 122.107,242.402 119.038 C 243.768 113.605,247.735 110.931,251.871 112.656 M194.641 117.911 C 194.565 118.110,194.537 119.527,194.579 121.060 L 194.656 123.848 197.328 123.848 L 200.000 123.848 200.000 120.775 L 200.000 117.702 197.390 117.626 C 195.387 117.567,194.748 117.633,194.641 117.911 M194.641 141.157 C 194.565 141.356,194.537 142.773,194.579 144.307 L 194.656 147.094 197.328 147.094 L 200.000 147.094 200.000 144.021 L 200.000 140.949 197.390 140.872 C 195.387 140.813,194.748 140.880,194.641 141.157 M155.556 170.900 C 154.585 171.580,154.817 173.451,155.912 173.773 C 157.503 174.242,158.450 174.748,158.450 175.130 C 158.450 176.050,156.462 176.195,155.758 175.326 C 155.177 174.608,154.709 174.584,154.709 175.273 C 154.709 176.707,157.770 177.547,158.810 176.398 C 159.685 175.431,159.141 173.413,158.004 173.413 C 157.499 173.413,155.777 172.613,155.782 172.381 C 155.807 171.354,157.395 171.173,158.161 172.111 C 158.758 172.842,159.326 172.552,159.087 171.638 C 158.801 170.545,156.692 170.105,155.556 170.900 M213.609 171.095 C 213.534 171.289,213.508 172.641,213.550 174.101 L 213.627 176.754 215.249 176.832 C 217.578 176.944,218.838 175.701,217.987 174.131 C 217.813 173.810,217.703 173.090,217.741 172.531 C 217.780 171.973,217.667 171.342,217.490 171.129 C 217.061 170.611,213.805 170.583,213.609 171.095 M230.518 170.942 C 230.308 171.331,230.528 176.488,230.760 176.620 C 230.889 176.693,231.036 176.453,231.085 176.086 C 231.239 174.933,231.590 174.907,232.568 175.974 C 233.727 177.240,234.122 176.976,233.325 175.470 C 232.600 174.103,232.600 174.067,233.274 173.209 C 234.083 172.182,233.506 171.829,232.458 172.710 C 231.407 173.594,231.129 173.431,231.129 171.928 C 231.129 170.876,230.821 170.380,230.518 170.942 M216.652 172.275 C 216.712 172.702,216.544 172.962,216.067 173.179 C 215.107 173.617,214.562 173.312,214.562 172.337 C 214.562 171.252,216.498 171.195,216.652 172.275 M160.503 172.946 C 158.595 175.509,161.179 178.415,163.472 176.286 L 164.120 175.685 164.524 176.286 C 165.137 177.198,167.158 177.153,167.584 176.219 C 167.959 175.395,168.136 175.382,168.474 176.152 C 168.825 176.952,170.809 177.151,171.570 176.462 C 172.642 175.492,171.986 174.487,169.856 173.833 C 169.590 173.751,169.446 173.563,169.538 173.415 C 169.778 173.027,170.374 173.085,170.829 173.540 C 171.176 173.886,171.265 173.882,171.575 173.509 C 172.421 172.489,169.684 171.566,168.779 172.566 C 167.872 173.568,168.819 175.017,170.382 175.017 C 170.580 175.017,170.741 175.197,170.741 175.418 C 170.741 175.872,169.538 175.981,169.272 175.551 C 169.181 175.404,168.880 175.284,168.602 175.284 C 168.324 175.284,167.773 174.983,167.376 174.616 C 166.980 174.248,166.362 173.948,166.004 173.948 C 165.599 173.948,165.397 173.821,165.469 173.614 C 165.594 173.254,166.315 173.220,167.067 173.540 C 167.742 173.826,167.696 172.717,167.018 172.354 C 166.160 171.895,165.408 172.039,164.705 172.797 L 164.038 173.517 163.371 172.797 C 162.420 171.772,161.335 171.828,160.503 172.946 M172.789 172.274 C 172.559 172.647,172.449 176.278,172.661 176.491 C 173.118 176.947,173.413 176.174,173.409 174.533 C 173.405 172.807,173.115 171.747,172.789 172.274 M174.939 172.551 C 173.429 174.219,174.143 176.887,176.099 176.887 C 177.397 176.887,178.223 175.942,178.223 174.458 C 178.223 172.582,176.051 171.321,174.939 172.551 M179.513 172.267 C 178.676 172.395,178.316 173.726,178.624 175.551 C 178.961 177.549,179.724 176.824,179.889 174.349 C 180.014 172.462,181.162 172.640,181.162 174.546 C 181.162 175.340,181.326 176.207,181.528 176.483 C 182.141 177.322,182.597 176.113,182.365 174.260 C 182.112 172.236,181.681 171.935,179.513 172.267 M218.974 172.567 C 218.784 173.062,218.803 175.951,218.999 176.463 C 219.294 177.230,219.639 176.608,219.639 175.310 C 219.639 173.990,220.176 173.146,221.016 173.146 C 221.318 173.146,221.410 173.463,221.396 174.454 C 221.372 176.067,221.996 176.887,223.246 176.887 C 224.463 176.887,224.917 176.232,224.951 174.430 C 224.989 172.412,223.364 171.210,222.311 172.478 C 221.907 172.966,221.327 173.000,221.175 172.545 C 221.024 172.093,219.149 172.112,218.974 172.567 M226.453 172.517 C 226.163 172.806,226.070 173.181,226.179 173.617 C 226.290 174.058,226.189 174.451,225.874 174.799 C 224.911 175.863,225.855 176.743,228.030 176.810 L 229.855 176.866 229.691 176.041 C 229.600 175.588,229.526 174.751,229.526 174.182 C 229.526 172.396,227.611 171.359,226.453 172.517 M162.303 173.308 C 162.947 173.556,162.807 173.948,162.073 173.948 C 161.346 173.948,160.935 173.533,161.455 173.324 C 161.639 173.249,161.810 173.179,161.835 173.167 C 161.860 173.156,162.070 173.219,162.303 173.308 M176.834 173.467 C 177.188 173.822,177.256 174.979,176.950 175.458 C 176.439 176.257,175.017 175.801,175.017 174.837 C 175.017 173.429,176.031 172.664,176.834 173.467 M223.848 173.614 C 223.918 173.824,223.702 173.948,223.269 173.948 C 222.594 173.948,222.390 173.691,222.766 173.315 C 223.041 173.040,223.719 173.228,223.848 173.614 M228.123 173.614 C 228.193 173.824,227.977 173.948,227.544 173.948 C 226.870 173.948,226.665 173.691,227.041 173.315 C 227.316 173.040,227.994 173.228,228.123 173.614 M216.689 174.336 C 217.319 175.094,216.914 175.685,215.765 175.685 C 214.674 175.685,214.316 175.244,214.665 174.333 C 214.857 173.832,216.273 173.834,216.689 174.336 M165.188 174.596 C 165.671 174.806,166.297 175.051,166.581 175.141 C 167.055 175.291,167.061 175.338,166.663 175.736 C 166.265 176.134,166.178 176.133,165.556 175.726 C 165.185 175.483,164.657 175.284,164.383 175.284 C 163.695 175.284,163.475 175.001,163.829 174.574 C 164.194 174.135,164.123 174.134,165.188 174.596 M228.190 175.433 C 228.190 175.666,227.925 175.818,227.522 175.818 C 226.755 175.818,226.593 175.115,227.321 174.950 C 227.929 174.812,228.190 174.957,228.190 175.433 M162.792 175.418 C 162.693 175.815,161.319 175.741,161.183 175.332 C 161.097 175.076,161.311 175.002,161.962 175.064 C 162.455 175.112,162.829 175.271,162.792 175.418 M224.115 175.351 C 223.984 175.744,223.249 175.928,222.680 175.709 C 222.047 175.466,222.526 175.017,223.418 175.017 C 223.946 175.017,224.188 175.133,224.115 175.351 M164.882 186.943 C 164.578 187.330,164.329 187.811,164.329 188.012 C 164.329 188.567,165.050 188.447,165.490 187.820 C 166.002 187.089,167.102 187.216,167.217 188.019 C 167.278 188.449,166.989 188.810,166.085 189.432 C 163.578 191.157,163.647 192.169,166.266 192.062 C 168.333 191.979,168.835 191.507,167.005 191.367 C 165.872 191.281,165.502 190.649,166.399 190.333 C 167.324 190.008,168.337 188.825,168.337 188.070 C 168.337 186.360,165.953 185.583,164.882 186.943 M169.539 186.507 C 168.666 187.919,169.102 190.252,170.086 189.435 C 170.605 189.005,171.810 189.575,171.810 190.251 C 171.810 191.293,170.812 191.735,169.930 191.084 C 169.204 190.547,169.114 190.534,168.956 190.946 C 168.728 191.539,169.761 192.385,170.712 192.385 C 173.147 192.385,173.422 188.665,171.011 188.334 C 169.825 188.172,169.993 187.308,171.212 187.308 C 172.382 187.308,172.641 187.160,172.431 186.614 C 172.262 186.174,169.801 186.083,169.539 186.507 M222.227 186.440 C 222.163 186.550,222.027 187.331,221.925 188.176 C 221.728 189.795,221.860 189.973,222.857 189.439 C 223.540 189.074,224.449 189.642,224.449 190.436 C 224.449 191.416,223.467 191.748,222.557 191.075 C 221.626 190.387,221.510 190.380,221.510 191.016 C 221.510 192.336,223.808 192.816,224.833 191.710 C 226.078 190.366,225.365 188.377,223.637 188.377 C 223.024 188.377,222.846 188.256,222.846 187.842 C 222.846 187.397,223.024 187.308,223.914 187.308 C 224.805 187.308,224.983 187.219,224.983 186.774 C 224.983 186.228,222.522 185.930,222.227 186.440 M150.047 188.159 C 149.983 188.352,149.893 188.751,149.846 189.045 C 149.789 189.405,149.518 189.607,149.013 189.665 C 148.131 189.767,148.190 190.300,149.108 190.517 C 149.493 190.608,149.807 190.921,149.897 191.306 C 150.109 192.202,150.701 192.330,150.701 191.479 C 150.701 190.934,150.875 190.752,151.570 190.572 C 152.047 190.448,152.438 190.242,152.438 190.114 C 152.438 189.985,152.047 189.779,151.570 189.655 C 150.892 189.480,150.701 189.289,150.701 188.786 C 150.701 188.067,150.228 187.613,150.047 188.159 M204.893 188.710 C 204.823 189.435,204.681 189.599,204.023 189.712 C 202.998 189.887,202.989 190.338,204.008 190.513 C 204.647 190.623,204.827 190.803,204.896 191.400 C 204.989 192.215,205.520 192.259,205.637 191.462 C 205.720 190.894,206.207 190.524,206.880 190.518 C 207.652 190.512,207.416 189.756,206.613 189.664 C 206.046 189.598,205.820 189.381,205.623 188.711 C 205.297 187.603,205.000 187.602,204.893 188.710 M186.069 189.579 C 185.831 190.199,186.250 190.497,187.121 190.327 C 187.625 190.228,187.842 190.038,187.786 189.746 C 187.672 189.143,186.287 189.009,186.069 189.579 M240.904 189.617 C 240.694 190.165,240.798 190.270,241.640 190.363 C 242.518 190.459,243.005 190.141,242.799 189.606 C 242.578 189.028,241.127 189.037,240.904 189.617 " stroke="none" fill="#ffffff" fill-rule="evenodd"></path><path id="path1" d="M0.000 133.601 L 0.000 267.201 200.000 267.201 L 400.000 267.201 400.000 133.601 L 400.000 0.000 200.000 0.000 L 0.000 0.000 0.000 133.601 M179.635 55.136 C 180.698 55.580,181.113 56.064,181.320 57.101 C 181.587 58.437,180.756 58.477,179.564 57.186 C 178.439 55.967,177.579 55.810,176.670 56.657 C 175.413 57.828,176.282 58.648,179.329 59.166 C 181.679 59.566,182.579 62.381,180.878 64.011 C 178.860 65.944,174.482 64.710,174.482 62.208 C 174.482 60.896,175.312 60.768,175.823 62.001 C 176.379 63.343,178.229 63.801,179.500 62.911 C 180.694 62.074,180.220 61.246,178.223 60.674 C 176.068 60.057,175.083 59.544,174.780 58.879 C 173.551 56.180,176.568 53.854,179.635 55.136 M203.607 55.845 C 203.607 56.522,203.503 56.647,202.939 56.647 C 202.375 56.647,202.271 56.522,202.271 55.845 C 202.271 55.168,202.375 55.043,202.939 55.043 C 203.503 55.043,203.607 55.168,203.607 55.845 M187.464 57.888 C 188.658 58.671,189.370 61.223,188.489 61.561 C 188.256 61.650,187.241 61.723,186.233 61.723 C 184.103 61.723,183.689 62.064,184.730 62.960 C 185.535 63.652,186.059 63.573,186.985 62.620 C 187.653 61.933,187.802 61.889,188.325 62.220 C 189.306 62.842,187.742 64.622,186.018 64.847 C 183.855 65.130,182.501 63.741,182.499 61.238 C 182.497 58.164,185.151 56.373,187.464 57.888 M194.246 58.165 C 195.256 59.450,194.255 60.527,193.152 59.343 C 192.547 58.694,191.784 58.621,191.330 59.168 C 190.975 59.596,192.147 60.387,193.134 60.387 C 194.646 60.387,195.712 62.602,194.745 63.735 C 193.331 65.391,190.832 65.432,189.682 63.818 C 188.668 62.394,190.012 61.547,191.097 62.926 C 191.701 63.695,192.425 63.782,193.046 63.162 C 193.698 62.510,193.449 62.238,191.709 61.699 C 189.404 60.986,188.783 59.698,189.999 58.152 C 190.826 57.101,193.415 57.109,194.246 58.165 M200.317 58.029 C 200.657 58.349,200.935 58.833,200.935 59.106 C 200.935 59.875,200.181 59.991,199.478 59.330 C 198.759 58.655,197.646 58.678,197.514 59.370 C 197.450 59.710,197.774 59.925,198.825 60.237 C 201.199 60.942,201.936 62.490,200.677 64.128 C 199.457 65.716,195.628 64.759,195.600 62.859 C 195.587 61.994,196.624 62.070,197.355 62.988 C 197.869 63.632,198.027 63.686,198.702 63.449 C 199.950 63.010,199.696 62.264,198.125 61.756 C 196.048 61.085,195.752 60.834,195.752 59.753 C 195.752 57.655,198.724 56.533,200.317 58.029 M203.607 61.074 C 203.607 64.681,203.604 64.699,203.006 64.614 C 201.901 64.457,201.958 57.448,203.064 57.448 C 203.583 57.448,203.607 57.608,203.607 61.074 M210.170 58.267 C 211.470 59.624,211.354 62.735,209.957 64.015 C 207.260 66.487,203.746 63.791,204.705 59.984 C 205.363 57.371,208.398 56.418,210.170 58.267 M216.963 58.039 C 217.648 58.775,217.818 59.753,217.717 62.391 L 217.635 64.529 216.834 64.529 L 216.032 64.529 215.956 61.949 C 215.871 59.066,215.630 58.595,214.469 59.036 C 213.660 59.344,213.519 59.815,213.428 62.525 C 213.362 64.466,213.339 64.529,212.692 64.529 C 211.880 64.529,211.542 62.597,211.801 59.428 L 211.956 57.533 214.193 57.500 C 216.159 57.472,216.495 57.537,216.963 58.039 M184.836 59.073 C 183.856 59.644,184.263 60.387,185.555 60.387 C 186.967 60.387,187.256 60.069,186.516 59.328 C 185.913 58.725,185.533 58.667,184.836 59.073 M207.142 58.963 C 205.940 59.447,205.734 61.671,206.783 62.845 C 208.144 64.369,209.625 62.910,209.286 60.379 C 209.110 59.068,208.267 58.511,207.142 58.963 M154.559 77.598 C 155.054 77.805,155.539 78.225,155.637 78.533 C 155.862 79.242,156.474 79.257,156.657 78.557 C 156.830 77.898,157.341 77.860,157.564 78.490 C 157.655 78.747,157.897 79.153,158.102 79.393 C 158.421 79.766,158.415 79.849,158.061 79.985 C 157.789 80.090,157.650 80.487,157.653 81.154 C 157.656 82.065,158.031 83.140,158.235 82.825 C 158.280 82.755,158.501 82.338,158.726 81.897 C 158.998 81.364,159.372 81.068,159.842 81.013 C 160.796 80.901,161.361 80.235,160.713 79.986 C 160.412 79.871,160.118 79.978,159.894 80.284 C 159.552 80.752,158.717 80.694,158.717 80.201 C 158.717 79.653,159.547 79.332,160.767 79.410 L 162.057 79.492 162.139 81.086 C 162.184 81.963,162.352 82.838,162.511 83.030 C 163.006 83.626,161.426 83.825,158.049 83.592 L 156.713 83.500 156.580 81.791 C 156.474 80.437,156.335 80.022,155.912 79.798 C 155.618 79.641,155.041 79.291,154.630 79.018 C 153.693 78.397,152.705 78.497,152.705 79.213 C 152.705 79.604,153.009 79.823,153.908 80.078 C 155.967 80.665,156.674 81.794,155.696 82.933 C 154.561 84.254,151.932 84.119,151.288 82.707 C 150.818 81.674,151.895 81.313,152.510 82.298 C 152.884 82.896,154.143 83.024,154.652 82.515 C 155.072 82.095,154.319 81.230,153.532 81.228 C 150.633 81.223,150.559 77.681,153.449 77.252 C 153.564 77.235,154.063 77.390,154.559 77.598 M174.652 78.449 L 175.489 79.376 175.659 78.699 C 175.869 77.861,176.520 77.817,176.772 78.624 C 176.875 78.955,177.085 79.306,177.240 79.405 C 177.432 79.528,177.421 79.706,177.204 79.967 C 176.782 80.475,176.717 82.502,177.110 82.895 C 177.618 83.403,177.470 83.634,176.638 83.634 C 175.761 83.634,175.480 83.127,175.558 81.691 C 175.641 80.179,175.564 79.933,174.950 79.741 C 174.619 79.637,174.062 79.328,173.711 79.055 C 173.029 78.522,172.421 78.432,171.868 78.783 C 171.277 79.158,171.819 79.871,172.838 80.060 C 176.023 80.651,175.935 83.768,172.732 83.768 C 171.213 83.768,170.207 83.166,170.207 82.257 C 170.207 81.592,171.058 81.620,171.481 82.298 C 171.900 82.969,173.541 83.047,173.787 82.407 C 174.032 81.767,173.766 81.526,172.454 81.195 C 171.645 80.991,171.020 80.604,170.519 79.996 L 169.778 79.098 169.279 81.104 C 168.698 83.435,168.466 83.698,167.086 83.584 L 166.065 83.500 165.984 81.897 C 165.883 79.910,165.635 79.632,164.750 80.516 C 164.208 81.058,164.061 81.469,164.061 82.442 C 164.061 83.312,163.963 83.646,163.727 83.567 C 163.500 83.491,163.393 82.822,163.393 81.474 L 163.393 79.492 164.596 79.359 C 165.590 79.248,165.813 79.121,165.884 78.624 C 165.931 78.293,166.132 78.023,166.332 78.023 C 166.845 78.023,167.620 79.648,167.272 79.996 C 166.925 80.343,166.915 82.832,167.261 82.832 C 167.609 82.832,168.144 81.712,168.731 79.760 C 169.353 77.685,169.660 77.278,170.122 77.910 C 170.433 78.335,170.511 78.341,170.938 77.969 C 172.089 76.965,173.472 77.144,174.652 78.449 M217.852 77.967 C 218.168 78.316,218.287 78.985,218.293 80.438 C 218.298 81.535,218.332 82.672,218.369 82.966 C 218.417 83.342,218.260 83.525,217.836 83.586 C 217.309 83.660,217.234 83.553,217.234 82.727 C 217.234 80.773,214.753 80.573,214.613 82.515 C 214.547 83.428,214.437 83.649,214.079 83.581 C 213.628 83.494,213.243 78.794,213.609 77.841 C 213.831 77.261,217.306 77.364,217.852 77.967 M233.182 78.490 C 233.273 78.747,233.515 79.153,233.719 79.393 C 234.039 79.766,234.033 79.849,233.679 79.985 C 233.124 80.198,233.113 82.373,233.664 82.830 C 234.179 83.257,233.937 83.634,233.148 83.634 C 232.457 83.634,232.115 82.853,232.367 81.851 C 232.449 81.523,232.334 80.888,232.110 80.440 C 231.749 79.716,231.748 79.537,232.104 78.824 C 232.556 77.919,232.937 77.801,233.182 78.490 M214.659 78.958 C 214.334 79.805,214.774 80.195,215.961 80.109 C 217.151 80.023,217.696 79.281,216.927 78.794 C 216.323 78.411,214.827 78.519,214.659 78.958 M181.208 79.801 C 182.012 80.528,181.883 82.647,180.993 83.347 C 178.935 84.966,176.607 82.730,177.783 80.264 C 178.288 79.204,180.254 78.938,181.208 79.801 M185.739 79.801 C 186.823 81.107,185.990 83.534,184.341 83.871 C 183.693 84.004,183.412 84.230,183.298 84.712 C 182.868 86.534,182.365 85.364,182.289 82.365 L 182.214 79.359 183.793 79.359 C 184.936 79.359,185.473 79.481,185.739 79.801 M222.792 79.908 L 223.491 80.458 223.694 79.908 C 223.988 79.114,226.430 79.102,226.854 79.893 C 227.189 80.519,226.156 80.692,225.571 80.107 C 225.341 79.877,225.169 79.868,224.961 80.076 C 224.618 80.418,225.616 81.229,226.379 81.229 C 226.640 81.229,226.854 81.349,226.854 81.496 C 226.854 81.643,226.974 81.764,227.121 81.764 C 227.268 81.764,227.388 81.464,227.388 81.099 C 227.388 79.123,230.431 78.587,231.383 80.394 C 231.627 80.857,231.641 81.182,231.435 81.597 C 231.279 81.909,231.116 82.465,231.073 82.832 C 230.951 83.877,229.270 84.207,228.179 83.401 L 227.373 82.805 226.677 83.353 C 225.776 84.062,224.709 84.049,223.781 83.319 C 223.055 82.748,223.035 82.747,222.665 83.252 C 222.128 83.986,220.085 83.974,219.526 83.233 C 217.789 80.935,220.539 78.136,222.792 79.908 M179.019 80.434 C 178.457 80.995,178.402 81.272,178.659 82.231 C 178.900 83.130,180.288 83.080,180.518 82.164 C 180.918 80.571,179.973 79.479,179.019 80.434 M220.741 80.235 C 220.263 80.712,220.389 80.962,221.109 80.962 C 221.502 80.962,221.777 80.809,221.777 80.590 C 221.777 80.089,221.113 79.862,220.741 80.235 M229.192 80.093 C 228.463 80.259,228.626 80.962,229.392 80.962 C 229.796 80.962,230.060 80.809,230.060 80.577 C 230.060 80.100,229.799 79.955,229.192 80.093 M183.410 80.828 C 183.164 81.806,183.494 82.832,184.053 82.832 C 184.729 82.832,185.170 82.305,185.170 81.496 C 185.170 80.150,183.718 79.599,183.410 80.828 M223.165 81.496 C 222.878 82.257,223.160 82.573,223.944 82.368 C 224.222 82.295,224.449 82.356,224.449 82.503 C 224.449 82.867,225.378 83.084,225.806 82.819 C 226.049 82.669,225.836 82.458,225.101 82.117 C 224.522 81.849,223.906 81.450,223.733 81.229 C 223.462 80.886,223.381 80.924,223.165 81.496 M160.254 82.061 C 159.997 82.206,159.786 82.439,159.786 82.578 C 159.786 82.929,160.782 82.899,161.003 82.542 C 161.281 82.091,160.775 81.766,160.254 82.061 M220.441 82.432 C 220.441 82.676,220.690 82.832,221.080 82.832 C 221.432 82.832,221.789 82.652,221.874 82.432 C 221.989 82.131,221.829 82.031,221.234 82.031 C 220.707 82.031,220.441 82.165,220.441 82.432 M228.724 82.432 C 228.724 82.676,228.973 82.832,229.364 82.832 C 229.715 82.832,230.072 82.652,230.157 82.432 C 230.272 82.131,230.113 82.031,229.517 82.031 C 228.990 82.031,228.724 82.165,228.724 82.432 M147.313 107.547 C 150.700 108.429,152.908 110.295,154.586 113.694 L 155.642 115.832 155.643 119.172 C 155.646 125.562,153.531 128.009,142.819 134.007 C 138.641 136.346,134.937 140.043,134.937 141.873 C 134.937 142.061,138.237 142.151,145.081 142.151 C 154.477 142.151,155.242 142.185,155.453 142.619 C 155.819 143.371,155.850 146.418,155.496 146.845 C 155.150 147.262,129.789 147.434,129.156 147.023 C 128.742 146.755,129.337 142.583,130.114 140.300 C 131.681 135.698,133.701 133.653,140.949 129.330 C 146.921 125.768,148.234 124.666,149.397 122.244 C 151.788 117.265,148.479 112.224,142.819 112.224 C 138.338 112.224,135.802 114.774,135.290 119.792 C 135.084 121.813,135.053 121.835,132.360 121.840 C 129.923 121.844,129.857 121.793,129.864 119.885 C 129.886 113.982,134.170 108.231,139.212 107.339 C 140.885 107.042,145.867 107.171,147.313 107.547 M221.253 107.417 C 229.111 108.907,233.767 119.813,231.859 132.257 C 230.369 141.971,228.462 145.026,221.981 148.078 C 221.726 148.198,220.225 148.297,218.647 148.297 C 211.725 148.297,207.717 144.445,205.854 136.005 C 205.209 133.084,205.204 123.128,205.846 119.973 C 206.829 115.139,209.387 110.531,211.844 109.165 C 215.423 107.176,217.726 106.748,221.253 107.417 M254.454 108.299 C 260.048 110.884,262.649 116.880,262.648 127.188 C 262.648 131.670,262.344 133.951,261.115 138.677 C 260.266 141.945,257.337 145.848,254.854 147.020 C 252.179 148.283,251.862 148.347,248.719 148.253 C 242.087 148.055,238.505 144.485,236.432 136.005 C 235.935 133.974,235.934 122.378,236.431 119.973 C 237.845 113.121,241.524 108.455,246.359 107.380 C 248.534 106.897,252.359 107.331,254.454 108.299 M183.968 110.488 L 183.968 112.892 176.048 112.963 C 167.029 113.044,167.763 112.813,167.332 115.698 C 166.212 123.190,166.220 123.568,167.467 122.714 C 169.295 121.464,175.151 120.928,177.422 121.804 C 186.166 125.177,188.942 134.512,183.674 142.830 C 177.751 152.181,160.064 148.976,159.706 138.487 L 159.653 136.941 162.088 136.864 L 164.523 136.788 164.827 137.599 C 164.994 138.045,165.267 138.776,165.434 139.223 C 167.202 143.945,174.587 145.191,178.055 141.352 C 185.639 132.957,174.989 120.790,166.741 128.426 L 165.192 129.860 163.324 129.860 C 162.126 129.860,161.352 129.736,161.169 129.516 C 160.827 129.104,162.298 116.750,163.270 111.870 C 163.411 111.161,163.527 110.133,163.527 109.585 C 163.527 107.887,163.197 107.936,174.071 108.013 L 183.968 108.083 183.968 110.488 M216.055 112.767 C 214.344 113.621,212.540 115.929,212.086 117.845 C 212.000 118.207,211.716 119.405,211.456 120.508 C 210.537 124.396,210.839 134.926,211.947 137.609 C 213.745 141.964,215.461 143.487,218.570 143.487 C 223.883 143.487,226.336 138.560,226.353 127.852 C 226.360 123.073,226.221 121.761,225.321 118.103 C 224.097 113.136,220.021 110.788,216.055 112.767 M246.554 112.866 C 244.601 113.823,243.183 115.931,242.402 119.038 C 241.630 122.107,241.515 123.238,241.510 127.855 C 241.501 134.542,242.167 137.802,244.165 140.869 C 246.658 144.693,251.893 144.331,254.837 140.129 C 256.859 137.243,257.766 125.416,256.383 119.973 C 256.289 119.606,256.084 118.764,255.928 118.103 C 254.744 113.117,250.678 110.845,246.554 112.866 M200.000 120.775 L 200.000 123.848 197.328 123.848 L 194.656 123.848 194.579 121.060 C 194.476 117.314,194.296 117.535,197.390 117.626 L 200.000 117.702 200.000 120.775 M200.000 144.021 L 200.000 147.094 197.328 147.094 L 194.656 147.094 194.579 144.307 C 194.476 140.560,194.296 140.781,197.390 140.872 L 200.000 140.949 200.000 144.021 M158.281 170.774 C 159.011 171.106,159.387 172.052,158.957 172.474 C 158.768 172.659,158.515 172.544,158.161 172.111 C 157.395 171.173,155.807 171.354,155.782 172.381 C 155.777 172.613,157.499 173.413,158.004 173.413 C 159.141 173.413,159.685 175.431,158.810 176.398 C 157.770 177.547,154.709 176.707,154.709 175.273 C 154.709 174.584,155.177 174.608,155.758 175.326 C 156.462 176.195,158.450 176.050,158.450 175.130 C 158.450 174.748,157.503 174.242,155.912 173.773 C 155.209 173.566,155.100 173.401,155.029 172.432 C 154.906 170.742,156.466 169.947,158.281 170.774 M217.490 171.129 C 217.667 171.342,217.780 171.973,217.741 172.531 C 217.703 173.090,217.813 173.810,217.987 174.131 C 218.838 175.701,217.578 176.944,215.249 176.832 L 213.627 176.754 213.550 174.101 C 213.508 172.641,213.534 171.289,213.609 171.095 C 213.805 170.583,217.061 170.611,217.490 171.129 M231.129 171.928 C 231.129 173.431,231.407 173.594,232.458 172.710 C 233.506 171.829,234.083 172.182,233.274 173.209 C 232.600 174.067,232.600 174.103,233.325 175.470 C 234.122 176.976,233.727 177.240,232.568 175.974 C 231.590 174.907,231.239 174.933,231.085 176.086 C 231.036 176.453,230.889 176.693,230.760 176.620 C 230.528 176.488,230.308 171.331,230.518 170.942 C 230.821 170.380,231.129 170.876,231.129 171.928 M214.562 172.337 C 214.562 173.312,215.107 173.617,216.067 173.179 C 217.151 172.685,216.838 171.699,215.564 171.594 C 214.605 171.514,214.562 171.546,214.562 172.337 M163.371 172.797 L 164.038 173.517 164.705 172.797 C 165.408 172.039,166.160 171.895,167.018 172.354 C 167.696 172.717,167.742 173.826,167.067 173.540 C 166.315 173.220,165.594 173.254,165.469 173.614 C 165.397 173.821,165.599 173.948,166.004 173.948 C 166.362 173.948,166.980 174.248,167.376 174.616 C 167.773 174.983,168.324 175.284,168.602 175.284 C 168.880 175.284,169.181 175.404,169.272 175.551 C 169.538 175.981,170.741 175.872,170.741 175.418 C 170.741 175.197,170.580 175.017,170.382 175.017 C 168.819 175.017,167.872 173.568,168.779 172.566 C 169.684 171.566,172.421 172.489,171.575 173.509 C 171.265 173.882,171.176 173.886,170.829 173.540 C 170.374 173.085,169.778 173.027,169.538 173.415 C 169.446 173.563,169.590 173.751,169.856 173.833 C 171.986 174.487,172.642 175.492,171.570 176.462 C 170.809 177.151,168.825 176.952,168.474 176.152 C 168.136 175.382,167.959 175.395,167.584 176.219 C 167.158 177.153,165.137 177.198,164.524 176.286 L 164.120 175.685 163.472 176.286 C 162.026 177.629,159.251 176.369,159.679 174.564 C 160.218 172.288,162.075 171.399,163.371 172.797 M173.409 174.533 C 173.413 176.174,173.118 176.947,172.661 176.491 C 172.449 176.278,172.559 172.647,172.789 172.274 C 173.115 171.747,173.405 172.807,173.409 174.533 M177.543 172.758 C 179.014 174.229,178.084 176.887,176.099 176.887 C 174.949 176.887,174.647 176.620,174.281 175.278 C 173.617 172.843,175.880 171.095,177.543 172.758 M181.737 172.430 C 182.336 172.886,182.664 175.544,182.223 176.368 C 181.718 177.312,181.162 176.357,181.162 174.546 C 181.162 172.640,180.014 172.462,179.889 174.349 C 179.724 176.824,178.961 177.549,178.624 175.551 C 178.316 173.726,178.676 172.395,179.513 172.267 C 180.852 172.062,181.296 172.094,181.737 172.430 M221.175 172.545 C 221.327 173.000,221.907 172.966,222.311 172.478 C 223.364 171.210,224.989 172.412,224.951 174.430 C 224.917 176.232,224.463 176.887,223.246 176.887 C 221.996 176.887,221.372 176.067,221.396 174.454 C 221.410 173.463,221.318 173.146,221.016 173.146 C 220.176 173.146,219.639 173.990,219.639 175.310 C 219.639 176.608,219.294 177.230,218.999 176.463 C 218.803 175.951,218.784 173.062,218.974 172.567 C 219.149 172.112,221.024 172.093,221.175 172.545 M228.991 172.612 C 229.342 172.962,229.526 173.503,229.526 174.182 C 229.526 174.751,229.600 175.588,229.691 176.041 L 229.855 176.866 228.030 176.810 C 225.855 176.743,224.911 175.863,225.874 174.799 C 226.189 174.451,226.290 174.058,226.179 173.617 C 225.834 172.239,227.885 171.506,228.991 172.612 M161.455 173.324 C 160.935 173.533,161.346 173.948,162.073 173.948 C 162.807 173.948,162.947 173.556,162.303 173.308 C 162.070 173.219,161.860 173.156,161.835 173.167 C 161.810 173.179,161.639 173.249,161.455 173.324 M175.293 173.663 C 174.867 174.459,174.962 175.470,175.484 175.698 C 176.495 176.140,177.143 175.661,177.150 174.469 C 177.158 173.212,175.841 172.640,175.293 173.663 M222.766 173.315 C 222.390 173.691,222.594 173.948,223.269 173.948 C 223.702 173.948,223.918 173.824,223.848 173.614 C 223.719 173.228,223.041 173.040,222.766 173.315 M227.041 173.315 C 226.665 173.691,226.870 173.948,227.544 173.948 C 227.977 173.948,228.193 173.824,228.123 173.614 C 227.994 173.228,227.316 173.040,227.041 173.315 M214.665 174.333 C 214.316 175.244,214.674 175.685,215.765 175.685 C 216.914 175.685,217.319 175.094,216.689 174.336 C 216.273 173.834,214.857 173.832,214.665 174.333 M163.829 174.574 C 163.475 175.001,163.695 175.284,164.383 175.284 C 164.657 175.284,165.185 175.483,165.556 175.726 C 166.178 176.133,166.265 176.134,166.663 175.736 C 167.061 175.338,167.055 175.291,166.581 175.141 C 166.297 175.051,165.671 174.806,165.188 174.596 C 164.123 174.134,164.194 174.135,163.829 174.574 M227.321 174.950 C 226.593 175.115,226.755 175.818,227.522 175.818 C 227.925 175.818,228.190 175.666,228.190 175.433 C 228.190 174.957,227.929 174.812,227.321 174.950 M161.183 175.332 C 161.319 175.741,162.693 175.815,162.792 175.418 C 162.829 175.271,162.455 175.112,161.962 175.064 C 161.311 175.002,161.097 175.076,161.183 175.332 M222.444 175.286 C 222.244 175.608,222.899 175.899,223.543 175.774 C 223.796 175.725,224.054 175.534,224.115 175.351 C 224.251 174.943,222.693 174.883,222.444 175.286 M167.752 186.784 C 168.850 187.807,168.118 189.729,166.399 190.333 C 165.502 190.649,165.872 191.281,167.005 191.367 C 168.835 191.507,168.333 191.979,166.266 192.062 C 163.647 192.169,163.578 191.157,166.085 189.432 C 166.989 188.810,167.278 188.449,167.217 188.019 C 167.102 187.216,166.002 187.089,165.490 187.820 C 165.050 188.447,164.329 188.567,164.329 188.012 C 164.329 186.524,166.599 185.710,167.752 186.784 M172.431 186.614 C 172.641 187.160,172.382 187.308,171.212 187.308 C 169.993 187.308,169.825 188.172,171.011 188.334 C 173.422 188.665,173.147 192.385,170.712 192.385 C 169.761 192.385,168.728 191.539,168.956 190.946 C 169.114 190.534,169.204 190.547,169.930 191.084 C 170.812 191.735,171.810 191.293,171.810 190.251 C 171.810 189.575,170.605 189.005,170.086 189.435 C 169.102 190.252,168.666 187.919,169.539 186.507 C 169.801 186.083,172.262 186.174,172.431 186.614 M224.983 186.774 C 224.983 187.219,224.805 187.308,223.914 187.308 C 223.024 187.308,222.846 187.397,222.846 187.842 C 222.846 188.256,223.024 188.377,223.637 188.377 C 225.365 188.377,226.078 190.366,224.833 191.710 C 223.808 192.816,221.510 192.336,221.510 191.016 C 221.510 190.380,221.626 190.387,222.557 191.075 C 223.467 191.748,224.449 191.416,224.449 190.436 C 224.449 189.642,223.540 189.074,222.857 189.439 C 221.860 189.973,221.728 189.795,221.925 188.176 C 222.165 186.191,222.122 186.239,223.663 186.239 C 224.805 186.239,224.983 186.311,224.983 186.774 M150.701 188.786 C 150.701 189.289,150.892 189.480,151.570 189.655 C 152.047 189.779,152.438 189.985,152.438 190.114 C 152.438 190.242,152.047 190.448,151.570 190.572 C 150.875 190.752,150.701 190.934,150.701 191.479 C 150.701 192.330,150.109 192.202,149.897 191.306 C 149.807 190.921,149.493 190.608,149.108 190.517 C 148.190 190.300,148.131 189.767,149.013 189.665 C 149.518 189.607,149.789 189.405,149.846 189.045 C 150.063 187.680,150.701 187.486,150.701 188.786 M205.623 188.711 C 205.820 189.381,206.046 189.598,206.613 189.664 C 207.416 189.756,207.652 190.512,206.880 190.518 C 206.207 190.524,205.720 190.894,205.637 191.462 C 205.520 192.259,204.989 192.215,204.896 191.400 C 204.827 190.803,204.647 190.623,204.008 190.513 C 202.989 190.338,202.998 189.887,204.023 189.712 C 204.681 189.599,204.823 189.435,204.893 188.710 C 205.000 187.602,205.297 187.603,205.623 188.711 M187.786 189.746 C 187.842 190.038,187.625 190.228,187.121 190.327 C 186.250 190.497,185.831 190.199,186.069 189.579 C 186.287 189.009,187.672 189.143,187.786 189.746 M242.799 189.606 C 243.005 190.141,242.518 190.459,241.640 190.363 C 240.798 190.270,240.694 190.165,240.904 189.617 C 241.127 189.037,242.578 189.028,242.799 189.606 " stroke="none" fill="#a09e9e" fill-rule="evenodd"></path></g></svg>