<?xml version="1.0" standalone="no"?>
<!DOCTYPE svg PUBLIC "-//W3C//DTD SVG 20010904//EN"
 "http://www.w3.org/TR/2001/REC-SVG-20010904/DTD/svg10.dtd">
<svg version="1.0" xmlns="http://www.w3.org/2000/svg"
 width="656.000000pt" height="438.000000pt" viewBox="0 0 656.000000 438.000000"
 preserveAspectRatio="xMidYMid meet">
<metadata>
Created by potrace 1.15, written by Peter Selinger 2001-2017
</metadata>
<g transform="translate(0.000000,438.000000) scale(0.100000,-0.100000)"
fill="#000000" stroke="none">
<path d="M6549 2693 c-1 -929 -4 -1677 -6 -1664 -4 19 -7 21 -14 10 -7 -12 -9
-12 -10 1 0 8 -5 4 -9 -10 l-8 -25 -1 25 c-1 20 -3 22 -11 10 -9 -13 -10 -13
-10 0 0 13 -1 13 -10 0 -9 -13 -10 -13 -10 0 0 13 -1 13 -10 0 -7 -11 -10 -4
-10 28 0 23 -4 42 -10 42 -5 0 -10 9 -10 20 0 11 -4 20 -10 20 -5 0 -10 16
-10 36 0 19 -4 43 -9 52 -12 23 -21 106 -35 312 -3 36 -7 79 -10 95 -2 17 -7
98 -10 180 -4 83 -8 159 -10 170 -2 11 -7 112 -11 225 -4 113 -9 214 -12 225
-2 11 -7 322 -10 690 -4 540 -8 675 -19 697 -8 15 -34 39 -59 53 -98 58 90 55
-2952 55 -2732 0 -2803 0 -2863 -19 -34 -11 -76 -30 -95 -42 -70 -48 -65 33
-65 -1101 0 -818 -3 -1058 -15 -1198 -13 -155 -19 -206 -30 -260 -2 -8 -4 -42
-6 -75 -1 -53 -2 -56 -9 -25 -7 33 -7 31 -9 -17 -1 -35 -5 -53 -13 -53 -10 0
-10 -2 -1 -8 9 -6 7 -12 -7 -22 -14 -10 -20 -26 -20 -55 0 -29 -3 -36 -10 -25
-8 12 -10 10 -11 -10 l-1 -25 -8 25 c-4 14 -9 18 -9 10 -1 -13 -2 -13 -11 0
-8 12 -10 10 -11 -10 l-1 -25 -8 25 c-4 14 -9 18 -9 10 -1 -13 -2 -13 -11 0
-8 12 -10 10 -11 -10 l-1 -25 -7 25 c-17 60 -20 -34 -21 -520 l0 -510 3280 0
3280 0 0 2190 c0 1205 -2 2190 -5 2190 -3 0 -6 -759 -6 -1687z m-3631 1141
c28 -19 30 -54 2 -54 -11 0 -20 4 -20 10 0 19 -39 31 -61 20 -30 -17 -19 -31
40 -51 30 -9 57 -23 62 -31 26 -40 -18 -98 -74 -98 -40 0 -87 33 -87 61 0 26
36 25 43 -2 5 -17 12 -20 44 -17 26 2 39 8 41 20 3 13 -10 21 -52 33 -76 22
-92 52 -55 99 24 31 81 36 117 10z m156 -55 c17 -14 26 -30 26 -50 0 -28 -1
-29 -51 -29 -36 0 -49 -4 -47 -12 6 -16 58 -23 58 -9 0 6 9 11 20 11 11 0 20
-4 20 -10 0 -19 -40 -50 -64 -50 -13 0 -35 9 -50 21 -36 28 -37 89 -1 124 30
30 54 31 89 4z m490 0 c36 -28 37 -89 1 -124 -50 -51 -116 -20 -117 55 0 36 5
48 26 67 33 28 56 29 90 2z m-1199 -449 c16 -18 20 -19 28 -5 4 8 13 13 18 10
5 -4 7 -11 4 -16 -4 -5 -2 -9 3 -9 6 0 8 -19 5 -42 -4 -38 -3 -41 8 -23 7 11
13 29 14 40 0 16 7 20 35 20 33 0 35 -2 41 -40 l6 -40 2 43 c1 41 2 42 36 42
24 0 35 5 35 15 0 8 5 15 10 15 6 0 10 -6 10 -14 0 -8 6 -17 13 -20 10 -5 10
-7 0 -12 -14 -6 -18 -64 -4 -64 4 0 14 21 21 48 15 55 27 72 39 54 6 -10 10
-10 21 3 17 21 53 19 75 -5 16 -18 19 -18 30 -3 17 24 27 2 29 -63 1 -46 -1
-54 -16 -54 -14 0 -18 8 -18 39 0 34 -4 42 -32 55 -17 9 -38 16 -45 16 -26 0
-7 -24 25 -32 37 -10 46 -22 38 -52 -11 -43 -88 -46 -101 -5 -9 28 1 35 23 16
23 -21 52 -22 52 -2 0 8 -9 15 -20 15 -12 0 -32 11 -45 24 l-24 24 -11 -49
c-11 -45 -15 -49 -41 -49 -27 0 -29 3 -29 40 0 43 0 43 -24 34 -10 -4 -16 -18
-16 -40 0 -25 -4 -34 -17 -35 -10 0 -35 -2 -55 -4 -21 -2 -40 0 -42 4 -3 5
-17 6 -31 3 -23 -4 -25 -2 -25 36 0 35 -4 43 -32 56 -17 9 -38 16 -45 16 -26
0 -7 -24 25 -32 37 -10 46 -22 38 -52 -11 -43 -88 -46 -101 -5 -9 28 1 35 23
16 22 -20 52 -22 52 -4 0 7 -14 17 -32 22 -44 14 -57 38 -34 64 24 27 58 27
81 1z m1384 -4 c6 -7 9 -28 6 -47 l-5 -34 12 28 c14 32 52 45 80 28 15 -9 23
-9 33 -1 23 19 60 8 60 -17 0 -12 4 -25 8 -29 4 -4 7 2 7 12 0 26 19 44 45 44
30 0 45 -19 45 -57 0 -47 -43 -69 -74 -37 -15 14 -17 14 -32 0 -19 -20 -35
-20 -59 -2 -17 12 -22 12 -39 0 -27 -18 -32 -18 -56 6 -16 16 -20 17 -20 5 0
-24 -28 -17 -32 8 -2 16 -11 23 -30 25 -24 3 -28 0 -28 -22 0 -14 -4 -26 -10
-26 -6 0 -10 28 -10 65 l0 65 44 0 c24 0 48 -6 55 -14z m-810 -33 c10 -17 10
-17 11 0 0 13 9 17 40 17 34 0 42 -4 50 -25 16 -42 -20 -99 -51 -79 -5 3 -9
-4 -9 -15 0 -12 -7 -21 -15 -21 -10 0 -15 11 -15 35 l0 35 -20 -20 c-24 -24
-38 -25 -62 -3 -20 18 -24 63 -6 81 18 18 65 15 77 -5z m-711 -568 c81 -33
152 -145 152 -241 0 -43 -25 -110 -56 -151 -29 -38 -103 -90 -227 -159 -88
-48 -177 -128 -177 -159 0 -13 29 -15 225 -15 l225 0 0 -55 0 -55 -295 0
c-339 0 -307 -13 -279 110 27 122 73 171 259 280 123 72 160 103 179 152 52
127 -76 244 -209 193 -56 -21 -83 -58 -97 -135 l-12 -60 -59 0 -60 0 7 63 c17
170 129 263 306 253 41 -2 94 -12 118 -21z m1659 -9 c60 -28 112 -92 138 -171
58 -176 35 -438 -48 -561 -64 -96 -171 -140 -280 -115 -147 33 -223 157 -234
383 -12 228 49 402 160 460 80 42 177 43 264 4z m673 -4 c69 -34 113 -91 142
-185 19 -60 23 -95 23 -207 0 -198 -34 -310 -119 -388 -116 -107 -306 -87
-394 40 -111 162 -106 529 9 675 78 99 217 126 339 65z m-1560 -37 l0 -55
-180 0 c-99 0 -180 -3 -180 -7 0 -5 -7 -50 -15 -102 -9 -52 -14 -95 -12 -98 2
-2 21 4 43 14 24 10 66 17 109 17 114 0 196 -46 253 -144 24 -40 27 -55 26
-130 -1 -96 -20 -152 -75 -214 -55 -63 -114 -85 -227 -87 -157 -2 -272 83
-284 211 l-3 35 58 0 59 0 14 -40 c25 -73 100 -114 188 -101 116 18 181 158
125 272 -15 33 -32 49 -72 68 -77 39 -149 30 -211 -25 -26 -23 -43 -29 -78
-29 -25 0 -47 2 -49 5 -4 3 50 408 60 463 1 1 102 2 226 2 l225 0 0 -55z m358
-222 l-3 -68 -67 -3 -68 -3 0 71 0 70 70 0 71 0 -3 -67z m0 -495 l3 -68 -71 0
-70 0 0 70 0 71 68 -3 67 -3 3 -67z m-927 -598 c10 -6 19 -17 19 -25 0 -17
-16 -20 -25 -5 -8 14 -48 13 -43 -1 2 -6 21 -17 41 -24 34 -12 38 -11 48 6 12
23 67 26 75 4 6 -14 8 -14 18 1 8 10 23 14 41 12 24 -2 30 -8 30 -27 0 -14 5
-26 11 -28 5 -2 10 9 9 24 0 25 3 28 35 28 34 0 35 -1 37 -39 1 -22 -3 -46 -9
-53 -14 -17 -44 -17 -60 0 -10 12 -15 12 -26 0 -28 -28 -82 -3 -68 32 3 9 2
13 -4 10 -6 -3 -10 -13 -10 -21 0 -8 -11 -20 -25 -26 -20 -9 -28 -8 -44 6 -17
16 -20 16 -49 -1 -25 -14 -34 -15 -56 -5 -16 7 -26 20 -26 32 0 24 15 26 28 4
9 -17 44 -16 42 1 0 6 -15 15 -33 21 -38 13 -49 50 -21 71 22 16 39 16 65 3z
m1609 -32 c1 -27 2 -30 11 -15 5 9 19 17 31 17 20 0 20 -1 3 -20 -16 -18 -17
-21 -1 -44 20 -31 20 -36 2 -36 -8 0 -22 10 -30 22 l-16 22 0 -22 c0 -14 -6
-22 -17 -23 -10 0 -35 -2 -55 -4 -41 -4 -65 14 -53 42 4 10 8 27 9 38 1 16 8
20 36 20 33 0 35 -2 41 -40 6 -37 6 -36 8 18 1 43 5 57 16 57 10 0 15 -10 15
-32z"/>
<path d="M3713 2629 c-43 -12 -79 -59 -100 -127 -14 -44 -18 -92 -18 -212 0
-141 3 -160 24 -208 45 -100 115 -132 198 -91 36 18 53 35 70 69 61 121 51
435 -15 526 -18 24 -81 55 -110 53 -9 0 -31 -5 -49 -10z"/>
<path d="M4372 2620 c-35 -16 -47 -29 -67 -72 -48 -106 -58 -322 -20 -447 21
-67 67 -117 118 -126 53 -10 125 27 154 79 58 106 57 402 -2 516 -17 32 -81
70 -120 70 -11 0 -39 -9 -63 -20z"/>
</g>
</svg>
