<?xml version="1.0" standalone="no"?>
<!DOCTYPE svg PUBLIC "-//W3C//DTD SVG 20010904//EN"
 "http://www.w3.org/TR/2001/REC-SVG-20010904/DTD/svg10.dtd">
<svg version="1.0" xmlns="http://www.w3.org/2000/svg"
 width="656.000000pt" height="438.000000pt" viewBox="0 0 656.000000 438.000000"
 preserveAspectRatio="xMidYMid meet">
<metadata>
Created by potrace 1.15, written by Peter Selinger 2001-2017
</metadata>
<g transform="translate(0.000000,438.000000) scale(0.100000,-0.100000)"
fill="#000000" stroke="none">
<path d="M420 2100 l0 -1650 55 0 55 0 0 1650 0 1650 -55 0 -55 0 0 -1650z"/>
<path d="M6030 2100 l0 -1650 55 0 55 0 0 1650 0 1650 -55 0 -55 0 0 -1650z"/>
<path d="M820 2950 l0 -50 480 0 480 0 0 50 0 50 -480 0 -480 0 0 -50z"/>
<path d="M1810 2950 l0 -50 480 0 480 0 0 50 0 50 -480 0 -480 0 0 -50z"/>
<path d="M2800 2950 l0 -50 480 0 480 0 0 50 0 50 -480 0 -480 0 0 -50z"/>
<path d="M3790 2950 l0 -50 480 0 480 0 0 50 0 50 -480 0 -480 0 0 -50z"/>
<path d="M4780 2950 l0 -50 480 0 480 0 0 50 0 50 -480 0 -480 0 0 -50z"/>
</g>
</svg>
