<svg id="svg" version="1.1" width="400" height="267.2782874617737" viewBox="0 0 400 267.2782874617737" xmlns="http://www.w3.org/2000/svg" xmlns:xlink="http://www.w3.org/1999/xlink" ><g id="svgg"><path id="path0" d="M0.000 0.535 C 0.000 1.069,0.178 1.070,200.000 1.070 C 399.822 1.070,400.000 1.069,400.000 0.535 C 400.000 0.000,399.822 0.000,200.000 0.000 C 0.178 0.000,0.000 0.000,0.000 0.535 M352.261 234.881 L 351.604 235.537 351.604 245.840 C 351.604 255.203,351.646 256.193,352.065 256.681 C 352.762 257.495,388.798 257.513,389.773 256.700 L 390.374 256.198 390.374 245.867 L 390.374 235.537 389.718 234.881 L 389.062 234.225 370.989 234.225 L 352.917 234.225 352.261 234.881 M362.434 244.022 C 362.859 244.671,362.863 244.800,362.480 245.603 C 362.081 246.440,362.091 246.509,362.716 247.236 C 363.483 248.128,363.511 248.284,362.946 248.501 C 361.941 248.886,360.758 248.241,360.664 247.256 C 360.646 247.074,360.555 247.286,360.460 247.727 C 360.326 248.358,360.146 248.529,359.623 248.529 C 358.965 248.529,358.456 244.927,358.937 243.672 C 359.216 242.945,361.904 243.214,362.434 244.022 M367.243 243.577 C 367.533 244.047,366.838 244.956,366.225 244.907 C 365.196 244.825,365.077 244.985,366.040 245.156 C 367.591 245.430,367.415 246.777,365.826 246.787 C 365.487 246.790,365.273 246.896,365.352 247.023 C 365.431 247.150,365.772 247.202,366.111 247.137 C 366.509 247.061,366.908 247.220,367.243 247.590 C 367.967 248.390,367.418 248.687,365.374 248.599 L 363.770 248.529 363.692 246.279 C 363.649 245.041,363.675 243.868,363.750 243.672 C 363.913 243.248,366.988 243.165,367.243 243.577 M371.604 243.636 C 371.991 244.023,372.036 245.989,371.658 245.989 C 371.209 245.989,371.359 246.657,371.948 247.290 C 372.995 248.413,371.681 249.251,370.521 248.201 C 370.036 247.763,369.996 247.763,369.751 248.201 C 369.427 248.780,368.294 248.806,368.077 248.240 C 367.857 247.666,367.870 243.717,368.093 243.494 C 368.402 243.184,371.269 243.301,371.604 243.636 M374.546 245.177 C 374.691 248.265,375.827 248.148,375.988 245.029 C 376.065 243.544,376.110 243.449,376.738 243.449 C 377.771 243.449,377.900 247.127,376.905 248.201 C 375.897 249.289,375.033 249.389,373.928 248.545 L 372.995 247.834 372.995 245.557 L 372.995 243.280 373.730 243.365 C 374.438 243.446,374.468 243.514,374.546 245.177 M380.708 244.413 L 381.515 245.511 381.600 244.480 C 381.674 243.581,381.770 243.449,382.353 243.449 C 383.008 243.449,383.023 243.495,383.098 245.748 C 383.202 248.873,381.957 249.774,380.630 247.534 L 380.111 246.658 379.962 247.594 C 379.838 248.374,379.702 248.529,379.144 248.529 C 378.491 248.529,378.474 248.480,378.398 246.279 C 378.279 242.879,379.095 242.221,380.708 244.413 " stroke="none" fill="#666666" fill-rule="evenodd"></path><path id="path1" d="M143.850 6.684 C 143.850 7.218,144.007 7.219,199.485 7.219 C 252.326 7.219,255.115 7.196,255.029 6.751 C 254.878 5.964,143.850 5.896,143.850 6.684 M187.077 16.756 C 186.979 16.854,186.898 17.649,186.898 18.523 C 186.898 20.075,186.884 20.108,186.243 19.947 C 185.383 19.731,183.775 20.505,183.581 21.229 C 182.927 23.663,183.770 24.733,186.340 24.733 L 188.234 24.733 188.235 20.655 C 188.235 16.526,188.023 15.810,187.077 16.756 M165.160 17.015 C 164.677 17.497,164.959 24.305,165.473 24.580 C 166.211 24.975,166.310 24.719,166.310 22.415 C 166.310 19.835,166.235 19.830,168.984 22.594 C 170.227 23.844,171.338 24.866,171.451 24.866 C 171.824 24.866,171.699 17.185,171.324 17.047 C 170.533 16.756,170.321 17.168,170.321 18.990 C 170.321 21.522,170.067 21.524,167.538 19.009 C 166.333 17.809,165.262 16.912,165.160 17.015 M204.403 17.129 C 201.977 17.835,200.829 21.085,202.303 23.079 C 203.468 24.654,205.516 25.098,209.425 24.623 C 209.730 24.586,209.665 23.262,209.358 23.262 C 209.211 23.262,209.091 22.968,209.091 22.609 C 209.091 22.250,209.211 21.882,209.358 21.791 C 210.942 20.813,207.440 16.516,205.348 16.871 C 205.274 16.883,204.849 16.999,204.403 17.129 M230.918 17.399 C 229.642 18.403,230.355 19.479,231.708 18.592 C 233.016 17.735,233.706 18.827,232.604 20.009 C 231.839 20.830,231.402 22.151,231.772 22.521 C 231.973 22.721,231.976 22.966,231.785 23.324 C 231.413 24.018,231.678 24.599,232.365 24.599 C 232.836 24.599,232.920 24.455,232.870 23.730 C 232.762 22.166,232.881 21.804,233.826 20.807 C 236.026 18.486,233.420 15.431,230.918 17.399 M222.527 18.359 C 222.343 18.433,222.193 18.777,222.193 19.124 C 222.193 19.471,222.072 19.829,221.925 19.920 C 221.585 20.130,221.573 21.390,221.912 21.390 C 222.052 21.390,222.202 22.082,222.246 22.928 C 222.368 25.271,223.620 25.294,223.742 22.956 C 223.807 21.721,223.917 21.421,224.344 21.310 C 225.022 21.132,225.015 20.419,224.332 20.053 C 224.037 19.896,223.797 19.555,223.797 19.295 C 223.797 18.838,223.307 18.160,223.008 18.203 C 222.927 18.215,222.711 18.285,222.527 18.359 M207.166 18.991 C 208.791 20.506,207.838 23.262,205.689 23.262 C 204.561 23.262,203.622 22.656,203.211 21.664 C 202.305 19.476,205.423 17.368,207.166 18.991 M174.158 20.240 C 171.172 21.728,173.276 25.945,176.313 24.561 C 177.134 24.187,176.815 23.267,175.860 23.254 C 175.281 23.245,175.280 23.236,175.786 22.852 C 176.072 22.637,176.527 22.460,176.797 22.460 C 177.961 22.460,177.553 20.885,176.209 20.190 C 175.272 19.706,175.228 19.707,174.158 20.240 M179.228 20.308 C 176.664 21.871,178.428 25.692,181.254 24.698 C 182.111 24.396,182.159 23.754,181.350 23.399 C 180.486 23.020,180.602 22.787,181.818 22.460 C 183.302 22.060,182.938 20.734,181.159 20.057 C 180.226 19.702,180.220 19.703,179.228 20.308 M193.675 20.295 C 191.161 21.851,192.626 25.002,195.742 24.741 C 197.568 24.587,197.633 24.495,197.539 22.167 L 197.460 20.187 196.524 20.152 C 196.009 20.133,195.348 20.040,195.053 19.945 C 194.728 19.840,194.188 19.977,193.675 20.295 M217.647 20.082 C 215.128 21.071,215.761 24.866,218.445 24.866 C 220.934 24.866,221.863 21.785,219.795 20.388 C 218.815 19.725,218.626 19.698,217.647 20.082 M226.468 20.388 C 225.258 21.212,225.027 21.673,225.244 22.830 C 225.547 24.448,227.724 25.420,228.954 24.486 C 229.446 24.113,229.007 23.262,228.323 23.262 C 227.709 23.262,228.161 22.720,228.944 22.517 C 230.159 22.202,230.141 21.232,228.904 20.398 C 227.778 19.639,227.569 19.638,226.468 20.388 M210.857 20.476 C 209.847 23.110,211.235 25.102,213.782 24.675 L 215.107 24.453 215.107 22.320 C 215.107 20.223,215.096 20.187,214.439 20.187 C 213.815 20.187,213.761 20.294,213.636 21.791 C 213.467 23.825,212.489 24.235,212.362 22.326 C 212.219 20.183,211.370 19.140,210.857 20.476 M175.082 21.678 C 175.030 21.836,174.872 21.965,174.733 21.965 C 174.593 21.965,174.435 21.836,174.383 21.678 C 174.330 21.520,174.488 21.390,174.733 21.390 C 174.978 21.390,175.135 21.520,175.082 21.678 M186.845 22.215 C 186.958 23.183,186.283 23.700,185.420 23.307 C 184.777 23.014,184.506 22.001,184.950 21.556 C 185.443 21.064,186.765 21.524,186.845 22.215 M195.937 22.359 C 196.025 23.261,195.512 23.669,194.639 23.392 C 193.419 23.004,193.739 21.319,195.009 21.442 C 195.740 21.513,195.867 21.638,195.937 22.359 M219.385 22.297 C 219.385 23.153,218.759 23.706,218.084 23.447 C 217.141 23.085,217.515 21.344,218.516 21.440 C 219.277 21.514,219.385 21.620,219.385 22.297 M143.962 36.876 C 143.900 36.937,143.850 37.208,143.850 37.478 C 143.850 38.177,254.720 38.254,254.988 37.555 C 255.075 37.328,255.066 37.062,254.967 36.963 C 254.777 36.773,144.152 36.686,143.962 36.876 M64.853 147.151 C 64.348 147.814,64.171 148.367,64.171 149.290 C 64.171 149.975,64.051 150.535,63.904 150.535 C 63.757 150.535,63.636 150.956,63.636 151.471 C 63.636 151.985,63.757 152.406,63.904 152.406 C 64.056 152.406,64.171 153.205,64.171 154.269 C 64.171 155.881,64.246 156.171,64.727 156.428 C 65.740 156.970,66.013 156.585,66.098 154.493 C 66.176 152.558,66.182 152.543,66.979 152.406 C 67.660 152.288,67.781 152.147,67.781 151.471 C 67.781 150.794,67.660 150.653,66.979 150.536 C 65.702 150.316,65.823 148.128,67.112 148.128 C 67.396 148.128,67.752 147.896,67.904 147.613 C 68.760 146.014,66.035 145.601,64.853 147.151 M140.168 151.404 L 140.241 156.551 141.043 156.551 L 141.845 156.551 141.918 151.404 L 141.990 146.257 141.043 146.257 L 140.095 146.257 140.168 151.404 M147.234 146.746 C 146.930 147.082,146.791 147.717,146.791 148.776 C 146.791 150.068,146.709 150.339,146.281 150.451 C 145.320 150.702,145.315 152.238,146.275 152.489 C 146.724 152.606,146.791 152.871,146.791 154.529 C 146.791 156.588,147.067 156.985,148.107 156.428 C 148.582 156.174,148.663 155.879,148.663 154.396 C 148.663 152.779,148.710 152.643,149.349 152.400 C 150.259 152.054,150.197 150.715,149.265 150.583 C 148.443 150.466,148.340 148.128,149.156 148.128 C 149.828 148.128,150.587 147.239,150.379 146.696 C 150.132 146.052,147.829 146.088,147.234 146.746 M193.911 151.404 L 193.984 156.551 194.786 156.551 L 195.588 156.551 195.661 151.404 L 195.733 146.257 194.786 146.257 L 193.839 146.257 193.911 151.404 M198.036 146.746 C 197.733 147.080,197.594 147.716,197.594 148.759 C 197.594 149.968,197.496 150.320,197.126 150.457 C 196.069 150.847,195.947 152.034,196.925 152.406 C 197.551 152.644,197.594 152.781,197.594 154.547 C 197.594 156.587,197.871 156.984,198.910 156.428 C 199.390 156.171,199.465 155.880,199.465 154.287 C 199.465 152.579,199.509 152.437,200.067 152.358 C 200.538 152.291,200.668 152.099,200.668 151.471 C 200.668 150.842,200.538 150.650,200.067 150.583 C 199.245 150.466,199.142 148.128,199.959 148.128 C 200.751 148.128,201.487 147.161,201.074 146.663 C 200.585 146.074,198.595 146.128,198.036 146.746 M225.730 151.404 L 225.802 156.551 226.604 156.551 L 227.406 156.551 227.479 151.404 L 227.552 146.257 226.604 146.257 L 225.657 146.257 225.730 151.404 M232.830 146.725 C 232.109 147.551,231.818 148.334,231.818 149.448 C 231.818 150.046,231.698 150.535,231.551 150.535 C 231.404 150.535,231.283 150.956,231.283 151.471 C 231.283 151.985,231.404 152.406,231.551 152.406 C 231.701 152.406,231.818 153.150,231.818 154.103 C 231.818 156.017,232.377 156.883,233.403 156.557 C 234.017 156.362,234.185 155.852,234.288 153.877 L 234.358 152.540 235.495 152.458 L 236.631 152.376 236.631 154.268 C 236.631 156.049,236.672 156.180,237.329 156.479 C 238.340 156.940,238.770 156.229,238.770 154.093 C 238.770 152.585,238.827 152.406,239.305 152.406 C 239.724 152.406,239.840 152.228,239.840 151.579 C 239.840 150.977,239.694 150.714,239.305 150.612 C 238.983 150.528,238.769 150.246,238.766 149.902 C 238.752 147.728,236.839 147.244,236.684 149.375 C 236.594 150.610,236.254 150.869,235.116 150.567 C 234.056 150.285,233.841 148.528,234.821 148.156 C 236.585 147.485,236.291 146.257,234.367 146.257 C 233.625 146.257,233.098 146.417,232.830 146.725 M319.430 146.435 C 319.332 146.533,319.245 148.007,319.237 149.710 C 319.224 152.708,319.209 152.786,318.769 152.145 C 317.817 150.754,317.434 150.535,315.959 150.535 C 314.477 150.535,313.102 151.449,313.102 152.434 C 313.102 152.654,312.954 152.982,312.774 153.162 C 312.516 153.420,312.516 153.600,312.774 154.014 C 312.954 154.302,313.102 154.665,313.102 154.820 C 313.102 155.192,313.889 156.000,314.621 156.381 C 316.367 157.288,319.118 155.923,317.781 154.813 C 317.142 154.282,317.309 153.896,318.316 153.581 L 319.251 153.288 319.251 154.566 C 319.251 155.917,319.723 156.684,320.554 156.684 C 321.560 156.684,321.658 156.192,321.658 151.150 L 321.658 146.257 320.633 146.257 C 320.069 146.257,319.528 146.337,319.430 146.435 M60.619 146.957 C 60.387 147.189,60.361 155.665,60.590 156.262 C 60.686 156.510,61.066 156.684,61.514 156.684 C 62.515 156.684,62.614 156.110,62.512 150.936 L 62.433 146.925 61.621 146.846 C 61.175 146.802,60.724 146.852,60.619 146.957 M117.542 148.551 C 117.453 148.784,117.380 149.325,117.380 149.754 C 117.380 150.184,117.259 150.535,117.112 150.535 C 116.965 150.535,116.845 150.956,116.845 151.471 C 116.845 151.985,116.965 152.406,117.112 152.406 C 117.265 152.406,117.380 153.210,117.380 154.284 C 117.380 156.000,117.434 156.186,118.014 156.450 C 119.253 157.015,119.786 156.391,119.786 154.377 C 119.786 152.870,119.858 152.605,120.302 152.489 C 121.274 152.235,121.266 151.041,120.289 150.518 C 119.983 150.354,119.786 149.960,119.786 149.509 C 119.786 148.248,117.958 147.467,117.542 148.551 M125.686 148.630 C 125.529 148.923,125.401 149.420,125.401 149.734 C 125.401 150.048,125.221 150.486,125.000 150.707 C 124.779 150.927,124.599 151.344,124.599 151.632 C 124.599 151.920,124.779 152.225,125.000 152.310 C 125.297 152.424,125.401 152.896,125.401 154.132 C 125.401 157.523,127.714 157.734,127.862 154.356 C 127.934 152.705,127.996 152.532,128.543 152.455 C 129.434 152.328,129.397 150.885,128.493 150.541 C 127.986 150.349,127.823 150.068,127.758 149.278 C 127.656 148.051,126.234 147.606,125.686 148.630 M143.369 148.449 C 142.920 148.899,142.969 149.662,143.466 149.940 C 143.845 150.152,143.845 150.206,143.466 150.521 C 142.782 151.088,142.864 156.032,143.564 156.407 C 144.761 157.047,144.961 156.575,144.907 153.240 C 144.880 151.531,144.941 149.933,145.043 149.687 C 145.476 148.643,144.154 147.665,143.369 148.449 M151.355 148.630 C 151.198 148.923,151.070 149.471,151.070 149.849 C 151.070 150.226,150.949 150.535,150.802 150.535 C 150.655 150.535,150.535 150.956,150.535 151.471 C 150.535 151.985,150.655 152.406,150.802 152.406 C 150.952 152.406,151.070 153.150,151.070 154.103 C 151.070 156.171,151.668 156.985,152.809 156.465 C 153.421 156.186,153.476 156.018,153.476 154.411 C 153.476 152.790,153.525 152.642,154.144 152.406 C 155.062 152.058,155.073 150.888,154.161 150.541 C 153.655 150.349,153.491 150.068,153.426 149.278 C 153.325 148.051,151.903 147.606,151.355 148.630 M228.788 148.307 C 228.513 148.581,228.577 149.681,228.878 149.867 C 229.057 149.978,229.057 150.199,228.878 150.533 C 227.958 152.252,228.750 156.930,229.899 156.566 C 230.890 156.251,231.154 151.136,230.211 150.519 C 229.866 150.292,229.875 150.221,230.281 149.982 C 230.821 149.663,230.893 148.914,230.428 148.449 C 230.082 148.103,229.078 148.016,228.788 148.307 M71.658 151.046 C 71.658 151.327,72.096 152.493,72.632 153.636 L 73.606 155.716 73.121 157.144 C 72.473 159.049,73.844 160.055,74.733 158.326 C 75.925 156.006,77.273 152.980,77.273 152.622 C 77.273 151.868,77.610 152.755,77.680 153.694 C 77.989 157.830,83.957 157.614,83.957 153.467 C 83.957 150.832,80.915 149.529,78.702 151.217 L 77.807 151.899 77.807 151.217 C 77.807 149.848,76.344 150.283,75.581 151.879 C 74.875 153.354,74.743 153.308,73.860 151.270 C 73.456 150.338,71.658 150.155,71.658 151.046 M84.813 150.856 C 84.166 151.502,84.410 154.789,85.180 155.798 C 85.863 156.693,85.882 156.699,87.751 156.603 C 90.085 156.482,90.151 156.384,90.050 153.147 L 89.973 150.668 89.139 150.587 C 88.181 150.494,87.978 150.906,87.972 152.955 C 87.968 154.080,87.629 154.813,87.112 154.813 C 86.995 154.813,86.898 154.083,86.898 153.191 C 86.898 150.829,85.927 149.741,84.813 150.856 M94.385 150.996 C 94.385 151.268,94.626 151.963,94.920 152.540 C 95.214 153.117,95.455 153.691,95.455 153.817 C 95.455 154.877,96.911 156.926,97.370 156.511 C 97.640 156.267,97.861 155.849,97.861 155.583 C 97.861 154.408,98.815 154.527,99.423 155.778 C 100.097 157.166,100.343 157.110,101.109 155.393 C 101.415 154.706,101.935 153.547,102.263 152.816 C 103.000 151.180,102.884 150.535,101.853 150.535 C 101.118 150.535,100.690 151.085,100.189 152.674 C 100.091 152.984,100.020 152.954,99.878 152.540 C 99.139 150.399,97.326 149.627,97.326 151.454 C 97.326 152.633,97.049 152.660,96.524 151.532 C 96.043 150.496,94.385 150.081,94.385 150.996 M104.109 150.924 C 102.472 152.070,102.378 154.353,103.909 155.796 C 104.947 156.775,108.823 157.004,109.383 156.119 C 109.646 155.704,109.704 152.056,109.462 151.155 C 109.267 150.428,105.075 150.247,104.109 150.924 M110.456 150.880 C 109.972 151.364,110.074 155.757,110.581 156.264 C 111.605 157.288,112.505 156.350,112.618 154.140 C 112.749 151.603,113.736 151.765,113.849 154.342 C 113.937 156.353,114.444 156.987,115.508 156.417 C 116.307 155.989,116.295 152.264,115.491 151.242 C 114.888 150.476,111.130 150.206,110.456 150.880 M130.045 151.490 C 128.188 153.459,129.629 156.684,132.367 156.684 C 134.336 156.684,136.121 154.503,135.555 152.788 C 134.743 150.329,131.795 149.634,130.045 151.490 M158.375 150.962 C 158.283 151.204,158.637 152.221,159.190 153.302 C 160.141 155.161,160.437 156.750,159.893 157.086 C 159.545 157.301,159.546 158.743,159.895 158.959 C 160.572 159.377,161.317 158.705,162.078 156.991 C 162.513 156.014,163.034 154.851,163.235 154.408 C 163.437 153.964,163.753 153.242,163.937 152.803 C 164.271 152.010,164.274 152.015,164.422 153.502 C 164.585 155.123,164.930 155.708,166.077 156.301 C 166.924 156.739,168.717 156.818,168.717 156.417 C 168.717 156.270,168.888 156.150,169.098 156.150 C 170.559 156.150,171.116 152.807,169.896 151.357 C 168.960 150.244,166.541 150.146,165.430 151.175 C 164.695 151.856,164.439 151.817,164.439 151.025 C 164.439 150.661,164.237 150.535,163.656 150.535 C 162.873 150.535,162.032 151.606,162.032 152.603 C 162.032 153.280,161.381 152.800,160.742 151.651 C 160.068 150.440,158.726 150.050,158.375 150.962 M171.240 151.467 C 170.427 155.802,171.570 156.874,176.537 156.435 C 176.648 156.425,176.738 155.086,176.738 153.459 L 176.738 150.501 175.869 150.585 C 175.005 150.668,174.999 150.678,174.918 152.268 C 174.758 155.381,173.331 155.643,173.206 152.583 L 173.128 150.668 172.274 150.586 C 171.484 150.509,171.407 150.575,171.240 151.467 M178.230 150.737 C 177.648 151.318,178.098 156.172,178.762 156.474 C 179.649 156.879,179.937 156.469,179.942 154.793 C 179.946 153.863,180.095 153.430,180.565 152.988 C 181.225 152.368,182.353 152.199,182.353 152.720 C 182.353 152.892,182.561 153.263,182.815 153.544 C 183.254 154.028,183.254 154.068,182.815 154.313 C 181.653 154.964,182.785 156.684,184.374 156.684 C 186.348 156.684,187.536 153.869,185.904 153.060 L 185.310 152.766 186.037 152.212 C 186.640 151.753,186.714 151.574,186.470 151.163 C 186.064 150.482,183.567 150.321,182.892 150.932 C 182.486 151.299,182.398 151.305,182.270 150.971 C 182.120 150.581,178.590 150.376,178.230 150.737 M188.490 150.877 C 187.181 151.909,186.760 153.945,187.593 155.217 C 188.986 157.342,193.252 157.016,192.142 154.870 C 191.588 153.798,191.576 153.837,192.513 153.650 C 193.570 153.438,193.587 152.539,192.556 151.385 C 191.727 150.456,189.395 150.165,188.490 150.877 M205.526 150.713 C 205.000 151.239,205.350 155.524,205.966 156.103 C 206.643 156.739,207.989 156.877,208.503 156.364 C 208.752 156.114,208.895 156.114,209.144 156.364 C 210.231 157.450,210.963 156.303,210.963 153.510 C 210.963 151.028,210.756 150.535,209.715 150.535 C 208.921 150.535,208.556 151.270,208.556 152.870 C 208.556 154.069,208.229 154.813,207.701 154.813 C 207.583 154.813,207.485 154.121,207.483 153.275 C 207.477 150.805,206.592 149.647,205.526 150.713 M212.210 150.713 C 211.920 151.004,212.008 158.011,212.309 158.574 C 212.868 159.618,214.171 158.844,214.171 157.468 C 214.171 156.748,214.249 156.684,215.125 156.684 C 218.100 156.684,219.686 153.335,217.668 151.316 C 216.900 150.548,212.825 150.098,212.210 150.713 M244.652 153.150 C 244.652 155.377,244.730 155.870,245.141 156.242 C 245.703 156.751,247.339 156.833,247.796 156.375 C 248.031 156.141,248.202 156.145,248.501 156.394 C 249.570 157.281,250.024 156.335,249.942 153.395 L 249.866 150.668 248.930 150.668 L 247.995 150.668 247.861 152.483 C 247.635 155.558,246.602 155.600,246.471 152.540 L 246.390 150.668 245.521 150.585 L 244.652 150.501 244.652 153.150 M250.950 150.744 C 250.562 151.132,250.806 158.255,251.222 158.671 C 252.072 159.520,253.209 158.831,253.209 157.468 C 253.209 156.758,253.292 156.684,254.103 156.684 C 257.002 156.684,258.539 153.702,256.809 151.434 L 256.130 150.545 253.614 150.571 C 252.230 150.585,251.031 150.662,250.950 150.744 M262.205 151.182 C 261.601 152.103,261.651 153.099,262.326 153.571 L 262.886 153.964 262.326 154.264 C 261.065 154.939,262.118 156.684,263.786 156.684 C 265.726 156.684,267.236 153.470,265.508 153.019 C 264.829 152.841,264.837 152.738,265.575 152.132 C 266.548 151.333,265.937 150.687,264.115 150.589 C 262.796 150.519,262.599 150.580,262.205 151.182 M267.400 151.357 C 265.509 153.248,266.927 156.684,269.598 156.684 C 272.264 156.684,273.762 153.410,272.035 151.357 C 271.010 150.139,268.619 150.139,267.400 151.357 M273.426 151.154 C 273.202 151.989,273.233 155.694,273.467 156.036 C 274.257 157.190,275.401 156.534,275.401 154.926 C 275.401 153.475,275.873 152.406,276.514 152.406 C 276.944 152.406,277.005 152.639,277.005 154.265 C 277.005 156.239,277.328 156.760,278.380 156.485 C 278.791 156.377,278.877 156.091,278.877 154.823 C 278.877 153.678,279.001 153.180,279.367 152.848 C 280.046 152.233,280.214 152.522,280.214 154.304 C 280.214 156.438,281.146 157.336,282.178 156.196 C 282.869 155.432,282.795 152.166,282.066 151.239 C 281.451 150.457,279.554 150.232,278.919 150.867 C 278.661 151.125,278.543 151.127,278.388 150.876 C 277.985 150.223,273.610 150.469,273.426 151.154 M283.985 151.480 C 281.606 154.189,284.657 157.895,287.923 156.266 L 288.763 155.847 288.241 154.824 L 287.720 153.802 288.383 153.675 C 288.931 153.570,289.122 153.708,289.481 154.463 C 290.663 156.954,294.629 157.415,295.354 155.146 C 295.436 154.889,295.625 154.422,295.775 154.109 C 296.132 153.358,295.551 151.719,294.685 151.038 C 293.375 150.007,289.840 150.726,289.840 152.024 C 289.840 152.660,289.408 152.458,288.654 151.471 C 287.581 150.063,285.225 150.068,283.985 151.480 M296.702 150.713 C 296.354 151.061,296.504 156.068,296.872 156.373 C 297.736 157.090,298.320 156.452,298.466 154.632 C 298.717 151.502,300.074 151.519,300.213 154.653 C 300.298 156.578,300.592 156.959,301.583 156.428 C 302.294 156.048,302.394 152.605,301.731 151.324 C 301.331 150.550,297.349 150.066,296.702 150.713 M303.583 151.444 C 301.038 153.989,304.254 157.955,307.501 156.276 L 308.292 155.867 307.766 154.836 L 307.240 153.806 308.032 153.648 C 309.044 153.445,309.083 152.663,308.141 151.429 C 307.125 150.096,304.923 150.103,303.583 151.444 M322.876 151.129 C 322.111 152.221,322.952 154.278,324.162 154.278 C 324.402 154.278,324.599 154.398,324.599 154.545 C 324.599 154.916,323.972 154.881,323.580 154.489 C 323.326 154.235,323.132 154.289,322.687 154.734 L 322.118 155.304 322.863 155.994 C 324.047 157.092,326.738 156.638,326.738 155.341 C 326.738 154.667,327.060 154.670,327.676 155.350 C 329.482 157.346,333.321 156.943,332.249 154.870 C 331.695 153.798,331.683 153.837,332.620 153.650 C 333.549 153.464,333.664 152.875,332.967 151.864 C 331.343 149.508,327.273 150.377,327.273 153.080 C 327.273 153.574,327.152 154.053,327.005 154.144 C 326.858 154.235,326.738 154.059,326.738 153.752 C 326.738 153.395,326.474 153.088,326.003 152.897 L 325.267 152.599 325.934 152.424 C 326.688 152.227,326.942 151.503,326.460 150.923 C 325.909 150.259,323.384 150.404,322.876 151.129 M81.771 153.292 C 81.919 154.584,80.896 155.266,80.061 154.431 C 79.219 153.589,79.832 152.324,81.014 152.462 C 81.527 152.522,81.705 152.717,81.771 153.292 M107.047 153.016 C 107.420 154.502,106.462 155.355,105.500 154.393 C 104.695 153.587,105.080 152.406,106.149 152.406 C 106.701 152.406,106.933 152.564,107.047 153.016 M133.338 152.839 C 133.640 153.626,133.073 154.679,132.347 154.679 C 131.666 154.679,131.307 153.694,131.656 152.785 C 131.856 152.264,133.133 152.305,133.338 152.839 M168.555 153.008 C 168.881 153.530,168.600 154.174,167.833 154.658 C 167.074 155.137,166.120 153.972,166.532 153.069 C 166.902 152.255,168.061 152.220,168.555 153.008 M216.157 152.827 C 216.693 153.362,216.687 153.713,216.135 154.324 C 215.288 155.260,214.171 154.760,214.171 153.445 C 214.171 152.404,215.364 152.033,216.157 152.827 M255.228 152.957 C 255.765 153.550,255.600 154.110,254.728 154.660 C 253.846 155.216,252.874 153.931,253.313 152.788 C 253.529 152.225,254.656 152.324,255.228 152.957 M270.694 153.008 C 271.020 153.530,270.739 154.174,269.972 154.658 C 269.213 155.137,268.259 153.972,268.671 153.069 C 269.041 152.255,270.200 152.220,270.694 153.008 M293.449 153.447 C 293.449 154.434,292.869 155.007,292.149 154.730 C 291.702 154.559,291.518 152.956,291.902 152.572 C 292.474 152.000,293.449 152.551,293.449 153.447 M316.711 154.545 C 316.620 154.693,316.373 154.813,316.161 154.813 C 315.949 154.813,315.775 154.693,315.775 154.545 C 315.775 154.398,316.023 154.278,316.326 154.278 C 316.629 154.278,316.802 154.398,316.711 154.545 M333.743 154.599 C 333.065 155.277,333.573 156.417,334.554 156.417 C 335.156 156.417,335.407 155.832,335.184 154.946 C 335.004 154.228,334.287 154.055,333.743 154.599 M218.854 155.781 C 218.159 157.444,218.409 158.240,219.516 157.888 C 220.017 157.730,220.605 156.739,220.986 155.414 C 221.325 154.237,219.358 154.576,218.854 155.781 M170.355 195.815 C 169.799 196.484,170.067 202.944,170.666 203.314 C 171.058 203.556,171.239 203.488,171.659 202.941 L 172.172 202.273 172.599 202.874 C 173.599 204.287,174.656 203.390,173.681 201.955 L 173.004 200.960 173.568 200.360 C 174.432 199.440,173.686 198.347,172.799 199.233 C 172.113 199.919,171.685 199.265,171.603 197.409 C 171.521 195.519,171.074 194.948,170.355 195.815 M213.537 195.863 C 213.318 196.433,213.320 201.558,213.539 202.654 C 213.818 204.049,214.798 203.699,214.980 202.139 C 215.237 199.938,216.043 199.508,216.043 201.572 C 216.043 202.952,216.513 203.661,217.243 203.381 C 217.550 203.263,217.647 202.780,217.647 201.378 C 217.647 199.314,217.458 199.020,216.042 198.885 L 215.107 198.797 214.973 197.193 C 214.835 195.534,213.970 194.734,213.537 195.863 M154.337 199.666 L 154.412 203.342 156.189 203.342 C 158.383 203.342,159.091 202.847,159.091 201.311 C 159.091 200.754,158.979 200.230,158.843 200.146 C 158.707 200.062,158.663 199.341,158.745 198.544 C 158.933 196.726,158.050 195.992,155.674 195.990 L 154.263 195.989 154.337 199.666 M186.032 196.313 C 185.781 197.059,186.156 197.594,186.930 197.594 L 187.701 197.594 187.705 200.201 C 187.709 202.952,187.909 203.658,188.609 203.390 C 188.964 203.253,189.037 202.746,189.037 200.426 L 189.037 197.627 189.906 197.544 C 190.633 197.474,190.775 197.350,190.775 196.791 C 190.775 196.011,186.286 195.558,186.032 196.313 M195.187 196.528 C 195.187 196.824,195.300 197.275,195.438 197.530 C 195.576 197.786,196.017 198.897,196.419 200.000 C 198.003 204.349,198.160 204.458,199.095 201.857 C 199.680 200.230,199.742 200.227,200.376 201.806 C 201.160 203.761,201.872 204.294,201.872 202.925 C 201.872 202.640,201.966 202.406,202.081 202.406 C 202.196 202.406,202.457 201.835,202.662 201.136 C 202.867 200.438,203.315 199.231,203.657 198.455 C 204.512 196.512,204.485 195.930,203.543 196.038 C 202.900 196.112,202.738 196.333,202.259 197.786 C 201.459 200.210,201.264 200.166,200.260 197.326 C 199.915 196.351,199.698 196.107,199.115 196.038 C 198.338 195.947,198.223 196.236,198.688 197.105 C 198.850 197.408,198.902 198.060,198.806 198.574 C 198.540 199.994,197.892 199.615,197.243 197.660 C 196.655 195.889,195.187 195.080,195.187 196.528 M218.725 197.577 C 218.563 197.880,218.525 198.128,218.641 198.128 C 218.758 198.128,218.852 199.301,218.851 200.735 C 218.850 203.252,218.871 203.345,219.465 203.429 L 220.080 203.517 220.000 200.358 C 219.916 197.067,219.493 196.143,218.725 197.577 M232.520 197.469 C 232.428 197.708,232.353 198.136,232.353 198.418 C 232.353 198.700,232.233 198.930,232.086 198.930 C 231.939 198.930,231.818 199.164,231.818 199.449 C 231.818 199.735,231.939 200.043,232.086 200.134 C 232.233 200.225,232.355 200.863,232.357 201.553 C 232.362 203.014,232.660 203.620,233.262 203.390 C 233.584 203.266,233.690 202.854,233.690 201.721 C 233.690 200.442,233.770 200.196,234.225 200.077 C 234.907 199.899,234.922 199.035,234.245 198.858 C 233.921 198.774,233.699 198.442,233.644 197.961 C 233.546 197.109,232.786 196.776,232.520 197.469 M157.169 198.199 C 157.276 198.752,156.504 199.124,156.096 198.717 C 155.689 198.309,156.061 197.537,156.614 197.644 C 156.870 197.693,157.120 197.943,157.169 198.199 M160.282 199.587 C 158.478 201.391,160.807 204.529,163.079 203.354 C 163.533 203.119,163.904 202.824,163.904 202.698 C 163.904 202.283,164.932 202.182,165.086 202.582 C 165.886 204.668,169.519 203.334,169.519 200.954 C 169.519 199.009,166.446 198.074,165.283 199.666 L 164.745 200.401 163.976 199.666 C 162.934 198.671,161.234 198.634,160.282 199.587 M175.014 199.825 C 173.915 201.265,174.377 202.719,176.167 203.461 C 177.426 203.982,178.823 203.172,178.228 202.265 C 177.685 201.437,177.694 201.390,178.406 201.289 C 180.097 201.047,178.689 198.930,176.839 198.930 C 175.857 198.930,175.600 199.056,175.014 199.825 M179.947 201.203 C 179.947 203.298,179.988 203.476,180.481 203.476 C 180.928 203.476,181.016 203.298,181.016 202.393 C 181.016 201.489,181.177 201.162,181.988 200.420 C 183.183 199.324,182.993 198.930,181.268 198.930 L 179.947 198.930 179.947 201.203 M204.399 199.638 C 202.952 201.199,204.281 203.909,206.283 203.482 C 206.430 203.451,206.972 203.407,207.487 203.384 L 208.422 203.342 208.500 201.136 L 208.578 198.930 206.816 198.930 C 205.255 198.930,204.980 199.011,204.399 199.638 M209.759 199.562 C 209.331 200.214,209.626 201.337,210.225 201.337 C 210.654 201.337,210.402 201.844,209.893 202.005 C 209.113 202.253,209.239 202.866,210.168 203.346 C 211.070 203.813,212.114 203.509,212.666 202.621 C 213.103 201.917,212.564 200.691,211.759 200.561 L 211.096 200.453 211.765 200.281 C 212.191 200.172,212.433 199.920,212.433 199.587 C 212.433 198.711,210.329 198.692,209.759 199.562 M221.235 199.291 C 220.822 200.368,221.257 203.342,221.839 203.425 C 222.350 203.498,222.444 203.349,222.595 202.222 C 222.925 199.761,223.794 199.268,223.801 201.537 C 223.807 203.568,225.080 204.382,225.399 202.559 C 225.595 201.436,226.030 201.449,226.576 202.594 C 226.889 203.250,226.953 203.627,226.762 203.691 C 226.088 203.915,226.502 204.768,227.473 205.158 C 229.790 206.088,230.996 204.807,231.008 201.404 L 231.016 198.930 229.109 198.930 C 227.244 198.930,226.203 199.424,226.203 200.308 C 226.203 200.819,225.655 200.482,225.267 199.733 C 224.799 198.827,221.550 198.471,221.235 199.291 M235.682 199.638 C 233.934 201.524,235.968 204.328,238.360 203.329 C 239.909 202.682,240.337 200.972,239.285 199.635 C 238.491 198.624,236.620 198.626,235.682 199.638 M240.486 199.291 C 240.116 200.257,240.506 203.336,241.011 203.433 C 241.641 203.553,241.969 203.052,241.975 201.960 C 241.980 200.843,242.218 200.267,242.676 200.267 C 242.943 200.267,243.048 200.635,243.048 201.572 C 243.048 202.952,243.518 203.661,244.248 203.381 C 244.757 203.185,244.827 199.747,244.332 199.251 C 243.872 198.792,240.665 198.826,240.486 199.291 M162.834 201.221 C 162.834 202.001,162.198 202.342,161.628 201.869 C 161.153 201.475,161.111 200.760,161.538 200.333 C 162.008 199.863,162.834 200.429,162.834 201.221 M167.914 201.070 C 167.914 201.683,167.228 202.241,166.715 202.044 C 166.161 201.831,166.203 200.621,166.775 200.301 C 167.335 199.988,167.914 200.379,167.914 201.070 M206.898 200.321 C 207.780 201.202,206.687 202.650,205.736 201.861 C 205.232 201.443,205.243 200.944,205.768 200.420 C 206.272 199.916,206.476 199.898,206.898 200.321 M229.412 201.197 C 229.412 201.990,229.046 202.239,228.193 202.025 C 227.409 201.828,227.283 200.705,228.001 200.303 C 228.656 199.937,229.412 200.416,229.412 201.197 M238.355 201.411 C 238.164 201.908,237.308 202.259,236.901 202.007 C 236.460 201.735,236.594 200.583,237.099 200.295 C 237.698 199.954,238.605 200.760,238.355 201.411 M157.693 200.919 C 158.002 201.228,157.301 201.872,156.656 201.872 C 155.899 201.872,155.569 201.205,156.075 200.699 C 156.240 200.534,157.476 200.702,157.693 200.919 M190.709 202.049 C 190.267 202.227,190.283 202.800,190.742 203.180 C 191.227 203.583,191.979 203.275,191.979 202.674 C 191.979 202.305,191.362 201.764,191.088 201.893 C 191.063 201.904,190.892 201.975,190.709 202.049 M359.147 245.922 C 359.224 248.248,359.878 249.375,360.116 247.594 C 360.251 246.583,360.640 246.343,360.925 247.093 C 361.256 247.964,361.926 248.494,362.445 248.294 C 362.799 248.159,362.750 247.983,362.133 247.174 C 361.677 246.576,361.507 246.146,361.681 246.035 C 362.992 245.194,362.156 243.583,360.408 243.583 L 359.070 243.583 359.147 245.922 M364.016 243.942 C 363.941 244.140,363.914 245.193,363.958 246.282 L 364.037 248.262 365.204 248.346 C 366.653 248.450,367.425 248.219,366.840 247.858 C 366.624 247.725,366.193 247.680,365.881 247.758 C 364.724 248.048,364.773 246.688,365.935 246.247 C 366.768 245.930,366.762 245.455,365.925 245.455 C 365.566 245.455,365.205 245.345,365.122 245.211 C 364.870 244.803,365.280 244.093,365.741 244.137 C 366.510 244.211,366.845 244.124,366.845 243.850 C 366.845 243.431,364.179 243.518,364.016 243.942 M368.449 246.009 C 368.449 248.624,369.200 249.547,369.519 247.323 L 369.652 246.390 370.419 247.393 C 371.155 248.354,371.925 248.718,371.925 248.104 C 371.925 247.943,371.686 247.508,371.394 247.136 C 370.890 246.495,370.885 246.423,371.310 245.704 C 372.074 244.410,371.482 243.583,369.792 243.583 L 368.449 243.583 368.449 246.009 M373.271 245.502 C 373.282 248.134,373.685 248.590,375.862 248.437 C 377.168 248.346,377.921 243.871,376.671 243.633 C 376.262 243.555,376.203 243.777,376.203 245.402 C 376.203 248.747,374.573 248.887,374.332 245.563 C 374.126 242.738,373.258 242.687,373.271 245.502 M378.722 243.942 C 378.397 244.789,378.737 248.262,379.144 248.262 C 379.415 248.262,379.572 247.935,379.628 247.259 C 379.735 245.974,380.157 246.002,381.094 247.355 C 381.504 247.948,381.985 248.385,382.163 248.325 C 382.622 248.172,382.612 243.803,382.152 243.650 C 381.917 243.571,381.818 243.902,381.818 244.764 C 381.818 246.339,381.375 246.344,380.425 244.778 C 379.708 243.597,378.990 243.245,378.722 243.942 M360.928 245.363 C 360.565 245.800,360.160 245.582,360.160 244.949 C 360.160 244.226,360.508 244.034,360.884 244.549 C 361.130 244.886,361.142 245.104,360.928 245.363 M370.455 244.920 C 370.455 245.136,370.244 245.354,369.987 245.404 C 369.658 245.467,369.519 245.322,369.519 244.920 C 369.519 244.517,369.658 244.373,369.987 244.436 C 370.244 244.485,370.455 244.703,370.455 244.920 " stroke="none" fill="#e8e8e8" fill-rule="evenodd"></path><path id="path2" d="M0.000 134.225 L 0.000 267.380 200.000 267.380 L 400.000 267.380 400.000 134.225 L 400.000 1.070 200.000 1.070 L 0.000 1.070 0.000 134.225 M255.029 6.751 C 255.115 7.196,252.326 7.219,199.485 7.219 C 144.007 7.219,143.850 7.218,143.850 6.684 C 143.850 5.896,254.878 5.964,255.029 6.751 M188.235 20.655 L 188.234 24.733 186.340 24.733 C 183.770 24.733,182.927 23.663,183.581 21.229 C 183.775 20.505,185.383 19.731,186.243 19.947 C 186.884 20.108,186.898 20.075,186.898 18.523 C 186.898 16.804,186.997 16.578,187.745 16.578 C 188.199 16.578,188.235 16.879,188.235 20.655 M170.025 21.007 C 170.195 20.902,170.321 20.040,170.321 18.990 C 170.321 17.168,170.533 16.756,171.324 17.047 C 171.699 17.185,171.824 24.866,171.451 24.866 C 171.338 24.866,170.227 23.844,168.984 22.594 C 166.235 19.830,166.310 19.835,166.310 22.415 C 166.310 24.719,166.211 24.975,165.473 24.580 C 164.959 24.305,164.677 17.497,165.160 17.015 C 165.262 16.912,166.333 17.809,167.538 19.009 C 168.783 20.247,169.858 21.110,170.025 21.007 M206.551 17.140 C 208.568 17.692,210.585 21.033,209.358 21.791 C 209.211 21.882,209.091 22.250,209.091 22.609 C 209.091 22.968,209.211 23.262,209.358 23.262 C 209.665 23.262,209.730 24.586,209.425 24.623 C 206.898 24.930,204.643 24.804,203.771 24.308 C 200.261 22.312,201.268 17.561,205.348 16.871 C 205.421 16.858,205.963 16.980,206.551 17.140 M234.077 17.477 C 235.083 18.409,234.995 19.573,233.826 20.807 C 232.881 21.804,232.762 22.166,232.870 23.730 C 232.920 24.455,232.836 24.599,232.365 24.599 C 231.678 24.599,231.413 24.018,231.785 23.324 C 231.976 22.966,231.973 22.721,231.772 22.521 C 231.402 22.151,231.839 20.830,232.604 20.009 C 233.706 18.827,233.016 17.735,231.708 18.592 C 230.355 19.479,229.642 18.403,230.918 17.399 C 231.873 16.648,233.219 16.681,234.077 17.477 M223.476 18.503 C 223.652 18.679,223.797 19.036,223.797 19.295 C 223.797 19.555,224.037 19.896,224.332 20.053 C 225.015 20.419,225.022 21.132,224.344 21.310 C 223.917 21.421,223.807 21.721,223.742 22.956 C 223.620 25.294,222.368 25.271,222.246 22.928 C 222.202 22.082,222.052 21.390,221.912 21.390 C 221.573 21.390,221.585 20.130,221.925 19.920 C 222.072 19.829,222.193 19.471,222.193 19.124 C 222.193 18.579,222.455 18.282,223.008 18.203 C 223.089 18.191,223.299 18.326,223.476 18.503 M203.947 19.076 C 203.055 19.903,202.822 20.723,203.211 21.664 C 204.118 23.854,207.352 23.752,207.913 21.517 C 208.511 19.137,205.728 17.425,203.947 19.076 M176.209 20.190 C 177.553 20.885,177.961 22.460,176.797 22.460 C 176.527 22.460,176.072 22.637,175.786 22.852 C 175.280 23.236,175.281 23.245,175.860 23.254 C 176.815 23.267,177.134 24.187,176.313 24.561 C 173.276 25.945,171.172 21.728,174.158 20.240 C 175.228 19.707,175.272 19.706,176.209 20.190 M181.159 20.057 C 182.938 20.734,183.302 22.060,181.818 22.460 C 180.602 22.787,180.486 23.020,181.350 23.399 C 182.159 23.754,182.111 24.396,181.254 24.698 C 178.428 25.692,176.664 21.871,179.228 20.308 C 180.220 19.703,180.226 19.702,181.159 20.057 M196.524 20.152 L 197.460 20.187 197.539 22.167 C 197.633 24.495,197.568 24.587,195.742 24.741 C 193.294 24.946,192.172 23.821,192.651 21.638 C 192.867 20.656,194.246 19.685,195.053 19.945 C 195.348 20.040,196.009 20.133,196.524 20.152 M219.795 20.388 C 221.863 21.785,220.934 24.866,218.445 24.866 C 215.761 24.866,215.128 21.071,217.647 20.082 C 218.626 19.698,218.815 19.725,219.795 20.388 M228.904 20.398 C 230.141 21.232,230.159 22.202,228.944 22.517 C 228.161 22.720,227.709 23.262,228.323 23.262 C 229.007 23.262,229.446 24.113,228.954 24.486 C 227.724 25.420,225.547 24.448,225.244 22.830 C 224.844 20.699,227.114 19.192,228.904 20.398 M212.156 20.655 C 212.230 20.986,212.323 21.738,212.362 22.326 C 212.489 24.235,213.467 23.825,213.636 21.791 C 213.761 20.294,213.815 20.187,214.439 20.187 C 215.096 20.187,215.107 20.223,215.107 22.320 L 215.107 24.453 213.782 24.675 C 211.437 25.068,210.695 24.403,210.695 21.907 C 210.695 20.120,211.821 19.155,212.156 20.655 M174.383 21.678 C 174.435 21.836,174.593 21.965,174.733 21.965 C 174.872 21.965,175.030 21.836,175.082 21.678 C 175.135 21.520,174.978 21.390,174.733 21.390 C 174.488 21.390,174.330 21.520,174.383 21.678 M184.950 21.556 C 184.108 22.398,185.587 24.018,186.503 23.257 C 187.237 22.648,186.900 21.537,185.953 21.445 C 185.506 21.401,185.055 21.451,184.950 21.556 M194.001 21.872 C 193.666 22.926,194.540 23.761,195.565 23.368 C 195.885 23.245,195.994 22.948,195.937 22.359 C 195.836 21.325,194.297 20.939,194.001 21.872 M217.647 22.318 C 217.647 23.372,218.209 23.812,218.953 23.342 C 219.795 22.811,219.502 21.535,218.516 21.440 C 217.681 21.360,217.647 21.394,217.647 22.318 M254.967 36.963 C 255.066 37.062,255.075 37.328,254.988 37.555 C 254.720 38.254,143.850 38.177,143.850 37.478 C 143.850 37.208,143.900 36.937,143.962 36.876 C 144.152 36.686,254.777 36.773,254.967 36.963 M204.805 57.506 C 205.653 57.891,206.286 58.000,206.980 57.883 C 208.287 57.662,208.624 59.145,207.620 60.695 C 207.283 61.215,206.946 62.257,206.861 63.038 C 206.230 68.867,199.879 73.443,194.111 72.224 C 191.777 71.731,189.968 70.325,191.660 70.319 C 192.264 70.317,193.886 69.847,194.381 69.530 C 194.704 69.323,194.567 69.096,193.645 68.307 C 192.839 67.617,192.513 67.133,192.513 66.624 C 192.513 66.231,192.215 65.563,191.852 65.141 C 190.966 64.111,190.785 63.432,191.192 62.671 C 191.455 62.180,191.462 61.883,191.220 61.353 C 190.124 58.946,191.227 57.626,193.099 59.106 C 195.996 61.396,199.198 62.230,199.198 60.695 C 199.198 57.984,202.153 56.303,204.805 57.506 M68.019 146.677 C 68.249 147.279,67.719 148.128,67.112 148.128 C 65.823 148.128,65.702 150.316,66.979 150.536 C 67.660 150.653,67.781 150.794,67.781 151.471 C 67.781 152.147,67.660 152.288,66.979 152.406 C 66.182 152.543,66.176 152.558,66.098 154.493 C 66.013 156.585,65.740 156.970,64.727 156.428 C 64.246 156.171,64.171 155.881,64.171 154.269 C 64.171 153.205,64.056 152.406,63.904 152.406 C 63.757 152.406,63.636 151.985,63.636 151.471 C 63.636 150.956,63.757 150.535,63.904 150.535 C 64.051 150.535,64.171 149.975,64.171 149.290 C 64.171 147.421,65.140 146.257,66.696 146.257 C 67.505 146.257,67.906 146.384,68.019 146.677 M141.918 151.404 L 141.845 156.551 141.043 156.551 L 140.241 156.551 140.168 151.404 L 140.095 146.257 141.043 146.257 L 141.990 146.257 141.918 151.404 M150.379 146.696 C 150.587 147.239,149.828 148.128,149.156 148.128 C 148.340 148.128,148.443 150.466,149.265 150.583 C 150.197 150.715,150.259 152.054,149.349 152.400 C 148.710 152.643,148.663 152.779,148.663 154.396 C 148.663 155.879,148.582 156.174,148.107 156.428 C 147.067 156.985,146.791 156.588,146.791 154.529 C 146.791 152.871,146.724 152.606,146.275 152.489 C 145.315 152.238,145.320 150.702,146.281 150.451 C 146.709 150.339,146.791 150.068,146.791 148.776 C 146.791 146.769,147.229 146.257,148.943 146.257 C 149.872 146.257,150.255 146.374,150.379 146.696 M195.661 151.404 L 195.588 156.551 194.786 156.551 L 193.984 156.551 193.911 151.404 L 193.839 146.257 194.786 146.257 L 195.733 146.257 195.661 151.404 M201.074 146.663 C 201.487 147.161,200.751 148.128,199.959 148.128 C 199.142 148.128,199.245 150.466,200.067 150.583 C 200.538 150.650,200.668 150.842,200.668 151.471 C 200.668 152.099,200.538 152.291,200.067 152.358 C 199.509 152.437,199.465 152.579,199.465 154.287 C 199.465 155.880,199.390 156.171,198.910 156.428 C 197.871 156.984,197.594 156.587,197.594 154.547 C 197.594 152.781,197.551 152.644,196.925 152.406 C 195.947 152.034,196.069 150.847,197.126 150.457 C 197.496 150.320,197.594 149.968,197.594 148.759 C 197.594 146.512,199.830 145.165,201.074 146.663 M227.479 151.404 L 227.406 156.551 226.604 156.551 L 225.802 156.551 225.730 151.404 L 225.657 146.257 226.604 146.257 L 227.552 146.257 227.479 151.404 M235.829 146.658 C 236.233 147.145,235.804 147.782,234.821 148.156 C 233.841 148.528,234.056 150.285,235.116 150.567 C 236.254 150.869,236.594 150.610,236.684 149.375 C 236.839 147.244,238.752 147.728,238.766 149.902 C 238.769 150.246,238.983 150.528,239.305 150.612 C 239.694 150.714,239.840 150.977,239.840 151.579 C 239.840 152.228,239.724 152.406,239.305 152.406 C 238.827 152.406,238.770 152.585,238.770 154.093 C 238.770 156.229,238.340 156.940,237.329 156.479 C 236.672 156.180,236.631 156.049,236.631 154.268 L 236.631 152.376 235.495 152.458 L 234.358 152.540 234.288 153.877 C 234.185 155.852,234.017 156.362,233.403 156.557 C 232.377 156.883,231.818 156.017,231.818 154.103 C 231.818 153.150,231.701 152.406,231.551 152.406 C 231.404 152.406,231.283 151.985,231.283 151.471 C 231.283 150.956,231.404 150.535,231.551 150.535 C 231.698 150.535,231.818 150.046,231.818 149.448 C 231.818 146.925,234.502 145.059,235.829 146.658 M321.658 151.150 C 321.658 156.192,321.560 156.684,320.554 156.684 C 319.723 156.684,319.251 155.917,319.251 154.566 L 319.251 153.288 318.316 153.581 C 317.309 153.896,317.142 154.282,317.781 154.813 C 319.118 155.923,316.367 157.288,314.621 156.381 C 313.889 156.000,313.102 155.192,313.102 154.820 C 313.102 154.665,312.954 154.302,312.774 154.014 C 312.516 153.600,312.516 153.420,312.774 153.162 C 312.954 152.982,313.102 152.654,313.102 152.434 C 313.102 151.449,314.477 150.535,315.959 150.535 C 317.434 150.535,317.817 150.754,318.769 152.145 C 319.209 152.786,319.224 152.708,319.237 149.710 C 319.253 146.215,319.236 146.257,320.633 146.257 L 321.658 146.257 321.658 151.150 M62.512 150.936 C 62.614 156.110,62.515 156.684,61.514 156.684 C 60.473 156.684,60.428 156.470,60.428 151.493 C 60.428 146.759,60.435 146.729,61.621 146.846 L 62.433 146.925 62.512 150.936 M119.465 148.449 C 119.642 148.626,119.786 149.103,119.786 149.509 C 119.786 149.960,119.983 150.354,120.289 150.518 C 121.266 151.041,121.274 152.235,120.302 152.489 C 119.858 152.605,119.786 152.870,119.786 154.377 C 119.786 156.391,119.253 157.015,118.014 156.450 C 117.434 156.186,117.380 156.000,117.380 154.284 C 117.380 153.210,117.265 152.406,117.112 152.406 C 116.965 152.406,116.845 151.985,116.845 151.471 C 116.845 150.956,116.965 150.535,117.112 150.535 C 117.259 150.535,117.380 150.184,117.380 149.754 C 117.380 148.222,118.522 147.506,119.465 148.449 M127.758 149.278 C 127.823 150.068,127.986 150.349,128.493 150.541 C 129.397 150.885,129.434 152.328,128.543 152.455 C 127.996 152.532,127.934 152.705,127.862 154.356 C 127.714 157.734,125.401 157.523,125.401 154.132 C 125.401 152.896,125.297 152.424,125.000 152.310 C 124.779 152.225,124.599 151.920,124.599 151.632 C 124.599 151.344,124.779 150.927,125.000 150.707 C 125.221 150.486,125.401 150.048,125.401 149.734 C 125.401 147.827,127.603 147.401,127.758 149.278 M144.931 148.684 C 145.095 148.990,145.145 149.441,145.043 149.687 C 144.941 149.933,144.880 151.531,144.907 153.240 C 144.961 156.575,144.761 157.047,143.564 156.407 C 142.864 156.032,142.782 151.088,143.466 150.521 C 143.845 150.206,143.845 150.152,143.466 149.940 C 142.636 149.476,143.154 148.128,144.162 148.128 C 144.421 148.128,144.767 148.378,144.931 148.684 M153.426 149.278 C 153.491 150.068,153.655 150.349,154.161 150.541 C 155.073 150.888,155.062 152.058,154.144 152.406 C 153.525 152.642,153.476 152.790,153.476 154.411 C 153.476 156.018,153.421 156.186,152.809 156.465 C 151.668 156.985,151.070 156.171,151.070 154.103 C 151.070 153.150,150.952 152.406,150.802 152.406 C 150.655 152.406,150.535 151.985,150.535 151.471 C 150.535 150.956,150.655 150.535,150.802 150.535 C 150.949 150.535,151.070 150.226,151.070 149.849 C 151.070 147.849,153.264 147.317,153.426 149.278 M230.428 148.449 C 230.893 148.914,230.821 149.663,230.281 149.982 C 229.875 150.221,229.866 150.292,230.211 150.519 C 231.154 151.136,230.890 156.251,229.899 156.566 C 228.750 156.930,227.958 152.252,228.878 150.533 C 229.057 150.199,229.057 149.978,228.878 149.867 C 228.577 149.681,228.513 148.581,228.788 148.307 C 229.078 148.016,230.082 148.103,230.428 148.449 M73.860 151.270 C 74.743 153.308,74.875 153.354,75.581 151.879 C 76.344 150.283,77.807 149.848,77.807 151.217 L 77.807 151.899 78.702 151.217 C 80.915 149.529,83.957 150.832,83.957 153.467 C 83.957 157.614,77.989 157.830,77.680 153.694 C 77.610 152.755,77.273 151.868,77.273 152.622 C 77.273 152.980,75.925 156.006,74.733 158.326 C 73.844 160.055,72.473 159.049,73.121 157.144 L 73.606 155.716 72.632 153.636 C 71.373 150.949,71.369 150.535,72.599 150.535 C 73.371 150.535,73.598 150.667,73.860 151.270 M86.622 151.052 C 86.774 151.336,86.898 152.299,86.898 153.191 C 86.898 154.083,86.995 154.813,87.112 154.813 C 87.629 154.813,87.968 154.080,87.972 152.955 C 87.978 150.906,88.181 150.494,89.139 150.587 L 89.973 150.668 90.050 153.147 C 90.151 156.384,90.085 156.482,87.751 156.603 C 85.882 156.699,85.863 156.693,85.180 155.798 C 84.410 154.789,84.166 151.502,84.813 150.856 C 85.304 150.364,86.312 150.474,86.622 151.052 M96.524 151.532 C 97.049 152.660,97.326 152.633,97.326 151.454 C 97.326 149.627,99.139 150.399,99.878 152.540 C 100.020 152.954,100.091 152.984,100.189 152.674 C 100.690 151.085,101.118 150.535,101.853 150.535 C 102.884 150.535,103.000 151.180,102.263 152.816 C 101.935 153.547,101.415 154.706,101.109 155.393 C 100.343 157.110,100.097 157.166,99.423 155.778 C 98.815 154.527,97.861 154.408,97.861 155.583 C 97.861 155.849,97.640 156.267,97.370 156.511 C 96.911 156.926,95.455 154.877,95.455 153.817 C 95.455 153.691,95.214 153.117,94.920 152.540 C 94.116 150.963,94.198 150.483,95.254 150.585 C 95.933 150.650,96.211 150.857,96.524 151.532 M109.462 151.155 C 109.704 152.056,109.646 155.704,109.383 156.119 C 108.823 157.004,104.947 156.775,103.909 155.796 C 102.378 154.353,102.472 152.070,104.109 150.924 C 105.075 150.247,109.267 150.428,109.462 151.155 M115.491 151.242 C 116.295 152.264,116.307 155.989,115.508 156.417 C 114.444 156.987,113.937 156.353,113.849 154.342 C 113.736 151.765,112.749 151.603,112.618 154.140 C 112.505 156.350,111.605 157.288,110.581 156.264 C 110.074 155.757,109.972 151.364,110.456 150.880 C 111.130 150.206,114.888 150.476,115.491 151.242 M134.576 151.227 C 135.967 152.618,136.016 153.756,134.759 155.506 C 133.043 157.896,129.144 156.370,129.144 153.308 C 129.144 150.936,132.861 149.512,134.576 151.227 M160.742 151.651 C 161.381 152.800,162.032 153.280,162.032 152.603 C 162.032 151.606,162.873 150.535,163.656 150.535 C 164.237 150.535,164.439 150.661,164.439 151.025 C 164.439 151.817,164.695 151.856,165.430 151.175 C 166.541 150.146,168.960 150.244,169.896 151.357 C 171.116 152.807,170.559 156.150,169.098 156.150 C 168.888 156.150,168.717 156.270,168.717 156.417 C 168.717 156.818,166.924 156.739,166.077 156.301 C 164.930 155.708,164.585 155.123,164.422 153.502 C 164.274 152.015,164.271 152.010,163.937 152.803 C 163.753 153.242,163.437 153.964,163.235 154.408 C 163.034 154.851,162.513 156.014,162.078 156.991 C 161.317 158.705,160.572 159.377,159.895 158.959 C 159.546 158.743,159.545 157.301,159.893 157.086 C 160.437 156.750,160.141 155.161,159.190 153.302 C 158.098 151.169,158.130 150.535,159.330 150.535 C 159.980 150.535,160.231 150.733,160.742 151.651 M173.206 152.583 C 173.331 155.643,174.758 155.381,174.918 152.268 C 174.999 150.678,175.005 150.668,175.869 150.585 L 176.738 150.501 176.738 153.459 C 176.738 155.086,176.648 156.425,176.537 156.435 C 172.042 156.832,171.398 156.526,171.180 153.891 C 170.970 151.364,171.261 150.488,172.274 150.586 L 173.128 150.668 173.206 152.583 M182.270 150.971 C 182.398 151.305,182.486 151.299,182.892 150.932 C 183.567 150.321,186.064 150.482,186.470 151.163 C 186.714 151.574,186.640 151.753,186.037 152.212 L 185.310 152.766 185.904 153.060 C 187.536 153.869,186.348 156.684,184.374 156.684 C 182.785 156.684,181.653 154.964,182.815 154.313 C 183.254 154.068,183.254 154.028,182.815 153.544 C 182.561 153.263,182.353 152.892,182.353 152.720 C 182.353 152.199,181.225 152.368,180.565 152.988 C 180.095 153.430,179.946 153.863,179.942 154.793 C 179.937 156.469,179.649 156.879,178.762 156.474 C 178.098 156.172,177.648 151.318,178.230 150.737 C 178.590 150.376,182.120 150.581,182.270 150.971 M192.556 151.385 C 193.587 152.539,193.570 153.438,192.513 153.650 C 191.576 153.837,191.588 153.798,192.142 154.870 C 193.252 157.016,188.986 157.342,187.593 155.217 C 185.604 152.180,190.140 148.678,192.556 151.385 M207.318 151.136 C 207.407 151.467,207.481 152.430,207.483 153.275 C 207.485 154.121,207.583 154.813,207.701 154.813 C 208.229 154.813,208.556 154.069,208.556 152.870 C 208.556 151.270,208.921 150.535,209.715 150.535 C 210.756 150.535,210.963 151.028,210.963 153.510 C 210.963 156.303,210.231 157.450,209.144 156.364 C 208.895 156.114,208.752 156.114,208.503 156.364 C 207.989 156.877,206.643 156.739,205.966 156.103 C 205.350 155.524,205.000 151.239,205.526 150.713 C 205.973 150.266,207.160 150.547,207.318 151.136 M217.668 151.316 C 219.686 153.335,218.100 156.684,215.125 156.684 C 214.249 156.684,214.171 156.748,214.171 157.468 C 214.171 158.844,212.868 159.618,212.309 158.574 C 212.008 158.011,211.920 151.004,212.210 150.713 C 212.825 150.098,216.900 150.548,217.668 151.316 M246.471 152.540 C 246.602 155.600,247.635 155.558,247.861 152.483 L 247.995 150.668 248.930 150.668 L 249.866 150.668 249.942 153.395 C 250.024 156.335,249.570 157.281,248.501 156.394 C 248.202 156.145,248.031 156.141,247.796 156.375 C 247.339 156.833,245.703 156.751,245.141 156.242 C 244.730 155.870,244.652 155.377,244.652 153.150 L 244.652 150.501 245.521 150.585 L 246.390 150.668 246.471 152.540 M256.809 151.434 C 258.539 153.702,257.002 156.684,254.103 156.684 C 253.292 156.684,253.209 156.758,253.209 157.468 C 253.209 158.292,252.617 159.091,252.005 159.091 C 250.998 159.091,250.802 158.357,250.802 154.571 C 250.802 150.201,250.520 150.602,253.614 150.571 L 256.130 150.545 256.809 151.434 M265.881 151.153 C 266.120 151.545,266.062 151.732,265.575 152.132 C 264.837 152.738,264.829 152.841,265.508 153.019 C 267.236 153.470,265.726 156.684,263.786 156.684 C 262.118 156.684,261.065 154.939,262.326 154.264 L 262.886 153.964 262.326 153.571 C 261.651 153.099,261.601 152.103,262.205 151.182 C 262.763 150.329,265.367 150.309,265.881 151.153 M272.035 151.357 C 273.762 153.410,272.264 156.684,269.598 156.684 C 266.927 156.684,265.509 153.248,267.400 151.357 C 268.619 150.139,271.010 150.139,272.035 151.357 M278.388 150.876 C 278.543 151.127,278.661 151.125,278.919 150.867 C 279.554 150.232,281.451 150.457,282.066 151.239 C 282.795 152.166,282.869 155.432,282.178 156.196 C 281.146 157.336,280.214 156.438,280.214 154.304 C 280.214 152.522,280.046 152.233,279.367 152.848 C 279.001 153.180,278.877 153.678,278.877 154.823 C 278.877 156.091,278.791 156.377,278.380 156.485 C 277.328 156.760,277.005 156.239,277.005 154.265 C 277.005 152.639,276.944 152.406,276.514 152.406 C 275.873 152.406,275.401 153.475,275.401 154.926 C 275.401 156.534,274.257 157.190,273.467 156.036 C 273.233 155.694,273.202 151.989,273.426 151.154 C 273.610 150.469,277.985 150.223,278.388 150.876 M288.654 151.471 C 289.408 152.458,289.840 152.660,289.840 152.024 C 289.840 150.726,293.375 150.007,294.685 151.038 C 295.551 151.719,296.132 153.358,295.775 154.109 C 295.625 154.422,295.436 154.889,295.354 155.146 C 294.629 157.415,290.663 156.954,289.481 154.463 C 289.122 153.708,288.931 153.570,288.383 153.675 L 287.720 153.802 288.241 154.824 L 288.763 155.847 287.923 156.266 C 284.657 157.895,281.606 154.189,283.985 151.480 C 285.225 150.068,287.581 150.063,288.654 151.471 M301.731 151.324 C 302.394 152.605,302.294 156.048,301.583 156.428 C 300.592 156.959,300.298 156.578,300.213 154.653 C 300.074 151.519,298.717 151.502,298.466 154.632 C 298.320 156.452,297.736 157.090,296.872 156.373 C 296.504 156.068,296.354 151.061,296.702 150.713 C 297.349 150.066,301.331 150.550,301.731 151.324 M308.141 151.429 C 309.083 152.663,309.044 153.445,308.032 153.648 L 307.240 153.806 307.766 154.836 L 308.292 155.867 307.501 156.276 C 304.254 157.955,301.038 153.989,303.583 151.444 C 304.923 150.103,307.125 150.096,308.141 151.429 M326.460 150.923 C 326.942 151.503,326.688 152.227,325.934 152.424 L 325.267 152.599 326.003 152.897 C 326.474 153.088,326.738 153.395,326.738 153.752 C 326.738 154.059,326.858 154.235,327.005 154.144 C 327.152 154.053,327.273 153.574,327.273 153.080 C 327.273 150.377,331.343 149.508,332.967 151.864 C 333.664 152.875,333.549 153.464,332.620 153.650 C 331.683 153.837,331.695 153.798,332.249 154.870 C 333.321 156.943,329.482 157.346,327.676 155.350 C 327.060 154.670,326.738 154.667,326.738 155.341 C 326.738 156.638,324.047 157.092,322.863 155.994 L 322.118 155.304 322.687 154.734 C 323.132 154.289,323.326 154.235,323.580 154.489 C 323.972 154.881,324.599 154.916,324.599 154.545 C 324.599 154.398,324.402 154.278,324.162 154.278 C 322.952 154.278,322.111 152.221,322.876 151.129 C 323.384 150.404,325.909 150.259,326.460 150.923 M80.011 152.716 C 79.327 153.400,79.879 154.813,80.831 154.813 C 82.001 154.813,82.174 152.597,81.014 152.462 C 80.645 152.419,80.194 152.533,80.011 152.716 M105.243 152.829 C 104.981 153.511,105.052 153.945,105.500 154.393 C 106.462 155.355,107.420 154.502,107.047 153.016 C 106.863 152.284,105.506 152.143,105.243 152.829 M131.656 152.785 C 131.307 153.694,131.666 154.679,132.347 154.679 C 133.073 154.679,133.640 153.626,133.338 152.839 C 133.133 152.305,131.856 152.264,131.656 152.785 M166.532 153.069 C 166.120 153.972,167.074 155.137,167.833 154.658 C 169.071 153.877,168.912 152.618,167.556 152.456 C 167.011 152.391,166.777 152.531,166.532 153.069 M214.505 152.583 C 214.322 152.658,214.171 153.045,214.171 153.445 C 214.171 154.760,215.288 155.260,216.135 154.324 C 217.113 153.243,215.950 152.001,214.505 152.583 M253.313 152.788 C 252.874 153.931,253.846 155.216,254.728 154.660 C 255.600 154.110,255.765 153.550,255.228 152.957 C 254.656 152.324,253.529 152.225,253.313 152.788 M268.671 153.069 C 268.259 153.972,269.213 155.137,269.972 154.658 C 271.210 153.877,271.051 152.618,269.695 152.456 C 269.150 152.391,268.916 152.531,268.671 153.069 M291.902 152.572 C 291.518 152.956,291.702 154.559,292.149 154.730 C 292.869 155.007,293.449 154.434,293.449 153.447 C 293.449 152.551,292.474 152.000,291.902 152.572 M315.775 154.545 C 315.775 154.693,315.949 154.813,316.161 154.813 C 316.373 154.813,316.620 154.693,316.711 154.545 C 316.802 154.398,316.629 154.278,316.326 154.278 C 316.023 154.278,315.775 154.398,315.775 154.545 M335.184 154.946 C 335.407 155.832,335.156 156.417,334.554 156.417 C 333.950 156.417,333.422 155.918,333.422 155.348 C 333.422 154.223,334.917 153.882,335.184 154.946 M220.986 155.414 C 220.605 156.739,220.017 157.730,219.516 157.888 C 218.409 158.240,218.159 157.444,218.854 155.781 C 219.358 154.576,221.325 154.237,220.986 155.414 M171.603 197.409 C 171.685 199.265,172.113 199.919,172.799 199.233 C 173.686 198.347,174.432 199.440,173.568 200.360 L 173.004 200.960 173.681 201.955 C 174.656 203.390,173.599 204.287,172.599 202.874 L 172.172 202.273 171.659 202.941 C 171.239 203.488,171.058 203.556,170.666 203.314 C 170.067 202.944,169.799 196.484,170.355 195.815 C 171.074 194.948,171.521 195.519,171.603 197.409 M214.973 197.193 L 215.107 198.797 216.042 198.885 C 217.458 199.020,217.647 199.314,217.647 201.378 C 217.647 202.780,217.550 203.263,217.243 203.381 C 216.513 203.661,216.043 202.952,216.043 201.572 C 216.043 199.508,215.237 199.938,214.980 202.139 C 214.798 203.699,213.818 204.049,213.539 202.654 C 213.320 201.558,213.318 196.433,213.537 195.863 C 213.970 194.734,214.835 195.534,214.973 197.193 M157.990 196.543 C 158.877 197.084,158.892 197.122,158.745 198.544 C 158.663 199.341,158.707 200.062,158.843 200.146 C 158.979 200.230,159.091 200.754,159.091 201.311 C 159.091 202.847,158.383 203.342,156.189 203.342 L 154.412 203.342 154.337 199.666 L 154.263 195.989 155.674 195.990 C 156.628 195.991,157.379 196.170,157.990 196.543 M190.775 196.791 C 190.775 197.350,190.633 197.474,189.906 197.544 L 189.037 197.627 189.037 200.426 C 189.037 202.746,188.964 203.253,188.609 203.390 C 187.909 203.658,187.709 202.952,187.705 200.201 L 187.701 197.594 186.930 197.594 C 186.156 197.594,185.781 197.059,186.032 196.313 C 186.286 195.558,190.775 196.011,190.775 196.791 M197.243 197.660 C 197.892 199.615,198.540 199.994,198.806 198.574 C 198.902 198.060,198.850 197.408,198.688 197.105 C 198.223 196.236,198.338 195.947,199.115 196.038 C 199.698 196.107,199.915 196.351,200.260 197.326 C 201.264 200.166,201.459 200.210,202.259 197.786 C 202.738 196.333,202.900 196.112,203.543 196.038 C 204.485 195.930,204.512 196.512,203.657 198.455 C 203.315 199.231,202.867 200.438,202.662 201.136 C 202.457 201.835,202.196 202.406,202.081 202.406 C 201.966 202.406,201.872 202.640,201.872 202.925 C 201.872 204.294,201.160 203.761,200.376 201.806 C 199.742 200.227,199.680 200.230,199.095 201.857 C 198.160 204.458,198.003 204.349,196.419 200.000 C 196.017 198.897,195.576 197.786,195.438 197.530 C 194.935 196.599,195.132 195.989,195.938 195.989 C 196.621 195.989,196.738 196.139,197.243 197.660 M220.000 200.358 L 220.080 203.517 219.465 203.429 C 218.871 203.345,218.850 203.252,218.851 200.735 C 218.852 199.301,218.758 198.128,218.641 198.128 C 218.525 198.128,218.563 197.880,218.725 197.577 C 219.493 196.143,219.916 197.067,220.000 200.358 M233.644 197.961 C 233.699 198.442,233.921 198.774,234.245 198.858 C 234.922 199.035,234.907 199.899,234.225 200.077 C 233.770 200.196,233.690 200.442,233.690 201.721 C 233.690 202.854,233.584 203.266,233.262 203.390 C 232.660 203.620,232.362 203.014,232.357 201.553 C 232.355 200.863,232.233 200.225,232.086 200.134 C 231.939 200.043,231.818 199.735,231.818 199.449 C 231.818 199.164,231.939 198.930,232.086 198.930 C 232.233 198.930,232.353 198.700,232.353 198.418 C 232.353 196.951,233.482 196.552,233.644 197.961 M155.980 197.993 C 155.887 198.234,155.940 198.560,156.096 198.717 C 156.504 199.124,157.276 198.752,157.169 198.199 C 157.051 197.584,156.194 197.435,155.980 197.993 M163.976 199.666 L 164.745 200.401 165.283 199.666 C 166.446 198.074,169.519 199.009,169.519 200.954 C 169.519 203.334,165.886 204.668,165.086 202.582 C 164.932 202.182,163.904 202.283,163.904 202.698 C 163.904 203.862,161.140 203.800,160.152 202.615 C 158.200 200.275,161.749 197.538,163.976 199.666 M178.587 199.575 C 179.316 200.351,179.229 201.171,178.406 201.289 C 177.694 201.390,177.685 201.437,178.228 202.265 C 179.282 203.873,176.113 204.064,174.857 202.468 C 173.147 200.294,176.685 197.550,178.587 199.575 M182.774 199.230 C 182.878 199.398,182.532 199.921,181.988 200.420 C 181.177 201.162,181.016 201.489,181.016 202.393 C 181.016 203.298,180.928 203.476,180.481 203.476 C 179.988 203.476,179.947 203.298,179.947 201.203 L 179.947 198.930 181.268 198.930 C 181.994 198.930,182.672 199.065,182.774 199.230 M208.500 201.136 L 208.422 203.342 207.487 203.384 C 206.972 203.407,206.430 203.451,206.283 203.482 C 205.067 203.741,203.743 202.554,203.743 201.203 C 203.743 199.666,204.738 198.930,206.816 198.930 L 208.578 198.930 208.500 201.136 M212.433 199.587 C 212.433 199.920,212.191 200.172,211.765 200.281 L 211.096 200.453 211.759 200.561 C 212.564 200.691,213.103 201.917,212.666 202.621 C 212.114 203.509,211.070 203.813,210.168 203.346 C 209.239 202.866,209.113 202.253,209.893 202.005 C 210.402 201.844,210.654 201.337,210.225 201.337 C 209.626 201.337,209.331 200.214,209.759 199.562 C 210.329 198.692,212.433 198.711,212.433 199.587 M225.267 199.733 C 225.655 200.482,226.203 200.819,226.203 200.308 C 226.203 199.424,227.244 198.930,229.109 198.930 L 231.016 198.930 231.008 201.404 C 230.996 204.807,229.790 206.088,227.473 205.158 C 226.502 204.768,226.088 203.915,226.762 203.691 C 226.953 203.627,226.889 203.250,226.576 202.594 C 226.030 201.449,225.595 201.436,225.399 202.559 C 225.080 204.382,223.807 203.568,223.801 201.537 C 223.794 199.268,222.925 199.761,222.595 202.222 C 222.295 204.459,221.283 203.942,221.177 201.497 C 221.066 198.941,221.074 198.930,223.113 198.930 C 224.775 198.930,224.871 198.966,225.267 199.733 M239.285 199.635 C 240.337 200.972,239.909 202.682,238.360 203.329 C 235.968 204.328,233.934 201.524,235.682 199.638 C 236.620 198.626,238.491 198.624,239.285 199.635 M244.332 199.251 C 244.827 199.747,244.757 203.185,244.248 203.381 C 243.518 203.661,243.048 202.952,243.048 201.572 C 243.048 200.635,242.943 200.267,242.676 200.267 C 242.218 200.267,241.980 200.843,241.975 201.960 C 241.969 203.052,241.641 203.553,241.011 203.433 C 240.506 203.336,240.116 200.257,240.486 199.291 C 240.665 198.826,243.872 198.792,244.332 199.251 M161.538 200.333 C 161.111 200.760,161.153 201.475,161.628 201.869 C 162.198 202.342,162.834 202.001,162.834 201.221 C 162.834 200.429,162.008 199.863,161.538 200.333 M166.775 200.301 C 166.203 200.621,166.161 201.831,166.715 202.044 C 166.937 202.129,167.298 202.050,167.517 201.869 C 168.362 201.167,167.706 199.780,166.775 200.301 M205.768 200.420 C 205.243 200.944,205.232 201.443,205.736 201.861 C 206.687 202.650,207.780 201.202,206.898 200.321 C 206.476 199.898,206.272 199.916,205.768 200.420 M228.001 200.303 C 227.283 200.705,227.409 201.828,228.193 202.025 C 229.046 202.239,229.412 201.990,229.412 201.197 C 229.412 200.416,228.656 199.937,228.001 200.303 M237.099 200.295 C 236.594 200.583,236.460 201.735,236.901 202.007 C 237.308 202.259,238.164 201.908,238.355 201.411 C 238.605 200.760,237.698 199.954,237.099 200.295 M156.075 200.699 C 155.569 201.205,155.899 201.872,156.656 201.872 C 157.301 201.872,158.002 201.228,157.693 200.919 C 157.476 200.702,156.240 200.534,156.075 200.699 M191.556 202.034 C 192.108 202.246,192.100 203.105,191.544 203.318 C 191.051 203.507,190.374 203.051,190.374 202.530 C 190.374 202.339,190.525 202.123,190.709 202.049 C 190.892 201.975,191.063 201.904,191.088 201.893 C 191.112 201.881,191.323 201.945,191.556 202.034 M389.718 234.881 L 390.374 235.537 390.374 245.867 L 390.374 256.198 389.773 256.700 C 388.798 257.513,352.762 257.495,352.065 256.681 C 351.646 256.193,351.604 255.203,351.604 245.840 L 351.604 235.537 352.261 234.881 L 352.917 234.225 370.989 234.225 L 389.062 234.225 389.718 234.881 M358.937 243.672 C 358.456 244.927,358.965 248.529,359.623 248.529 C 360.146 248.529,360.326 248.358,360.460 247.727 C 360.555 247.286,360.646 247.074,360.664 247.256 C 360.758 248.241,361.941 248.886,362.946 248.501 C 363.511 248.284,363.483 248.128,362.716 247.236 C 362.091 246.509,362.081 246.440,362.480 245.603 C 363.164 244.169,362.433 243.316,360.522 243.316 C 359.562 243.316,359.028 243.436,358.937 243.672 M363.750 243.672 C 363.675 243.868,363.649 245.041,363.692 246.279 L 363.770 248.529 365.374 248.599 C 367.418 248.687,367.967 248.390,367.243 247.590 C 366.908 247.220,366.509 247.061,366.111 247.137 C 365.772 247.202,365.431 247.150,365.352 247.023 C 365.273 246.896,365.487 246.790,365.826 246.787 C 367.415 246.777,367.591 245.430,366.040 245.156 C 365.077 244.985,365.196 244.825,366.225 244.907 C 366.838 244.956,367.533 244.047,367.243 243.577 C 366.988 243.165,363.913 243.248,363.750 243.672 M368.093 243.494 C 367.870 243.717,367.857 247.666,368.077 248.240 C 368.294 248.806,369.427 248.780,369.751 248.201 C 369.996 247.763,370.036 247.763,370.521 248.201 C 371.681 249.251,372.995 248.413,371.948 247.290 C 371.359 246.657,371.209 245.989,371.658 245.989 C 372.036 245.989,371.991 244.023,371.604 243.636 C 371.269 243.301,368.402 243.184,368.093 243.494 M372.995 245.557 L 372.995 247.834 373.928 248.545 C 375.033 249.389,375.897 249.289,376.905 248.201 C 377.900 247.127,377.771 243.449,376.738 243.449 C 376.110 243.449,376.065 243.544,375.988 245.029 C 375.827 248.148,374.691 248.265,374.546 245.177 C 374.468 243.514,374.438 243.446,373.730 243.365 L 372.995 243.280 372.995 245.557 M378.456 243.672 C 377.973 244.930,378.483 248.529,379.144 248.529 C 379.702 248.529,379.838 248.374,379.962 247.594 L 380.111 246.658 380.630 247.534 C 381.957 249.774,383.202 248.873,383.098 245.748 C 383.023 243.495,383.008 243.449,382.353 243.449 C 381.770 243.449,381.674 243.581,381.600 244.480 L 381.515 245.511 380.708 244.413 C 379.880 243.288,378.746 242.915,378.456 243.672 M362.037 244.128 C 362.345 244.702,362.152 245.732,361.681 246.035 C 361.507 246.146,361.677 246.576,362.133 247.174 C 362.750 247.983,362.799 248.159,362.445 248.294 C 361.926 248.494,361.256 247.964,360.925 247.093 C 360.640 246.343,360.251 246.583,360.116 247.594 C 359.878 249.375,359.224 248.248,359.147 245.922 L 359.070 243.583 360.408 243.583 C 361.481 243.583,361.804 243.691,362.037 244.128 M366.845 243.850 C 366.845 244.124,366.510 244.211,365.741 244.137 C 365.280 244.093,364.870 244.803,365.122 245.211 C 365.205 245.345,365.566 245.455,365.925 245.455 C 366.762 245.455,366.768 245.930,365.935 246.247 C 364.773 246.688,364.724 248.048,365.881 247.758 C 366.193 247.680,366.624 247.725,366.840 247.858 C 367.425 248.219,366.653 248.450,365.204 248.346 L 364.037 248.262 363.958 246.282 C 363.914 245.193,363.941 244.140,364.016 243.942 C 364.179 243.518,366.845 243.431,366.845 243.850 M371.445 244.265 C 371.698 244.821,371.673 245.089,371.310 245.704 C 370.885 246.423,370.890 246.495,371.394 247.136 C 371.686 247.508,371.925 247.943,371.925 248.104 C 371.925 248.718,371.155 248.354,370.419 247.393 L 369.652 246.390 369.519 247.323 C 369.200 249.547,368.449 248.624,368.449 246.009 L 368.449 243.583 369.792 243.583 C 370.972 243.583,371.172 243.666,371.445 244.265 M374.332 245.563 C 374.573 248.887,376.203 248.747,376.203 245.402 C 376.203 243.777,376.262 243.555,376.671 243.633 C 377.921 243.871,377.168 248.346,375.862 248.437 C 373.685 248.590,373.282 248.134,373.271 245.502 C 373.258 242.687,374.126 242.738,374.332 245.563 M380.425 244.778 C 381.375 246.344,381.818 246.339,381.818 244.764 C 381.818 243.902,381.917 243.571,382.152 243.650 C 382.612 243.803,382.622 248.172,382.163 248.325 C 381.985 248.385,381.504 247.948,381.094 247.355 C 380.157 246.002,379.735 245.974,379.628 247.259 C 379.465 249.229,378.753 248.508,378.664 246.282 C 378.540 243.188,379.146 242.670,380.425 244.778 M360.354 244.281 C 360.084 244.551,360.112 245.393,360.398 245.570 C 360.528 245.650,360.767 245.557,360.928 245.363 C 361.255 244.968,360.704 243.930,360.354 244.281 M369.519 244.920 C 369.519 245.322,369.658 245.467,369.987 245.404 C 370.244 245.354,370.455 245.136,370.455 244.920 C 370.455 244.703,370.244 244.485,369.987 244.436 C 369.658 244.373,369.519 244.517,369.519 244.920 " stroke="none" fill="#8e9a92" fill-rule="evenodd"></path><path id="path3" d="M201.296 57.491 C 200.112 58.117,199.198 59.513,199.198 60.695 C 199.198 62.230,195.996 61.396,193.099 59.106 C 191.227 57.626,190.124 58.946,191.220 61.353 C 191.462 61.883,191.455 62.180,191.192 62.671 C 190.785 63.432,190.966 64.111,191.852 65.141 C 192.215 65.563,192.513 66.231,192.513 66.624 C 192.513 67.133,192.839 67.617,193.645 68.307 C 194.567 69.096,194.704 69.323,194.381 69.530 C 193.886 69.847,192.264 70.317,191.660 70.319 C 189.968 70.325,191.777 71.731,194.111 72.224 C 199.879 73.443,206.230 68.867,206.861 63.038 C 206.946 62.257,207.283 61.215,207.620 60.695 C 208.624 59.145,208.287 57.662,206.980 57.883 C 206.286 58.000,205.653 57.891,204.805 57.506 C 203.323 56.834,202.547 56.831,201.296 57.491 " stroke="none" fill="#54adee" fill-rule="evenodd"></path></g></svg>